<?xml version="1.0" encoding="utf-8"?><!DOCTYPE svg PUBLIC "-//W3C//DTD SVG 1.1//EN" "http://www.w3.org/Graphics/SVG/1.1/DTD/svg11.dtd"><svg version="1.1" id="Contours" xmlns="http://www.w3.org/2000/svg" xmlns:xlink="http://www.w3.org/1999/xlink" x="0px" y="0px" width="1152.205933px" height="1152.205933px" viewBox="0.000024 -0.000009 1152.205933 1662.532471" enable-background="new 0 0 1152.205933 1152.205933" xml:space="preserve" stroke="black" fill="none" stroke-linecap='round' stroke-linejoin='round'><path class="selected"  fill="#000000" opacity="1.000000" stroke="none" 
 	d="
M557.656958 1035.229989 C550.603247 1024.898568 543.283423 1015.496347 540.109595 1003.787118 C539.797095 1002.634042 538.948950 1001.545663 538.119116 1000.637582 C537.396704 999.847299 536.348608 999.354379 535.444434 998.729989 C535.015234 999.495980 534.468359 1000.222909 534.196021 1001.041024 C533.996313 1001.641244 534.016455 1002.397470 534.177466 1003.022714 C537.985938 1017.809457 533.619727 1032.579110 533.700049 1047.370248 C533.780371 1062.196176 530.742285 1077.151986 527.984473 1091.846933 C525.462866 1105.283944 522.131445 1118.652841 517.989355 1131.680551 C512.965796 1147.480966 508.969092 1163.416391 505.979590 1179.727304 C503.515356 1193.171518 499.636694 1206.368661 496.117407 1219.604135 C492.291602 1233.992440 488.095313 1248.281747 484.175147 1262.645639 C480.576025 1275.832528 477.166602 1289.071054 473.606177 1302.268685 C469.159155 1318.753060 464.731909 1335.243783 460.126318 1351.684091 C456.952368 1363.013803 453.496924 1374.264657 450.155127 1385.547372 C445.494971 1401.281747 441.022559 1417.075692 436.069189 1432.717294 C433.750464 1440.039560 429.999243 1446.916269 427.795264 1454.264413 C425.376379 1462.328622 423.921790 1470.688241 422.173193 1478.945810 C419.445288 1491.827401 418.093787 1505.176278 413.777136 1517.492685 C409.945471 1528.425546 401.185217 1536.951913 390.834692 1542.491952 C385.593420 1545.297128 384.163306 1548.416024 384.036292 1553.849862 C383.761938 1565.582040 383.148047 1577.329599 382.040320 1589.010751 C381.328528 1596.516854 379.751379 1603.975351 378.075476 1611.344735 C376.705542 1617.368661 371.835303 1620.649179 365.424475 1620.728769 C355.118811 1620.856698 345.008948 1619.554452 335.066870 1616.790048 C333.519812 1616.359872 331.750403 1616.738046 330.083899 1616.728524 C317.831580 1616.658456 305.713355 1615.446054 293.727881 1612.800302 C291.503088 1612.309091 289.072363 1612.826669 286.744666 1612.713632 C273.686743 1612.080575 260.413855 1612.615487 247.645300 1610.336679 C237.780554 1608.576425 228.123450 1609.461679 218.408118 1608.698983 C212.005164 1608.196298 205.627661 1607.375741 199.234900 1606.735849 C192.841895 1606.095956 186.266699 1608.151376 179.988562 1604.876962 C178.154334 1603.920419 175.398901 1604.718759 173.065772 1604.732186 C163.422156 1604.787118 154.104773 1602.777108 144.688513 1600.913095 C136.808691 1599.353280 128.622107 1599.093759 120.552039 1598.812265 C111.896277 1598.510019 103.391760 1597.848642 95.169714 1594.844735 C93.700171 1594.307626 91.862891 1594.606454 90.216040 1594.752938 C80.123267 1595.648690 70.786230 1591.417489 60.960730 1590.481942 C57.847144 1590.185311 54.810584 1589.035897 51.697791 1588.784188 C41.653113 1587.972177 31.558630 1587.667977 21.554358 1586.538583 C19.056799 1586.256601 15.765845 1584.127938 14.692297 1581.938974 C12.397070 1577.259530 9.529578 1572.782968 9.923438 1566.820077 C10.318823 1560.833505 7.410864 1554.468515 8.442908 1548.716561 C10.790991 1535.629892 9.790320 1522.568368 10.167517 1509.496835 C10.263281 1506.177499 9.404761 1503.609628 7.400916 1500.580331 C2.720496 1493.505380 -0.463647 1485.653817 0.055334 1476.635507 C0.533301 1468.330331 -0.081262 1459.967538 0.211829 1451.645028 C0.671851 1438.581308 1.225684 1425.510019 2.231970 1412.479989 C3.221045 1399.673349 4.796790 1386.910897 6.164709 1374.134530 C7.462073 1362.017221 8.699316 1349.891610 10.188330 1337.797250 C12.058020 1322.610727 14.207617 1307.458871 16.143286 1292.280282 C18.204443 1276.117685 20.109534 1259.935189 22.170752 1243.772592 C24.106421 1228.594003 26.205359 1213.436166 28.140845 1198.257455 C29.556555 1187.154428 30.816504 1176.031503 32.158667 1164.919076 C34.152136 1148.414560 35.259070 1131.738412 38.395728 1115.453744 C41.913123 1097.192025 42.911414 1078.540292 47.964392 1060.500009 C51.011206 1049.622445 51.896582 1038.157968 54.221228 1027.055185 C57.293311 1012.382333 61.108008 997.862680 64.068396 983.169442 C66.502783 971.086312 67.883765 958.793100 70.225073 946.688485 C73.257971 931.007577 76.969824 915.458017 80.019812 899.780160 C81.775916 890.753427 82.637549 881.556405 84.199988 872.487313 C86.015234 861.951303 88.405249 851.511239 90.086584 840.956308 C91.742468 830.560800 92.544592 820.028085 94.240149 809.640268 C95.753821 800.367318 98.121802 791.237191 99.843054 781.993661 C101.464209 773.287484 102.585303 764.488656 104.191504 755.779306 C106.641943 742.492196 109.444067 729.269662 111.859717 715.976449 C113.502051 706.938607 114.563696 697.795419 116.204199 688.757089 C117.996619 678.881967 120.294409 669.098764 122.101843 659.225961 C123.078223 653.892587 123.550024 648.462411 124.144873 643.064340 C125.516211 630.621713 126.537329 618.133065 128.225684 605.734628 C130.621924 588.136972 133.108557 570.534555 136.271643 553.063607 C139.056799 537.679574 143.020728 522.512338 146.061560 507.169564 C147.305334 500.893930 147.870276 494.419686 148.062598 488.015512 C148.313147 479.672006 149.584814 471.656747 151.975256 463.622934 C153.593970 458.182870 153.771094 452.246225 154.100501 446.503427 C154.867590 433.128915 157.428137 420.066293 160.055029 406.974374 C161.313391 400.703134 161.161169 394.159555 162.222022 387.835580 C164.828284 372.298715 166.856116 356.579843 170.822607 341.379342 C175.001013 325.366586 178.990027 309.368234 182.657080 293.229867 C185.212256 281.984445 184.820166 270.850351 186.493811 259.826669 C188.184302 248.692147 187.670020 237.675363 188.209265 226.608895 C188.598914 218.613229 194.552039 211.922982 202.571753 210.892038 C205.749609 210.483590 206.711096 209.512582 206.127600 206.756906 C204.957007 201.229379 207.636389 196.657846 210.262305 192.474801 C218.878882 178.748544 225.853613 164.411081 230.271338 148.728830 C233.699561 136.558908 238.465674 124.770700 242.071448 112.644540 C245.789587 100.140695 249.007544 87.478463 252.114478 74.804635 C256.942053 55.111947 261.275122 35.296273 266.249670 15.642038 C268.660254 6.117990 275.369116 1.740731 284.697546 0.625497 C302.872229 -1.547232 320.149695 2.308053 337.609595 6.541696 C349.877234 9.516427 362.622717 10.460763 375.061499 12.806222 C387.355139 15.124276 399.460791 18.471017 411.780432 20.608590 C422.793860 22.519357 434.132056 22.687631 445.058936 24.930368 C455.874731 27.150277 467.165137 26.136483 477.689429 30.545968 C481.945166 32.329049 487.069312 32.000070 491.780615 32.744088 C499.902319 34.026559 507.987524 36.266854 516.130835 36.481698 C524.046240 36.690499 532.083350 35.237741 539.941992 33.821115 C547.983862 32.371469 555.766821 31.611276 563.522070 35.006967 C565.381445 35.821054 568.513037 36.939035 569.468237 36.101815 C577.217993 29.309091 585.357031 34.569406 593.268164 34.925180 C596.030371 35.049325 598.750098 36.646737 601.490454 36.650460 C675.151831 36.750253 748.813696 36.837838 822.474219 36.565622 C829.959204 36.538034 837.420996 34.126168 844.920752 33.001596 C850.921240 32.101876 856.946021 31.265023 862.990332 30.777169 C873.366309 29.939828 883.758765 29.024057 894.157568 28.818856 C909.091406 28.524057 915.432959 33.449899 920.591528 48.161630 C925.977759 63.522653 929.296118 79.330941 932.602271 95.274972 C935.685034 110.141305 935.003272 124.925546 936.530981 139.668466 C937.577856 149.772592 936.960669 159.933480 938.387793 169.843393 C940.648047 185.537851 942.007788 201.578805 950.053931 215.960153 C953.343604 221.839852 955.436011 228.383187 958.197852 234.568978 C958.829199 235.982980 959.711035 237.907235 960.925757 238.340890 C971.286108 242.039621 970.217993 251.785714 972.006812 259.648629 C974.593481 271.019235 976.279761 282.603036 978.106665 294.134591 C979.059180 300.146066 979.284277 306.271371 980.200049 312.290231 C982.055273 324.482980 985.442358 336.602975 985.776953 348.819223 C986.080542 359.899911 989.433325 370.266366 990.443213 381.122934 C991.238013 389.668710 994.846899 397.919686 996.756079 406.402841 C999.441260 418.334848 1001.737280 430.354867 1004.147314 442.347909 C1005.756812 450.358041 1007.212256 458.399423 1008.851538 466.403329 C1010.547461 474.683725 1012.791357 482.873056 1014.067847 491.213754 C1016.382422 506.335946 1017.904761 521.579721 1020.227393 536.700570 C1022.574072 551.977426 1024.839575 567.324716 1028.481543 582.315438 C1029.911353 588.200692 1029.022681 593.972665 1030.306006 599.530160 C1032.547583 609.237313 1031.240820 619.239511 1033.910010 628.973275 C1035.841528 636.016366 1035.247290 643.717782 1036.223242 651.066781 C1037.261816 658.886361 1039.118872 666.600839 1040.064551 674.427987 C1040.834448 680.799813 1040.533179 687.157846 1041.807593 693.655526 C1043.794653 703.786386 1042.771460 714.474984 1044.316626 724.732431 C1046.984717 742.444833 1044.571997 760.328500 1046.553564 777.879403 C1048.078345 791.383676 1048.320410 805.195443 1052.084448 818.456552 C1052.609717 820.307260 1052.170386 822.435800 1052.154517 824.435556 C1052.085913 833.104745 1053.473730 841.462777 1055.957861 849.835824 C1057.663306 855.584359 1057.478491 861.891610 1058.159399 867.946786 C1059.484229 879.727914 1060.441382 891.566659 1062.253760 903.272592 C1064.517676 917.896005 1067.909277 932.348519 1070.039404 946.987680 C1072.175024 961.666146 1074.681494 976.222543 1077.988135 990.692147 C1079.626318 997.860116 1079.247168 1005.465829 1080.223120 1012.814706 C1081.261816 1020.634408 1082.915625 1028.370126 1084.125342 1036.169809 C1084.957251 1041.534310 1085.374243 1046.962655 1086.180029 1052.331918 C1088.108496 1065.179940 1090.450049 1077.972665 1092.088355 1090.855844 C1094.549780 1110.210092 1099.251440 1129.032968 1103.959326 1147.921640 C1107.010596 1160.163461 1107.968726 1172.914071 1110.207495 1185.375131 C1112.651099 1198.976205 1115.676367 1212.473275 1118.092749 1226.078744 C1119.760107 1235.466439 1120.127051 1245.128427 1122.341284 1254.364267 C1124.846045 1264.811654 1124.832861 1275.614511 1127.965796 1285.978524 C1129.699194 1291.712899 1129.529639 1298.030282 1130.149023 1304.091928 C1131.605200 1318.340097 1133.615332 1332.502206 1136.073096 1346.617196 C1137.228980 1353.255380 1137.207739 1360.092294 1138.221045 1366.762948 C1139.879248 1377.679696 1142.036841 1388.519784 1143.806494 1399.421151 C1144.777319 1405.402108 1145.612402 1411.423349 1146.106543 1417.459481 C1146.955664 1427.834237 1146.584326 1438.391366 1148.346167 1448.591806 C1151.981909 1469.642343 1149.009497 1490.753427 1150.225073 1511.787851 C1150.482886 1516.250009 1149.524146 1520.306894 1146.467139 1523.190438 C1143.480933 1526.007089 1143.764868 1529.253427 1144.269995 1532.285897 C1145.972754 1542.506356 1148.777319 1552.572763 1149.992651 1562.836679 C1151.370825 1574.475595 1151.439795 1586.266366 1152.178809 1597.984872 C1152.526343 1603.494149 1149.503638 1607.108407 1144.929419 1608.596444 C1133.442358 1612.333505 1121.795264 1615.625253 1110.098242 1618.654550 C1101.315283 1620.929208 1092.369360 1622.589364 1083.467871 1624.384042 C1078.821387 1625.321054 1074.139624 1626.223642 1069.429175 1626.673104 C1060.391211 1627.535409 1051.294653 1627.817147 1042.272192 1628.797860 C1032.792334 1629.828622 1023.387793 1631.536630 1013.918311 1632.684579 C1006.555640 1633.577157 999.136694 1633.992929 991.755469 1634.746102 C979.462134 1636.000009 967.108130 1636.911874 955.210181 1640.647958 C954.605200 1640.837899 953.900122 1640.732186 953.242041 1640.726327 C936.805884 1640.581796 920.821997 1644.043222 904.719702 1646.661142 C898.063940 1647.743417 891.294897 1648.213144 884.558325 1648.696054 C873.510962 1649.488046 862.089575 1648.587899 851.496313 1651.161142 C841.645361 1653.553964 831.563818 1650.609872 821.959937 1654.506356 C818.525610 1655.900155 813.988867 1654.275644 810.063086 1654.814706 C797.823462 1656.494149 785.639014 1658.572519 773.425757 1660.448739 C768.082861 1661.269296 762.699683 1662.685556 757.375708 1662.519052 C752.566382 1662.368905 748.814673 1659.291024 746.077979 1654.891610 C741.327368 1647.254403 740.300513 1638.497323 738.324072 1630.118661 C735.833472 1619.559335 734.333105 1608.833505 733.703101 1597.843759 C733.224097 1589.489267 732.477881 1581.069833 732.030127 1572.654550 C731.924780 1570.674325 730.591406 1568.463876 729.214331 1566.893319 C717.523169 1553.559091 711.325415 1537.962411 707.953833 1520.632821 C704.692358 1503.868661 707.425391 1487.113290 706.060400 1470.433114 C705.256445 1460.609628 703.898901 1450.786630 702.051855 1441.104257 C699.830054 1429.458261 696.820532 1417.962655 694.157568 1406.400399 C688.080054 1380.014169 682.013525 1353.668466 674.580054 1327.570565 C668.042212 1304.616830 661.182593 1281.773080 654.053564 1259.012948 C649.263403 1243.719857 642.322607 1229.024545 638.476904 1213.532235 C634.421851 1197.196298 628.877539 1181.489389 622.343481 1166.167733 C614.608740 1148.030648 605.871680 1130.296029 596.990332 1112.678598 C584.329810 1087.564584 571.137793 1062.718393 558.214453 1037.736215 C557.937598 1037.200814 558.164893 1036.404550 557.656958 1035.229989 M441.156958 326.729989 C440.411719 326.063302 439.772925 325.168466 438.905493 324.763314 C417.404395 314.720773 395.813696 304.867196 374.383521 294.676156 C362.395117 288.975228 350.841895 282.344674 338.775977 276.825204 C322.818823 269.525644 306.311743 263.406564 290.482886 255.854196 C273.475439 247.739511 257.139197 238.225045 240.194983 229.968026 C231.355200 225.660348 222.598425 220.738473 212.370398 219.863534 C206.836890 219.390206 203.042578 221.530343 202.195410 226.955575 C200.723608 236.380319 198.639807 245.816781 198.354895 255.294625 C197.919775 269.768991 195.015662 283.737374 192.203772 297.806710 C188.038794 318.645639 181.856665 338.991525 177.478491 359.809091 C174.901770 372.061166 172.802588 384.433480 170.338293 396.706430 C168.141760 407.645883 167.797583 418.943490 166.082495 429.996957 C163.712683 445.269662 160.507666 460.414926 158.243628 475.701059 C155.857214 491.813119 154.351477 508.054086 152.085913 524.186044 C150.666785 534.291024 149.162573 544.387948 147.773718 554.482186 C145.763403 569.094247 141.287878 583.317758 139.984961 598.199838 C138.796606 611.773812 136.117407 625.215097 134.175757 638.726449 C133.357947 644.417367 133.049170 650.195810 131.972388 655.831918 C130.271643 664.734628 127.940772 673.516244 126.208472 682.413705 C124.575171 690.803231 123.233984 699.289193 121.743506 707.667489 C119.385840 720.921640 115.760840 733.971688 114.094397 747.415902 C113.360571 753.336557 111.919531 759.167855 110.845984 765.048227 C109.261145 773.729501 107.639563 782.405038 106.185034 791.108285 C105.241553 796.753549 104.694495 802.465097 103.745764 808.109140 C101.968726 818.681527 99.831763 829.196420 98.212927 839.791513 C96.622839 850.198495 96.929480 861.127206 93.824805 871.017343 C88.983679 886.438729 87.862769 902.427743 84.346228 918.015390 C81.422217 930.976571 80.426184 944.360238 78.080847 957.468026 C75.762671 970.423959 72.680396 983.241464 70.208167 996.172128 C68.603125 1004.566781 67.698767 1013.094979 66.100867 1021.491220 C64.346838 1030.708139 61.829932 1039.786264 60.245337 1049.027597 C58.522803 1059.073739 57.848364 1069.302011 56.067542 1079.335458 C53.767554 1092.294076 50.302161 1105.058236 48.303503 1118.054574 C46.302832 1131.064462 45.523657 1144.260507 44.140845 1157.367807 C43.571204 1162.767831 43.611060 1168.398935 41.996252 1173.487802 C38.410071 1184.789315 38.771826 1196.634164 36.320166 1208.083505 C34.777991 1215.285653 35.892920 1223.140878 33.845862 1230.125863 C31.931128 1236.659677 33.790320 1243.346810 31.883582 1249.298349 C29.084753 1258.034310 30.295508 1267.006845 28.438513 1275.784921 C26.508643 1284.906869 27.202734 1294.549935 26.066870 1303.881967 C24.418127 1317.427621 22.000891 1330.878183 20.204138 1344.408090 C18.643897 1356.157357 18.270361 1368.123910 15.852087 1379.676278 C14.492407 1386.171395 15.811316 1392.972665 13.773596 1398.774423 C11.563025 1405.068368 12.884192 1411.027841 12.167822 1417.079110 C11.451636 1423.129647 10.385230 1429.180429 10.247351 1435.248788 C9.952185 1448.240487 10.406165 1461.250009 10.061804 1474.239267 C9.860938 1481.816171 12.721167 1487.850839 17.617712 1493.133065 C22.640417 1498.551522 30.101965 1497.684579 35.936987 1497.510751 C49.921790 1497.094003 64.003943 1495.964120 77.823157 1492.893563 C81.457739 1492.085946 83.300879 1491.515878 84.384985 1487.404061 C85.937415 1481.516122 89.103125 1476.061776 91.487158 1470.383065 C95.301367 1461.297860 99.174841 1452.233895 102.766272 1443.060311 C105.574744 1435.886727 107.926367 1428.534433 110.663611 1421.331308 C111.038733 1420.343759 112.470801 1419.758310 113.413550 1418.986581 C113.661353 1419.883798 114.060461 1420.770517 114.123999 1421.680429 C114.239966 1423.338876 114.536719 1425.119394 114.097205 1426.660409 C110.445166 1439.465341 106.835486 1452.288827 102.820593 1464.982186 C99.846899 1474.383798 96.223486 1483.578378 93.012427 1492.907235 C91.169836 1498.260507 92.964026 1503.935311 96.745337 1504.687753 C104.163489 1506.164560 111.594092 1507.667245 119.085242 1508.667245 C130.833289 1510.235849 142.813940 1510.537118 154.372656 1512.934579 C171.104529 1516.405038 187.779700 1519.155526 204.923682 1518.777108 C216.249976 1518.527108 227.635230 1518.064950 238.905920 1518.894784 C253.639868 1519.979989 264.576147 1510.615731 268.267920 1497.218270 C272.920935 1480.332528 268.673987 1463.777108 267.436987 1447.116220 C266.899207 1439.873300 265.212256 1432.720224 264.253394 1425.498788 C264.142798 1424.666024 265.359351 1423.657235 265.960608 1422.729989 C266.692725 1423.526376 267.693945 1424.203134 268.109351 1425.139901 C269.731360 1428.797616 271.271216 1432.499032 272.656531 1436.252450 C280.879858 1458.535165 285.525000 1476.235360 278.231848 1501.680185 C277.200049 1505.280038 280.216284 1515.180185 283.084265 1516.550546 C290.584876 1520.134286 298.104956 1523.769540 305.888464 1526.651864 C327.426978 1534.627450 349.919836 1536.640634 372.707190 1536.815438 C379.566016 1536.868173 384.713355 1533.746835 389.934363 1530.014413 C401.802100 1521.530282 405.479773 1508.722421 408.079443 1495.527352 C411.461218 1478.362802 414.626196 1461.210214 420.011572 1444.474130 C424.761450 1429.713144 427.841528 1414.419931 432.413794 1399.594735 C440.698584 1372.731942 450.215918 1346.234506 457.957495 1319.222909 C464.904761 1294.983285 469.037939 1269.910775 476.500830 1245.853524 C482.793921 1225.566659 486.660864 1204.794320 492.195044 1184.393808 C496.013892 1170.316049 498.851416 1156.021615 503.500586 1142.105233 C510.019995 1122.590951 516.269751 1102.881112 518.182227 1082.170541 C518.681372 1076.765268 518.610571 1071.082650 520.354834 1066.067758 C523.254736 1057.730477 522.919775 1049.072519 523.901709 1040.629769 C525.678198 1025.355233 523.979956 1009.935556 525.654150 994.439828 C527.408179 978.204965 528.957861 962.037973 532.037939 945.963510 C535.562598 927.569101 540.368384 909.575692 546.037207 891.750985 C549.139258 881.996957 551.658179 872.044442 554.115210 862.101205 C558.025244 846.277597 561.699683 830.430551 564.424414 814.305917 C566.927100 799.494516 570.544409 784.942880 570.218604 769.750985 C569.925757 756.092538 570.093604 742.422006 570.226416 728.758554 C570.245947 726.744394 571.005347 723.088266 571.745337 723.003305 C575.919409 722.524179 573.528418 726.073739 574.148291 727.874765 C574.851904 729.918954 575.944189 731.955575 576.082373 734.047372 C576.900366 746.426156 577.802222 758.814584 578.022925 771.211312 C578.130469 777.253915 576.707495 783.311654 576.188086 789.380624 C575.612036 796.114389 576.055884 802.748178 574.440161 809.613290 C570.261938 827.364511 567.722510 845.493783 564.090674 863.383310 C560.567236 880.738778 555.803564 897.798959 550.134253 914.582284 C543.637305 933.815927 541.649634 953.621225 546.474707 973.189584 C550.217871 988.370248 555.941016 1003.244882 562.406958 1017.520394 C568.779517 1031.589608 577.085059 1044.795785 584.742041 1058.267221 C592.418677 1071.773202 600.641943 1084.974984 608.090674 1098.602548 C621.170630 1122.531503 629.912207 1148.228769 638.206641 1174.112069 C648.667090 1206.755014 659.779150 1239.190927 670.046362 1271.893075 C675.989478 1290.822763 680.823706 1310.100839 686.156958 1329.222177 C690.156958 1343.563119 694.410254 1357.839975 698.068457 1372.267587 C700.532813 1381.986825 702.220801 1391.906259 704.138159 1401.759286 C705.882300 1410.721688 707.245703 1419.763192 709.172217 1428.684335 C712.320044 1443.259774 716.245459 1457.677499 716.182105 1472.774911 C716.108496 1490.319101 715.439185 1507.895028 720.106055 1525.124276 C723.412573 1537.332040 729.415747 1548.092294 736.723730 1558.231454 C737.380347 1559.142343 738.571143 1559.668222 739.513770 1560.373056 C739.728125 1559.128671 740.105444 1557.887460 740.127417 1556.639657 C740.203955 1552.308114 740.114233 1547.973886 740.191748 1543.642587 C740.207739 1542.744394 740.669653 1541.854501 740.926123 1540.960702 C741.868750 1541.749520 743.335791 1542.364022 743.665747 1543.356454 C745.326025 1548.350595 746.472510 1553.519784 748.223730 1558.477548 C749.693823 1562.639169 751.340918 1567.270028 756.064063 1568.597421 C760.614966 1569.876962 765.485938 1570.686532 770.193579 1570.591317 C778.259863 1570.427499 786.300879 1569.277108 794.366431 1568.758310 C806.415015 1567.983407 818.482153 1567.496102 830.528540 1566.690927 C837.265845 1566.240731 844.010230 1565.629892 850.692847 1564.679940 C863.553442 1562.851083 876.317480 1559.793466 889.226904 1559.031991 C899.224829 1558.442392 908.858008 1556.709726 918.546606 1554.722665 C925.264258 1553.344735 927.528784 1549.469491 925.186133 1542.811776 C922.528052 1535.258065 919.476782 1527.843270 916.760840 1520.308847 C909.834692 1501.095956 906.723975 1481.312997 908.148047 1460.879403 C908.217383 1459.884530 907.822974 1458.703378 908.236670 1457.922860 C908.831885 1456.800058 909.971289 1455.965829 910.878516 1455.008310 C911.304663 1455.979501 911.661719 1456.988046 912.167578 1457.915780 C917.198584 1467.142343 915.829688 1477.650399 918.000952 1487.466317 C920.894019 1500.546395 923.879858 1513.555917 928.577368 1526.111093 C930.950415 1532.453866 934.386816 1538.501718 935.951147 1545.016610 C937.668921 1552.169931 939.820410 1555.046151 947.317358 1554.664071 C954.389136 1554.304452 961.829321 1554.573495 968.368628 1552.371591 C973.976050 1550.483651 979.262793 1551.349130 984.657690 1550.721200 C990.051978 1550.093515 995.431372 1549.334726 1000.829688 1548.745858 C1007.545386 1548.013192 1014.402563 1548.001718 1020.969824 1546.604013 C1034.675757 1543.686776 1048.217017 1540.004159 1061.852881 1536.748300 C1073.392188 1533.992929 1085.049536 1531.691415 1096.487036 1528.573495 C1100.627539 1527.444833 1104.833594 1525.150888 1108.038916 1522.297860 C1114.192969 1516.820321 1113.403174 1509.421151 1110.905981 1502.604013 C1103.383643 1482.068612 1095.442969 1461.686288 1087.675269 1441.240487 C1087.127905 1439.799325 1086.429297 1438.358163 1086.230078 1436.860116 C1086.070410 1435.659188 1086.562109 1434.371591 1086.764746 1433.122323 C1087.707373 1433.803476 1088.961646 1434.286874 1089.540869 1435.198739 C1092.713110 1440.193124 1095.754492 1445.272470 1098.774512 1450.361581 C1102.581397 1456.777108 1107.244482 1462.874765 1109.900855 1469.742685 C1115.239966 1483.546884 1119.493506 1497.772470 1124.132544 1511.844491 C1124.871191 1514.084726 1125.284522 1516.432138 1125.848242 1518.729989 C1129.861182 1517.153329 1134.617773 1516.408456 1137.631323 1513.714120 C1139.717749 1511.848642 1140.033423 1507.298349 1140.054053 1503.940927 C1140.186255 1482.418710 1140.216772 1460.973153 1136.496191 1439.548593 C1134.607031 1428.670175 1132.834692 1417.827401 1130.268897 1407.070565 C1128.366064 1399.093270 1127.325659 1390.893808 1126.208105 1382.750741 C1125.290015 1376.062509 1125.515234 1369.151620 1124.002051 1362.624887 C1121.445166 1351.595834 1121.429419 1340.368661 1120.213599 1329.244271 C1119.263770 1320.552621 1119.216162 1311.753060 1118.062842 1303.095224 C1116.435034 1290.875741 1114.075781 1278.755502 1112.182959 1266.569101 C1110.718848 1257.142953 1110.271460 1247.483773 1107.955908 1238.284677 C1105.164404 1227.194711 1103.071265 1216.097543 1102.117163 1204.727426 C1101.636938 1199.002450 1101.069067 1193.247934 1099.966040 1187.619516 C1097.558081 1175.332894 1094.792334 1163.115976 1092.153906 1150.874765 C1089.846289 1140.168344 1087.977759 1129.339852 1085.081397 1118.794320 C1080.811987 1103.249032 1078.382056 1087.405038 1076.210059 1071.505990 C1074.605933 1059.763559 1073.758398 1047.916146 1072.081152 1036.185922 C1070.429175 1024.632821 1068.177344 1013.165048 1066.148779 1001.666757 C1064.999731 995.154061 1063.654272 988.674325 1062.601660 982.146737 C1060.382300 968.381356 1058.253027 954.601083 1056.172217 940.813852 C1054.701636 931.070565 1054.451270 920.992318 1051.727759 911.624154 C1047.538794 897.215585 1046.930029 882.353158 1044.287451 867.773568 C1042.294775 856.780282 1041.931006 845.496347 1040.046729 834.477670 C1037.631445 820.353158 1034.256689 806.419320 1034.057593 791.951547 C1033.951270 784.221078 1034.087622 776.114144 1031.851538 768.876229 C1028.733740 758.783944 1029.536230 748.393685 1028.757422 738.396249 C1027.116431 717.333383 1027.568945 696.130380 1024.343848 675.079965 C1022.623633 663.852548 1022.811987 652.331308 1022.169897 640.941049 C1022.076270 639.279794 1022.702612 637.355722 1022.066382 635.984384 C1018.600317 628.514169 1019.921240 620.333871 1018.385474 612.557504 C1016.159644 601.287728 1015.713232 589.678842 1014.096045 578.273080 C1012.365210 566.065072 1009.992163 553.948617 1008.220557 541.745614 C1007.203467 534.740365 1007.213599 527.578134 1006.063452 520.601693 C1004.431738 510.704232 1001.884131 500.958261 1000.233008 491.063241 C998.555151 481.007821 998.382056 470.630746 995.961279 460.785165 C991.631201 443.173349 988.227026 425.318490 983.689795 407.838388 C978.695166 388.596688 975.906104 369.070077 972.370581 349.655526 C969.338965 333.007638 968.232642 316.013314 966.134497 299.189767 C964.240820 284.007089 962.208105 268.841073 960.119360 253.683847 C959.628516 250.121774 958.569556 247.401986 953.816870 249.889169 C950.861182 251.435922 947.349341 252.270578 943.999121 252.651925 C930.124854 254.231332 917.503394 259.299935 905.668555 266.346505 C899.453467 270.047006 894.121802 275.346139 887.715918 278.590524 C865.428564 289.878610 843.220679 301.460336 820.272314 311.268808 C796.499243 321.429818 771.960303 329.823739 747.641943 338.675851 C729.094336 345.427133 710.468359 351.999398 691.685767 358.057138 C678.997168 362.149423 665.995947 365.286630 653.094946 368.701547 C644.964819 370.853646 636.816504 373.003183 628.576147 374.653695 C620.198706 376.332040 611.727271 378.112924 603.240820 378.453744 C598.370947 378.649301 597.435278 381.652841 596.340918 384.462655 C595.439307 386.777719 596.209570 389.724862 596.149023 392.389779 C594.904517 447.099130 598.705054 501.868905 594.172705 556.540536 C593.394995 565.920541 592.959937 575.330941 592.048682 584.696420 C591.852393 586.713266 590.282568 588.596566 589.345557 590.541391 C588.282690 588.774301 586.746191 587.122445 586.281348 585.209970 C585.745825 583.007211 586.140601 580.574105 586.159399 578.241220 C586.295142 561.498666 587.192236 544.778573 587.786108 528.063363 C589.016089 493.445077 587.981787 458.751229 588.248633 424.091317 C588.346655 411.364755 589.492041 398.646493 590.152686 385.923959 C590.187109 385.259286 589.873145 384.359018 590.199805 383.959603 C594.643652 378.525033 590.657080 377.956430 586.451636 376.642221 C575.392554 373.186166 563.850073 372.222055 552.628149 369.149179 C525.980200 361.852060 500.680884 351.306405 475.437842 340.531015 C468.900122 337.740304 462.641333 334.513070 455.710181 332.584481 C451.322485 331.363656 447.327856 328.729989 441.156958 326.729989 M739.156958 332.729989 C750.886572 328.063363 762.463477 322.957772 774.375708 318.816476 C804.155981 308.463449 832.859473 295.714059 860.521460 280.671090 C885.295386 267.198678 909.765601 253.169198 934.431860 239.497567 C943.975928 234.207711 945.210547 231.370126 939.812476 221.498300 C932.214697 207.604013 929.460913 192.173532 926.527686 177.098275 C923.522070 161.651010 923.350439 145.635141 922.208838 129.848581 C921.506323 120.133310 921.468481 110.409005 920.615332 100.655954 C919.195532 84.424752 914.509009 68.977731 912.075903 53.048165 C911.169653 47.116342 903.594214 38.714059 899.204810 38.836435 C884.490942 39.246957 869.736182 39.562326 855.101660 40.987435 C844.500464 42.019784 834.128272 45.913217 823.542822 46.489877 C801.199683 47.706918 778.772681 47.700082 756.407202 48.227731 C714.414160 49.218454 672.303687 50.503976 630.308203 46.777047 C619.284399 45.798715 608.207007 45.432443 597.161597 44.677377 C595.997168 44.597787 594.897803 43.424142 593.742529 43.376046 C585.045142 43.014413 575.882178 36.642160 567.812476 45.763864 C566.380347 47.382760 562.076025 48.896493 562.063940 43.309091 C562.062109 42.448068 560.846289 40.868905 560.148169 40.843759 C554.491553 40.640939 548.632666 39.811471 543.205908 40.945810 C535.117651 42.636361 527.176611 44.974618 518.831885 44.700448 C507.765601 44.336923 496.701880 45.561776 485.633643 42.910104 C476.401465 40.698312 466.622412 40.765451 457.394507 38.541207 C447.277930 36.102609 437.078711 34.420297 426.852271 32.722604 C418.132117 31.275033 409.405920 29.853891 400.711951 28.260324 C387.413916 25.822824 374.143652 23.234262 360.856665 20.735971 C355.285437 19.688485 349.695837 18.738534 344.124854 17.689462 C335.476965 16.060983 326.842871 14.358712 318.193152 12.739877 C312.925513 11.753976 307.356421 11.616952 302.428076 9.758432 C295.060645 6.980355 288.520056 10.236825 282.238440 12.130258 C276.344763 13.906747 273.805090 20.174569 272.028906 26.412179 C268.405798 39.135812 267.071143 52.340890 263.872534 65.041818 C256.079077 95.987680 247.400244 126.745370 237.891882 157.208566 C233.701086 170.635080 230.089758 184.606637 221.552832 196.402475 C216.947485 202.765817 217.124976 205.159860 223.396094 208.612191 C232.025488 213.362680 241.163245 217.179696 249.985083 221.592721 C267.929175 230.569101 285.643530 240.021127 303.751257 248.650155 C331.837866 262.034677 360.252417 274.729867 388.379858 288.030343 C410.662329 298.566903 432.367285 310.326242 455.476050 319.094369 C466.986914 323.461923 478.319922 328.297128 489.817725 332.700692 C506.498389 339.089303 523.199805 345.433114 539.996191 351.508554 C555.952368 357.280160 571.971899 362.985849 589.323096 362.738900 C591.305151 362.710702 593.804175 362.047006 595.180762 362.980111 C600.431128 366.538705 606.235083 365.003183 611.459204 364.489877 C624.362402 363.222055 637.194922 360.997934 649.958350 358.631723 C657.890356 357.161142 665.641577 354.720102 673.478613 352.732431 C684.032324 350.055917 694.806006 348.034066 705.087134 344.554696 C715.861426 340.908578 727.344946 339.019052 739.156958 332.729989 M757.156958 1580.729989 C747.668677 1576.579843 746.931250 1577.420175 746.002295 1586.463144 C744.181982 1604.184091 749.712622 1620.836679 752.460547 1637.874520 C753.737402 1645.791024 757.690527 1649.064462 763.480078 1648.675790 C769.883154 1648.246102 776.421240 1648.078622 782.612524 1646.595224 C797.938574 1642.922860 813.371924 1640.673349 829.134131 1640.728036 C832.798926 1640.740731 836.867529 1641.770028 840.052222 1640.533700 C849.312231 1636.937753 859.055151 1639.075204 868.539893 1637.141122 C880.240088 1634.755380 892.557471 1635.395028 904.608618 1634.734628 C905.272925 1634.698251 906.019385 1634.928231 906.595557 1634.700448 C916.380957 1630.832772 926.891821 1633.069345 936.981421 1630.957284 C948.205298 1628.607919 959.860327 1628.404794 971.212256 1626.557870 C984.845679 1624.340097 998.357642 1621.373788 1011.921729 1618.729745 C1023.589819 1616.455087 1035.555640 1617.357431 1047.279517 1614.891366 C1061.913550 1611.812997 1076.995459 1611.919198 1091.803198 1609.081063 C1106.584692 1606.248056 1121.045020 1602.542977 1135.421118 1598.345956 C1139.965308 1597.019052 1142.218970 1594.087655 1142.401953 1588.404306 C1142.895972 1573.050790 1140.177954 1558.114022 1138.040137 1543.094491 C1137.486426 1539.203866 1136.432105 1534.667977 1133.949683 1531.933602 C1130.046729 1527.634286 1119.699805 1528.212899 1114.471655 1531.294931 C1110.777808 1533.472421 1106.823950 1535.532724 1102.714941 1536.623056 C1088.869482 1540.296884 1074.423438 1542.230722 1061.094946 1547.207772 C1041.470435 1554.535897 1021.003027 1557.180185 1000.693823 1560.423837 C986.564917 1562.680185 971.969458 1561.933358 957.596411 1562.770028 C945.429785 1563.477792 933.412695 1561.681161 921.087744 1566.234872 C909.440894 1570.538339 896.285742 1570.803476 883.771704 1572.697274 C878.080542 1573.558358 872.216895 1573.546884 866.636328 1574.825448 C848.677100 1578.940194 830.525244 1580.808114 812.129370 1580.743173 C794.472022 1580.680917 776.814429 1580.729989 757.156958 1580.729989 M20.157019 1507.729989 C19.685828 1508.201181 18.830481 1508.647958 18.798865 1509.146981 C17.531775 1529.138192 17.418188 1549.128915 20.392004 1568.975106 C20.716834 1571.142587 24.038916 1573.995370 26.405737 1574.502694 C32.645422 1575.841073 39.121802 1576.090097 45.508948 1576.722665 C52.555579 1577.420907 59.959814 1576.914804 66.590613 1578.948007 C85.511572 1584.749032 105.196570 1585.347177 124.469092 1588.631845 C135.479102 1590.508065 146.790137 1590.728036 157.726416 1592.898935 C171.429968 1595.619394 185.127905 1597.090097 199.059668 1596.738046 C201.389197 1596.679208 203.789404 1596.367440 206.041174 1596.789804 C219.369727 1599.288339 232.774573 1600.835458 246.352942 1600.738290 C253.012488 1600.690683 259.891760 1599.659677 266.283972 1600.967782 C277.347144 1603.231942 288.535437 1603.424325 299.646399 1604.675302 C306.022376 1605.393319 312.380469 1605.274667 318.856604 1606.330575 C331.343909 1608.366952 344.206946 1608.238046 356.925574 1608.666513 C364.984351 1608.938241 366.605383 1607.348397 368.136206 1599.048837 C369.566504 1591.294442 371.074500 1583.540048 372.085974 1575.725839 C373.079260 1568.052255 373.530310 1560.306894 374.128272 1552.585702 C374.273718 1550.707772 374.738135 1548.787851 371.439368 1548.636483 C363.044775 1548.250985 354.672705 1547.383065 346.288855 1546.744149 C344.964575 1546.643319 343.590002 1546.930185 342.299658 1546.698495 C331.463293 1544.753671 320.562903 1543.075448 309.834387 1540.643563 C296.115027 1537.532968 281.975195 1534.997079 271.994543 1523.534433 C269.162146 1520.281259 266.790808 1519.863534 262.845496 1522.523935 C259.402380 1524.845712 254.839331 1526.183847 250.641272 1526.579599 C238.970435 1527.679696 227.231787 1528.590829 215.520483 1528.583505 C203.475439 1528.575936 191.401221 1527.720224 179.397009 1526.614511 C171.568091 1525.893075 163.866858 1523.880380 156.060828 1522.785897 C149.381873 1521.849618 142.439185 1522.174081 135.965613 1520.542489 C126.920996 1518.263436 117.749976 1517.313729 108.596594 1516.913827 C98.925452 1516.491220 90.263220 1514.759774 83.571631 1507.188485 C82.459692 1505.930429 81.486975 1505.926522 79.317358 1506.149911 C65.045203 1507.620126 50.666418 1508.231210 36.308997 1508.602792 C31.277869 1508.732919 26.208716 1507.396493 20.157019 1507.729989 z"/><path class="selected"  fill="#000000" opacity="1.000000" stroke="none" 
 	d="
M587.656958 644.229989 C586.156958 644.206552 584.245825 643.575326 584.293188 643.176034 C585.049780 636.789315 582.357886 630.191293 585.780615 623.893563 C586.760107 622.091439 585.766333 619.310434 586.297095 617.128915 C586.537939 616.139657 588.325049 614.864755 589.348364 614.917977 C590.326636 614.968759 592.113867 616.681527 592.017920 617.480477 C591.153296 624.688974 589.950903 631.856698 588.851294 639.037118 C588.611914 640.600106 588.387915 642.165658 587.656958 644.229989 z"/><path class="selected"  fill="#000000" opacity="1.000000" stroke="none" 
 	d="
M298.656958 24.229989 C313.510901 34.229501 330.122900 38.498605 345.899573 44.623666 C369.453284 53.767831 393.726294 60.849557 417.292822 70.162545 C435.600806 77.397531 453.716895 85.238900 472.243506 92.009103 C490.752539 98.772836 507.766821 108.488046 523.343848 120.760141 C532.149023 127.697213 542.068701 133.008676 552.194678 137.902780 C555.596289 139.546823 556.211523 138.582589 556.170874 135.444467 C556.114966 131.112985 556.085913 126.777719 556.239966 122.450936 C556.261084 121.856942 557.380469 120.878488 558.029639 120.846200 C558.714941 120.812143 559.971411 121.606637 560.073828 122.196420 C560.889624 126.893014 561.803931 131.610238 562.058325 136.354928 C562.264624 140.199960 563.253027 142.058297 567.503149 142.876596 C579.143897 145.117929 590.533179 149.199960 602.242163 150.391488 C612.717749 151.457528 623.402319 151.396493 634.081763 148.086496 C661.321875 139.643808 688.518164 131.089730 716.300147 124.298471 C734.112891 119.944162 751.227271 112.461984 767.445166 103.018502 C779.327856 96.099435 793.588721 93.200326 805.296851 86.061288 C821.721777 76.046151 839.762183 70.991464 857.480322 64.648385 C865.582617 61.747750 873.377783 57.984811 881.280493 54.540353 C881.721167 54.348275 882.198706 53.406808 882.085303 52.959848 C881.881689 52.158090 881.282324 50.863290 880.777075 50.829232 C877.791235 50.627877 874.629858 50.116037 871.811133 50.829477 C853.413672 55.485665 834.317480 57.360299 816.556006 64.620004 C815.419897 65.084359 812.578467 64.296456 812.342749 63.532113 C811.389868 60.442208 814.200171 61.380258 815.832373 60.623483 C830.799170 53.684518 846.726416 49.720712 862.541357 45.499581 C868.641699 43.871408 875.089453 43.436410 881.412939 42.790048 C885.864722 42.335031 890.688818 44.234445 891.781104 48.014108 C892.928198 51.983041 890.351782 55.864022 886.186011 58.907663 C875.655981 66.601449 863.320532 70.299081 851.415381 73.954110 C833.532202 79.444467 817.227881 88.030770 800.262671 95.385629 C775.686133 106.040292 752.875342 120.736642 726.547095 127.419137 C713.030005 130.849984 699.669653 134.903085 686.256934 138.739633 C671.662451 142.914132 657.069434 147.096383 642.512671 151.399850 C629.124609 155.357858 615.816504 160.261605 601.573950 158.631112 C585.725317 156.816659 570.200415 155.063790 555.160132 147.550485 C541.869727 140.911386 528.999487 133.551461 515.921851 126.582406 C508.471899 122.612313 501.694922 117.320321 494.821265 112.338876 C477.564063 99.832406 457.694434 92.694345 438.226782 84.824472 C422.237708 78.360849 405.948950 72.627755 389.723914 66.761850 C376.384070 61.938974 362.851233 57.641244 349.568762 52.670480 C331.368567 45.859445 312.601355 40.229928 296.503516 28.730661 C294.961768 27.629342 292.811743 26.859079 292.012061 25.363900 C290.874670 23.237435 289.710852 20.183358 290.460120 18.270456 C291.128272 16.564645 294.290564 15.132455 296.506812 14.866098 C303.599646 14.013620 310.206824 16.558175 316.831213 18.719674 C333.273596 24.084542 349.754431 29.332650 366.170813 34.775216 C370.250830 36.127999 374.144995 38.041696 378.124548 39.697580 C373.670569 42.372873 369.641028 39.951791 365.440527 38.760141 C348.732459 34.020272 331.964026 29.491769 315.277808 24.677499 C309.552832 23.025766 304.312354 19.119516 297.938452 20.783639 C294.075232 21.792245 298.134070 22.725778 298.656958 24.229989 z"/><path class="selected"  fill="#000000" opacity="1.000000" stroke="none" 
 	d="
M561.656958 94.229989 C560.688086 94.261117 559.867163 93.836373 559.801978 93.316781 C558.322852 81.537240 553.450659 69.886727 558.218604 57.865182 C558.667578 56.732980 559.980444 55.943490 560.892188 54.994821 C561.313696 56.301522 562.090552 57.605233 562.101294 58.915353 C562.196997 70.519601 562.156958 82.124948 561.656958 94.229989 z"/></svg>