<?xml version="1.0" encoding="utf-8"?>
<!-- Generator: Adobe Adobe Illustrator 24.2.0, SVG Export Plug-In . SVG Version: 6.00 Build 0)  -->
<svg version="1.1" id="Layer_1" xmlns="http://www.w3.org/2000/svg" xmlns:xlink="http://www.w3.org/1999/xlink" x="0px" y="0px"
	 width="1890px" height="1890px" viewBox="0 0 1890 1890" style="enable-background:new 0 0 1890 1890;" xml:space="preserve">
<style type="text/css">
	.st0{fill-rule:evenodd;clip-rule:evenodd;}
</style>
<g>
	<g>
		<path class="st0" d="M742.4,165.8c-4.7,2.2-5.8,4.4-7.9,15.3c-0.8,4.2-2.8,11.4-4.5,16c-1.8,4.6-3.8,12.4-4.5,17.4
			c-4.9,33.1-6.2,37.6-15.4,52.8c-6.6,11.1-9.7,17.4-11,22.7c-2.2,8.5-4.3,11.8-12,18.7c-11.3,10.2-16,13.8-22.1,16.8
			c-3,1.5-8,4.5-11,6.5c-3,2.1-8.2,5.1-11.5,6.8c-3.3,1.6-8.5,4.7-11.5,6.7s-9.8,5.4-15,7.5s-12,5.2-15,6.9c-3,1.6-8.6,4.1-12.5,5.6
			c-3.8,1.4-13.3,6.3-20.9,10.8c-12.8,7.5-14.7,9-22.3,17.7c-4.6,5.2-10.2,11.9-12.6,14.7l-4.2,5.3H522c-3.6,0-9.6-0.7-13.5-1.5
			c-9.1-2-21.2-2-30,0c-6.8,1.6-38.4,3-86.5,3.9c-13.5,0.2-21.6,0.9-29.9,2.5c-7.4,1.4-15.3,2.1-23,2.1c-7.1,0-16,0.8-23,2
			c-6.2,1.1-18.4,2.4-27,2.9c-13.7,0.8-16.7,1.3-24.6,4.1c-17.6,6.3-44.5,21.2-53.8,29.9c-2.7,2.5-6.1,7.1-7.9,10.8
			c-3.1,6.4-3.2,6.8-3.6,23.7c-0.4,16.3-0.5,17.6-3.9,28.1c-5.7,17.6-5.5,34.1,0.7,57c2.9,10.5,3.3,16.8,2,29.5
			c-2.4,23.4-2.4,28.8-0.2,40c2.4,12.2,4.6,35,3.7,39.1c-0.4,1.9-1.6,3.1-3.6,3.8c-4.7,1.6-16.5,9.6-21,14.3
			c-5.4,5.6-15.6,20.8-17.5,26c-1.7,4.9-1.8,11.3-0.2,15.8c0.6,1.8,6.6,12.4,13.2,23.5c13.1,21.6,14.7,25.4,17.6,41.5
			c4.9,26.8,5.2,31,6.1,69.5c0.6,28.4,1.3,42.5,2.9,56c1.2,10.2,2.5,29.2,3,44c0.9,28.9,2,36.6,10.9,78.5
			c2.7,12.9,5.4,28.3,6.1,34.2c1.7,16.2,10,47.4,17.2,64.8c3.4,8,8.7,21.7,11.8,30.5c3.2,8.8,10,27,15.2,40.5
			c5.3,13.5,12.8,34.3,16.7,46.4c4,12,9.3,26.6,11.9,32.5c7.2,16.7,23.5,48.5,30.8,60.6c3.7,6,15.3,25.2,25.7,42.5
			c19.6,32.7,24.3,39.7,38.7,59c4.8,6.3,10.7,14.7,13.3,18.7c9.5,14.8,20.9,29.8,43.4,56.9c2.9,3.4,6.9,8.8,8.8,11.9
			c6.2,9.6,19.1,25,24.7,29.2c2.9,2.3,9.4,6.5,14.3,9.4c9,5.2,19,14.4,24.1,22c1.4,2,3.8,8.3,5.4,14c3.3,11.3,8.2,22,13.3,28.6
			c6.9,9,26.6,31,30.1,33.6c6.4,4.9,12.3,7,17.9,6.4c6.2-0.8,16.8,1.4,25.7,5.3s37.9,21,44.9,26.5c3.1,2.4,12.1,10.7,20,18.4
			c25.5,24.9,40.4,33.2,57.5,31.8c9.4-0.7,14.2-2.6,24.5-9.4c12.2-8.2,22.4-18.2,27.7-27.4c2.4-4.2,7.3-10.9,11-15
			c8-9,16.7-21,22.2-30.6c2.8-4.8,6.5-9.2,11.4-13.5c3.9-3.4,11.2-10.4,16.2-15.3c13.9-13.8,27.6-24.2,46.7-35.5
			c9.6-5.7,20.8-12.4,24.9-15c11.8-7.4,16.7-9.6,28-12.4c5.8-1.4,14.8-3.7,20-5.1c9.4-2.6,9.7-2.6,26.5-1.5
			c29.8,1.9,47.2,1.6,63.5-1c13.5-2.1,15.3-2.2,26.3-1c9.4,1,15.3,1,28,0c8.9-0.6,27.9-1.7,42.2-2.4c25.1-1.2,26.2-1.4,31.9-4.1
			c7.3-3.5,12.5-7.9,14.4-12.5c1.1-2.5,1.7-9.6,2.3-24.5c0.4-11.6,1.3-23,1.9-25.5c0.7-2.5,0.9-7.2,0.6-10.5
			c-0.3-3.3-1-11.5-1.6-18.3c-1.1-12.6-5.4-32.9-8.9-42.1c-1.4-3.7-1.6-5.3-0.8-5.5c5.8-1.7,10.7-4,10.7-5.2c0-0.7,1.8-2.5,4-3.9
			c4.9-3.1,5.7-4.6,9.1-17.5c1.5-5.8,3.9-14.3,5.4-19c2.5-7.9,2.6-9.2,1.9-19c-1.3-17.2-1-34,0.5-39.5c1.6-5.7,14.8-42.4,18.6-51.7
			c1.4-3.3,5.6-10.9,9.4-16.8c8.8-13.4,14.2-23.4,18-33.2c1.6-4.3,5.6-12.6,8.9-18.5c3.3-6,8.2-15.5,10.9-21.4
			c5.9-12.4,10-17.1,16.9-18.9c2.8-0.7,12.2-1.4,21.9-1.5c14.6-0.2,19.2-0.7,32-3.4c11.2-2.3,17.6-3.1,25.5-3.1
			c11.5,0,21-1.4,36.7-5.5l10.1-2.6l8.8,3c9.6,3.4,16.9,3.9,26.5,2.1c3-0.6,10.1-1.7,15.9-2.5c12.9-1.7,18.4-3.6,28-10.2
			c8.1-5.5,20.3-17.4,21.4-21.1c0.9-2.6,1.9-2.7,7.7-0.6c7.4,2.6,17.7,4.4,30.3,5.3c11,0.8,12.9,1.2,21.2,4.9
			c11.7,5.2,19.2,6.6,30.2,5.9c13.5-0.9,18.7-3.7,25.2-13.9c2.1-3.2,6.3-9.1,9.3-13.1c7.2-9.4,13.9-22.1,17.2-32.7
			c1.5-4.7,4.7-13.8,7.1-20.3c6.1-16.1,6.8-22.5,5.4-47c-0.6-11-0.8-22.1-0.5-24.6c1.1-8.7,2.7-14.1,4-14.1c1.9,0,5-4.2,9-12.4
			c2.7-5.6,6.6-10.5,18.3-23.1c13.7-14.8,21.4-21.7,47.2-43.1c5.2-4.3,13.3-11.7,18.1-16.4c4.7-4.7,17-16.4,27.4-26
			c35.6-32.9,36.6-34.2,37.3-48.5c0.3-6.2-0.1-9.3-1.6-13.5c-4-11.1-8.3-20.4-11.7-25.1c-6.9-9.7-19.9-24.6-26.6-30.4
			c-3.7-3.3-9.7-9.2-13.2-13.1c-3.6-3.9-9.8-9.5-13.7-12.5c-4.9-3.7-8.8-7.7-12.1-12.6c-2.7-4-4.9-7.7-4.9-8.3s-1.8-3-4-5.4
			c-2.2-2.4-5.5-7.1-7.3-10.5c-4.5-8.5-16.2-23.5-24.5-31.3c-3.9-3.6-10.1-8.3-13.9-10.3c-3.7-2.1-9.6-5.4-13.1-7.4l-6.3-3.6
			l-6.3-13.1c-7.1-14.6-14.1-25.6-24.8-38.9c-6.1-7.5-9.3-10.4-19.3-17.2c-6.6-4.5-14.7-9.5-17.9-11.2l-5.9-3.1h-17.6
			c-18.6,0-24,0.9-32,5c-2.5,1.2-7.4,3.3-11,4.7c-3.5,1.3-7.7,3.3-9.2,4.4l-2.7,1.9l-8.5-3c-13.4-4.7-17.4-6.6-30.5-14.7
			c-6.8-4.2-15.8-9-20-10.8c-4.3-1.8-11.7-5.3-16.7-7.8c-4.9-2.5-12.9-5.9-17.8-7.6c-13.7-4.8-18.3-7.3-32.2-17.9
			c-7.1-5.4-16.4-11.8-20.5-14.2c-4.1-2.3-12.3-7.6-18.1-11.6c-5.8-4-14.3-9.3-18.9-11.8c-10.7-6-18.5-11.6-29.6-21.3
			c-18.4-16.3-39.9-32.5-54.2-41c-8-4.8-17.8-11.4-21.6-14.8c-3.9-3.4-11.4-9.2-16.6-13s-14.2-10.8-20-15.5
			c-18.6-15.3-23-17.8-48-27.5c-16.6-6.4-28-12.3-46.5-24c-21.1-13.3-26.4-16.2-37.8-20.5c-15.6-5.8-18.8-7.7-35.1-19.9
			c-16.8-12.7-25.6-18.1-34.4-21c-11-3.7-13.7-3.7-22.1,0.4c-4.1,2-8.9,4.9-10.7,6.4c-3.2,2.9-10.1,5.4-18,6.7
			c-5.4,0.8-20-2-28.5-5.6c-7.7-3.2-21-11.3-27.7-16.8c-5.4-4.4-32.1-18.6-43.9-23.2c-10.2-4.1-22.4-10.7-34.8-19
			c-5.5-3.6-14.3-8.7-19.5-11.3c-5.2-2.5-14.2-7.3-20-10.7s-13.4-7.5-17-9.2c-3.6-1.6-9.4-4.8-13-6.9
			C754.8,164.1,748.3,163.1,742.4,165.8z M762,175.6c5.9,4.1,19.8,12.1,47,26.9c5.2,2.8,14.6,8.6,20.7,12.8
			c13,8.8,20.5,12.8,35.4,18.6c5.8,2.2,12.5,5.4,15,6.9c2.4,1.6,7.6,4.5,11.4,6.5c3.9,2,11,6.8,15.8,10.6
			c15.9,12.7,26.7,18.2,41,21.2c11.6,2.4,19.7,2.4,26.7-0.1c3-1,5.6-1.7,5.7-1.6c0.2,0.1,0.7,4.7,1.1,10.2c1.2,13.5,0,22.3-4.6,36.2
			c-2.2,6.4-5.9,18.4-8.2,26.7c-2.3,8.2-5.5,17.5-7.1,20.5c-4.5,8.5-23.6,30.7-31.8,37c-9,6.8-15.8,15-25.3,30.5
			c-4.1,6.6-10,15.4-13.1,19.5c-6,7.8-9.5,15.7-12.1,27.5c-1.9,7.9-7.7,18.8-14.5,26.9c-20.1,23.7-34.2,40.7-36.6,44.1
			c-1.7,2.2-9.8,11.2-18.2,20c-8.3,8.8-17.1,18.7-19.6,22c-4.4,5.8-12.3,13.6-27.9,27.7c-4.1,3.6-8.7,8.6-10.3,11
			c-4,5.9-13.2,15.5-17.9,18.5c-2.2,1.4-9.6,4.5-16.5,6.8c-7,2.3-17.1,6.3-22.7,8.9c-10.4,4.8-14.2,5.7-32.5,7.5
			c-5.8,0.6-15,2.2-20.5,3.5c-5.4,1.3-12.6,2.7-15.9,3.1s-13.2,2.4-22,4.5c-11.7,2.8-20,4.1-30.7,4.9c-8.1,0.6-19.4,2-25,3.2
			c-8.8,1.8-14.8,2.1-41.8,2.5c-24.4,0.3-33.6,0-40.7-1.1c-5-0.8-15.8-2.2-24-3c-8.1-0.9-21.3-2.9-29.3-4.5s-17.9-3.4-22-4
			c-25.8-3.7-35.7-5.6-45.5-8.8l-11-3.5l-26-0.7c-14.3-0.5-27.8-1.3-30-1.9c-5.4-1.4-15.7-1.3-23,0.3c-12.4,2.7-33.1,8.9-38.9,11.7
			c-8.1,3.8-9.3,3.8-8.8-0.4c0.4-3.5-1.1-23.3-2.9-39.7c-1-9.3-0.9-12.4,1-27.1c2.5-19.4,2.6-28.9,0.7-39.1c-0.8-4-2-12.6-2.7-19.1
			c-1.6-14.5-0.7-21.1,5.2-36.4c4-10.4,4.1-11.4,4.9-26.3c0.5-11,1.1-16.4,2.3-18.5c4.4-8.5,24.9-22,45.9-30.4
			c13.5-5.3,16.8-6.1,30.5-7.1c7.5-0.5,18.8-1.8,25.2-2.9s18.1-2.5,26.1-3.1c8-0.5,17-1.7,20-2.5c9.4-2.5,23-3.5,64.5-4.5
			c33.1-0.8,41.7-1.3,50-3c11.9-2.4,19.1-2.5,26.5-0.5c4,1.1,12.8,1.7,32,2.1c14.9,0.3,30.5,1.1,35.5,1.9s13.3,1.7,18.5,2
			c5.2,0.4,12.8,1.3,16.8,2.1c9.4,1.8,13.3,0.9,28.2-6.2c14.4-6.9,25.4-13.7,27.8-17.2c1.1-1.5,2.9-5.9,4-9.7
			c1.2-3.9,4.1-10.2,6.5-14c5.9-9.4,9.5-18.8,12.1-31.5c1.4-6.6,4.3-15.3,7.8-23.5c6.2-14.5,10.6-26.5,13.7-37
			c1.3-4.6,4.4-10.8,8.7-17.5c10.4-16.2,12.9-22.4,15.9-39c1.5-8,3.1-17.7,3.6-21.5c0.5-3.9,2.2-11.2,3.9-16.4
			c1.7-5.3,3.3-13,3.6-17.5c0.4-4.5,1.1-8.7,1.7-9.4c0.5-0.6,3-1.2,5.6-1.2C754.8,171,756.5,171.7,762,175.6z M1019.5,273.9
			c4.4,2.2,13.7,8.1,20.5,13.1c21.8,15.9,25.2,17.9,38.5,23.1c17.1,6.8,24.5,10.6,39,19.9c16.7,10.8,32.6,19.3,49,26.2
			c21.1,9,26,11.9,40,23.9c7,6,18.9,15.4,26.3,20.7c7.4,5.3,16.3,11.8,19.9,14.4c3.6,2.6,11.4,7.5,17.2,10.7
			c5.9,3.3,13.4,7.9,16.6,10.3c3.3,2.4,10.7,7.6,16.5,11.5c5.8,3.8,15.1,10.7,20.7,15.1c12.5,10.1,25.1,18.3,33.6,22.1
			c3.6,1.6,12.5,6.9,19.8,11.8c7.4,4.9,15.6,10.2,18.3,11.8c2.6,1.6,10.4,7.4,17.1,12.9c15.4,12.7,20.7,15.8,34.2,20.6
			c10,3.6,34.8,14.8,45.3,20.6c17.6,9.7,29.3,14.8,40,17.5l4.5,1.1l-5.5,2.9c-3,1.5-7.7,3.6-10.5,4.5c-2.7,0.9-12.9,4.8-22.5,8.6
			c-9.6,3.9-25.1,9.8-34.5,13.3c-9.3,3.5-20.8,8-25.5,9.9l-8.5,3.6l7-0.6c15.8-1.3,35.8-6.8,67.3-18.4c26.5-9.8,26.8-9.9,36.6-16.2
			c6.3-4.1,9.4-5.3,15.2-6.4c4.3-0.7,11.2-3,16.6-5.6l9.3-4.3l16-0.1c10.8-0.1,17,0.3,19.1,1.1c5.2,2.1,25.7,16.1,29.5,20.2
			c13.6,14.6,31.9,44.7,31.9,52.6c0,1.6,0.9,4.1,1.9,5.5c2.3,3.3,16.5,48.4,15.9,50.8c-0.2,0.6-4.6,4.6-9.8,9
			c-5.2,4.3-15.9,14.2-23.8,21.9c-8.4,8.1-18.7,17-24.6,21.1c-8,5.6-12.5,9.8-21.6,20.2c-6.4,7.2-13.8,16.9-16.5,21.4
			c-8.2,14-12.1,19-21.1,26.8c-9.6,8.3-17.2,18.9-26.9,37.3l-5.8,10.9l-2.7-4.7c-3.6-6.2-25.2-27.1-37-35.8c-5.2-3.9-12-9.1-15-11.6
			c-8.1-6.7-14.5-10.6-23.5-14.2c-12.7-5.1-20.1-10.4-38.6-27.6c-9.3-8.7-11.7-10-14.9-8.3c-2.2,1.2-2.7,5.1-1,9.5
			c1.4,3.6,10.6,13.1,22,22.8c6.9,5.8,12.1,9.2,19,12.4c17.1,7.9,19.4,9.2,26,14.3c3.6,2.8,12.4,9.1,19.5,13.9
			c7.2,4.9,18,13.1,24.1,18.4c12.2,10.5,14,13.3,17,26.9c0.8,4,3.6,15.2,6.1,24.8c6.5,25.2,7.1,27.7,8.1,36c0.5,4.5,2.1,10.3,3.8,14
			l2.9,6.5l-0.2,23.3c-0.2,28.4-1,33.9-6.8,52.3c-2.9,9.1-5.7,20.7-7.5,31.5c-3.2,18.9-5.3,25.1-12.6,36.9
			c-2.8,4.4-7.3,12.8-10.2,18.6c-6.1,12.6-10.8,17.4-22.9,23.7c-7,3.6-9.7,4.4-19.3,5.7c-6.1,0.8-13.6,2.1-16.8,2.9
			c-12.5,3.2-14.1,3.1-25.8-1.2c-6-2.2-12.9-4.3-15.4-4.7s-6.7-1.6-9.5-2.6c-16.5-6.1-44-12.6-57.5-13.5c-6.7-0.4-12.4-0.1-19.2,1
			c-5.4,0.9-11.3,1.6-13.2,1.6c-3.1,0-3.4-0.2-4-4.1c-1.1-6.7-2.8-8.9-16.6-21.2c-27.1-24.4-37-30-68.9-38.8
			c-17.4-4.8-20.9-6.2-32.9-14c-10.3-6.7-20.6-11.7-35.7-17.3c-5.5-2.1-13.1-5.4-17-7.4c-9.2-4.8-31.7-19.9-43-28.8
			c-4.9-3.9-17.3-12.8-27.5-19.8c-40.8-28-46.8-32.4-57.5-42.6c-9.8-9.3-16.6-14.6-44-34.4c-3.9-2.8-13.6-8.5-21.5-12.6
			c-12.4-6.4-17.9-10.2-38-25.8c-12.9-10.1-29.3-22.2-36.5-27c-26.3-17.5-30-20.7-54.1-46.8c-24.6-26.7-36-41.1-49.9-63.4
			c-12.9-20.5-40.2-61.9-42.8-64.8c-3.4-3.7-6.4-2.8-5.7,1.8c0.3,2.4,17,31.4,33.8,59c22.3,36.3,29.4,45.5,61.9,80.3
			c20.2,21.6,25,25.8,45.3,39.7c14.2,9.7,32.2,23.5,48.7,37.1c11.5,9.6,18.8,14.4,33.6,22.3c13.9,7.4,47.8,32.7,61.7,46
			c10.4,10,16.9,14.8,57.3,42.1c10.6,7.1,24.7,17.1,31.2,22.1c23.7,18.1,39.9,27.3,59.1,33.8c19,6.4,22.6,8,36.4,16.1
			c14.4,8.5,17,9.6,34,13.6c35,8.3,42,12,65.6,34.4l13.4,12.7v17.1c0,15.7-0.2,17.7-2.2,22.4c-1.9,4.2-2.9,5.3-5.3,5.9
			c-5.2,1-13.5,6.7-17.1,11.6c-1.9,2.5-5.5,9.3-8,15c-2.5,5.6-7,15.1-10,21c-3,5.9-6.8,14.6-8.4,19.4c-3.4,9.9-7.5,17.8-16.5,31.4
			c-7.5,11.5-8.1,12.6-13.8,26.5c-2.5,6-6.6,15.9-9.1,21.8c-9.9,23.4-10,24.1-10.1,51.2v24l-3.8,9c-2,4.9-4.6,13-5.6,18
			c-1.5,6.8-2.6,9.4-4.3,10.7c-1.3,1-3.1,2.5-4,3.4c-2,1.9-15.6,2.2-72.3,1.3l-33-0.6l-15.7,3.4c-9.7,2-21.2,3.7-30.4,4.3
			c-8.1,0.6-15,1.3-15.4,1.5c-0.3,0.2-8.5,1.3-18.3,2.4c-20.6,2.5-29.5,4.5-50.6,11.2l-15.5,5l-7.9-1.3c-6.6-1.1-8.3-1.8-9.8-3.8
			c-1.8-2.4-1.7-2.8,0.2-10.5c2.6-10.4,2.1-19.7-1.7-29.1c-7.2-18.3-29-52-41.9-64.9c-7.9-7.9-27.5-23.2-27.5-21.5
			c0,0.6,6.6,7.7,14.8,15.8c16.6,16.5,18.6,19.5,33.5,49.2c12.4,24.9,14.8,33.2,10.7,38.8c-2.2,3.1-5,13-5,17.9
			c0,2.9-0.3,3.3-2.5,3.3c-1.4,0-4.1,0.7-6,1.4c-1.9,0.8-6,2-9.1,2.5c-6.7,1.3-12.1,3.9-34.6,17.2c-19,11.2-25,14.2-37.9,18.7
			c-10.3,3.6-16.8,7.5-26.9,15.7c-11,9.1-44.2,32.5-57.5,40.5c-17.5,10.5-29.2,18.7-35.9,24.9c-7.5,7-11.9,9.7-18.8,11.7
			c-2.9,0.9-10.9,4.3-17.8,7.6c-25.5,12.3-34.7,15.1-41.8,12.7c-4.6-1.5-15-11.4-19.9-18.8c-6.6-10.1-22.9-30.5-28.9-36.1
			c-3.3-3.1-8.1-6.9-10.9-8.6c-2.7-1.7-8.6-5.3-13-8.1c-17-10.7-24.3-13.4-41.9-15.7c-20.8-2.7-20.6-2.7-20.6-1.1
			c0,0.8,0.4,1.5,0.8,1.5c4.3,0,32.5,5.5,37.5,7.3c8.9,3.3,37.6,22.5,45.1,30.1c6.3,6.6,12.6,15,24.1,32.1c4,6,8.4,12.3,9.8,14
			c2.4,2.9,2.4,2.9,0.7,7c-1,2.3-2.1,6.6-2.5,9.5c-1.1,8.5-3,12-9.9,18.7c-6.6,6.5-11.9,15.7-15.3,26.7c-0.9,3.1-2,5.6-2.3,5.6
			s-2.7-2.8-5.5-6.3c-2.7-3.4-8.8-10.3-13.5-15.2c-10.8-11.3-14.9-18.1-19.3-32.1c-4.6-14.5-5.3-15.8-14.8-26.4
			c-6.3-7-10.8-10.8-20.7-17.4c-15.2-10-23.8-18.7-33.5-33.9c-1.9-2.8-10.2-13.5-18.5-23.7c-8.4-10.2-19.6-24.7-24.9-32.3
			c-5.4-7.7-17.2-23.8-26.2-36c-9.1-12.2-19.8-27.3-23.9-33.7c-4.1-6.3-9.4-14.5-11.8-18.1c-39.2-60.4-53.4-88.5-71.3-140.8
			c-5.4-15.7-13.7-38.7-18.4-51.1c-4.7-12.4-10.7-28.3-13.2-35.5c-2.6-7.1-7.4-19.1-10.6-26.7c-3.2-7.5-5.9-14.1-5.9-14.5
			c0-0.5-2-8.5-4.6-17.8c-2.5-9.4-5.4-23.3-6.4-31s-3.3-20.8-5-29c-8.4-40.6-9.2-46.9-10-78.5c-0.6-20.7-1.6-35.9-3.4-50.8
			c-1.9-16.2-2.7-28.5-3.1-52c-0.4-19.8-1.2-33.9-2.2-39.7c-0.8-5-2.1-13.3-2.9-18.5c-3-20.4-6.6-31.7-13.6-43.2
			c-19.4-31.8-21-34.7-21-39.4c0-3.8,0.9-5.8,5.3-12.5c10.1-15.4,20.8-23.8,39.1-30.5c5.1-1.9,10.2-3.8,11.3-4.3
			c1.1-0.6,4-1.3,6.5-1.6c2.5-0.4,9.7-1.8,16-3.2c13.7-2.9,24.2-2.8,36,0.6c5.8,1.7,12,2.4,27.5,3.1c20.7,1,21.3,1.1,35.6,5.3
			c7.9,2.3,25.9,4.8,45.4,6.1c4.4,0.4,13.7,1.7,20.7,3.1c7.1,1.4,19.7,3.4,28,4.5c8.4,1.1,20.4,2.9,26.7,4c9.8,1.7,15.6,2,42.2,2
			c30.4,0,31.1,0,44.2-2.9c7.2-1.6,19.3-3.9,26.7-5.1c8.9-1.4,19-4,29.5-7.5c8.8-2.9,17.7-5.6,19.8-5.9c2.1-0.4,8.1-2,13.2-3.6
			c10.3-3.2,27.1-6,35.6-6c7.6,0,11.6-1.3,26.9-8.5c7.4-3.5,16.2-7,19.6-7.8c10.8-2.5,18.2-6.8,25-14.4c3.3-3.7,7.9-9.5,10.2-12.8
			c5.8-8.4,8.6-11.4,16.9-17.8c3.9-3.1,11.3-10,16.5-15.3c5.1-5.2,16.3-16.7,24.8-25.3c8.5-8.7,19.6-20.6,24.5-26.5
			c5-5.9,12.1-14.4,15.8-18.9c3.8-4.5,10.2-11.6,14.2-15.7c7.5-7.8,15-18.6,17.7-25.5c0.9-2.2,2.1-7.6,2.8-12
			c1.5-10,3.6-14.8,10.9-25c3.1-4.4,8.4-12.5,11.7-18c4.8-8.2,8.4-12.5,19.9-24c11-11,16-16.9,23.1-27.5
			c11.5-17.1,12.5-19.1,16.9-34.1c2.1-6.9,6.7-18.8,10.5-26.9c3.8-8,7.6-17.2,8.5-20.5c1.7-6.8,1.9-16.3,0.5-25
			c-0.9-5.5-0.8-6.1,1.3-8.3c3.6-3.9,10.8-7.3,14.2-6.7C1010.2,269.8,1015.1,271.8,1019.5,273.9z M687.2,324.2
			c-3.2,3.9-9.5,18.1-10.9,24.2c-2.8,13.2-6.3,22.4-11.8,30.6c-2.9,4.4-6.1,10.2-7,12.8c-1,2.6-2.2,5.9-2.7,7.4
			c-1.1,3-8.6,7.9-19.9,13.1c-14.8,6.7-16.1,7-29.3,5.2c-6.4-0.8-14.6-1.5-18.2-1.5c-3.5,0-10.8-0.7-16.2-1.6
			c-7.1-1.2-13.2-1.5-23-1l-13.3,0.5l7.8-8.7c4.3-4.8,9.6-10.5,11.9-12.7c4.9-4.9,27.4-17.3,36.9-20.5c3.9-1.2,9.5-3.5,12.5-5
			s10-4.2,15.5-6s12.7-4.8,15.9-6.7c3.3-1.9,8.8-4.7,12.2-6.3c3.5-1.5,9.1-4.8,12.6-7.3s9-5.9,12.3-7.6c3.3-1.6,8-4.8,10.5-7
			C687.2,322.4,689.6,321.4,687.2,324.2z M1703.8,667.4c7.1,3.6,15.5,10.3,27.7,22l11,10.5l-7-0.7c-8.6-0.9-12.5-0.8-24.2,0.2
			l-9.3,0.9v-4.4c0-2.4-0.9-9.7-2-16.2c-2.1-12.5-2.3-14.7-1.5-14.7C1698.8,665,1701.2,666.1,1703.8,667.4z M1736.2,708.6l7.4,0.7
			l4.3,8.3c5.5,10.8,10.7,17.2,19.4,24c16.6,13,56.4,52,59.5,58.4c6.4,13.3,8.5,19.6,8.5,25.5c0.1,10.8-1.4,12.8-29.3,38
			c-8.5,7.7-22.9,21.4-32,30.5c-9.1,9.2-19.4,19-23,22c-11.8,9.6-25.2,22.2-42.7,40c-9.5,9.6-17.3,16.8-17.3,16s0.4-4.2,1-7.5
			c0.5-3.3,1.4-11.3,2-17.9c1.2-13.8,3.7-25.6,8.5-40.4c1.8-5.9,4.6-15,6-20.2c1.5-5.5,5.6-15.5,9.5-23.5c4.7-9.4,7.9-17.7,10-25.4
			c1.7-6.2,3.5-12.3,4.1-13.5c3.9-7.5,19.4-32.6,20.2-32.6c0.5,0,7.4,3.4,15.2,7.5c8.3,4.3,16.5,7.9,19.4,8.5
			c3.9,0.7,6.8,2.3,11.9,6.3c10,8,10.2,8.4,6.7,11.4c-10,8.1-14.2,12.3-19.4,19.1c-3.2,4.3-10.2,13.5-15.6,20.7
			c-9.5,12.6-16.9,26-20,36.2l-1.3,4.2l2.7-1.6c4.8-3,7.1-5.6,12.3-13.8c2.8-4.4,9.2-13.1,14.1-19.4c4.9-6.3,11.1-14.7,13.8-18.8
			c4.9-7.3,8.4-11.1,18.6-20.5c8.7-8,8-11.9-3.9-21.6c-9.8-7.9-11.5-8.9-17-9.6c-5-0.7-14.2-4.2-19.9-7.4c-1.9-1.1-5.6-2.7-8.4-3.6
			c-8.1-2.7-8-2.2-3-12.9c2.5-5.3,4.5-10.5,4.5-11.6c0-2.4-2.4-4.4-4.7-3.9c-2.6,0.5-8.9,9.2-13.1,18.3c-2,4.4-6.3,12.9-9.5,19
			c-9.9,18.7-11.8,23.4-14.3,35.4c-2.7,13.1-3.6,15.5-11.6,30.1c-3.2,5.8-7.3,14.8-9.2,20s-5.1,14-7.1,19.5
			c-5.3,14.3-8.3,28.9-9.5,45c-1.1,15.4-2.6,25-7.2,46c-2.9,13.5-3,15-3.3,43l-0.3,29l-7.6,22.9c-8.3,24.9-11.3,30.9-23.2,46.2
			c-10.6,13.6-12.4,15.1-19,16c-8.9,1.1-18.2,0-25.1-3c-3.5-1.4-8.9-3.7-12.2-5.1c-4-1.7-9-2.8-16.2-3.4c-8.1-0.7-12.6-1.7-20.4-4.7
			c-5.5-2-10.4-4-10.8-4.4c-1.1-1,1.3-6.7,6.8-16c5.8-10,7.5-15.5,8.6-28c1.3-13.7,3.9-26.4,8.9-42.9c4.7-15.6,5.8-25.7,6.2-57.6
			l0.3-20l-3.2-6c-2.4-4.3-3.6-8.3-4.3-14c-1.4-10.4-3.7-25.2-6.1-39c-2.2-12.5-2.4-19.2-0.8-25c0.6-2.2,5.5-12.3,10.8-22.5
			c9.3-17.8,10-18.9,20.6-30.1c9.2-9.7,12-13.4,17-22.7c4.4-8.4,8.9-14.7,17.6-25c10.8-12.6,12.5-14.2,21-19.2
			c6.3-3.7,12.2-8.3,17.9-13.9c12.8-12.7,35-32.9,39.6-36.1c2.8-2,5.7-3,9-3.3C1717.6,708,1728.6,708,1736.2,708.6z M1355.3,1154.4
			c15.7,2.4,57.9,14.9,56,16.6c-1.2,1.2-20,3-31.1,3c-6.3,0-12.6,0.7-18.2,2.1c-17.1,4.1-27.4,5.9-33.7,5.9h-6.5l0.8-3.3
			c1-4.2,1.1-11.8,0.1-18.9l-0.8-5.7l9.8-0.4c5.4-0.1,10.7-0.4,11.9-0.5C1344.7,1153.1,1350,1153.7,1355.3,1154.4z M1167.2,1459.1
			c13.8,0,12.2-2.2,13.8,18.4c3.2,42.3,3.4,49.5,1.7,58.5c-0.9,4.7-1.9,15-2.2,23c-0.4,9.9-1.1,15.2-2.1,16.7
			c-0.8,1.3-3.5,2.8-6.6,3.7c-7.4,2.1-64.4,5.2-89.3,4.8c-17.8-0.3-21.6-0.1-34.7,2.2c-12.8,2.2-17.8,2.5-40,2.7
			c-23.4,0.1-25.9-0.1-32.8-2.1c-13.7-4-20-3.8-41.5,1.4c-27.4,6.7-26.5,6.3-71,27.6c-13.3,6.3-34.3,19.9-47.8,30.9
			c-4.8,3.9-11.5,8.9-14.7,11.1c-8.5,5.7-42.9,40.6-51.8,52.5c-4.2,5.5-9.3,11.9-11.4,14.3c-5.8,6.4-11.6,15.8-12.3,20.1
			c-1.3,8,3.2,17.1,8.6,17.1c3.7,0,5.9-1.1,20.6-10.6c14.2-9.2,23.3-17.4,19.2-17.4c-0.5,0-8.7,4.7-18.2,10.5s-18.2,10.5-19.4,10.5
			c-1.6,0-2.4-0.9-3.3-3.5c-1.4-4.4-0.2-8.4,4.3-14.1c11.6-14.7,28.5-33.9,34.8-39.4c4.1-3.6,11.7-10.5,16.9-15.4
			s12.2-10.7,15.5-12.9c3.3-2.2,11.6-8,18.5-12.8c17.2-12,36.7-23.7,47.5-28.3c5-2.2,14-6.2,20-8.9c16.6-7.4,27.6-11.9,28.1-11.4
			c0.3,0.2-4.2,3.1-9.8,6.2c-5.7,3.2-13.4,7.7-17.3,10c-3.8,2.3-11.4,6.8-16.8,9.9c-11.7,6.9-22.5,15.4-36.2,28.5
			c-5.5,5.3-13.1,12.1-16.8,15.1c-7.3,5.9-12.6,12.2-17.4,21.1c-4.4,7.9-11.1,17.2-19.2,26.4c-3.9,4.4-8.7,11.1-10.8,14.9
			c-8.9,16.2-28.6,31.8-42,33.2c-14.5,1.5-26.3-5.5-51.3-30.4c-18.1-18.1-23.3-22.4-36.6-30.5c-20.5-12.5-33.9-17.7-47.3-18.2
			c-8.6-0.4-8.6-0.4-10.3-3.7c-2.4-4.6-2.2-6.7,1.2-15.4c3.3-8.3,7.1-14.2,12.1-18.9c5.1-4.9,7.2-10.7,7.5-21
			c0.2-5,0.3-9.6,0.4-10.2c0-0.8,1.8-0.1,4.5,1.6c5.7,3.6,10.8,4.4,19.3,3.1c8.7-1.4,13.7-3,30.6-10.2c7.7-3.2,17.3-6.8,21.4-7.9
			c8.3-2.2,16.3-6.9,23.8-13.9c2.8-2.6,14.7-11.2,26.5-19c11.8-7.9,24.1-16.3,27.4-18.9c7.9-6,33.3-26.6,41.2-33.4
			c3.4-2.9,9.1-6.6,12.5-8.2c18.7-8.4,27.1-13.1,34.8-19c19.7-15.2,31.9-22.7,44.4-27.2c6.5-2.4,12.2-4.3,12.6-4.3s1.5,1.8,2.5,4
			c2.4,5.3,8.4,10.6,13.4,12c2.3,0.6,7.8,1.1,12.4,1.1c7.3,0.1,9.7-0.4,21.7-4.6c21.1-7.4,23.9-8.2,34.5-9.9c24.7-4,40.2-5.8,56-6.7
			c11.2-0.6,20.8-1.8,28-3.4c10.8-2.3,11.6-2.4,46-1.8C1139.8,1459,1160.8,1459.2,1167.2,1459.1z"/>
	</g>
</g>
</svg>
