<?xml version="1.0" encoding="utf-8"?>
<!-- Generator: Adobe Illustrator 25.4.1, SVG Export Plug-In . SVG Version: 6.00 Build 0)  -->
<svg version="1.1" xmlns="http://www.w3.org/2000/svg" xmlns:xlink="http://www.w3.org/1999/xlink" x="0px" y="0px"
	 viewBox="0 0 8192 8192" style="enable-background:new 0 0 8192 8192;" xml:space="preserve">
<style type="text/css">
	.st0{fill:#FFFFFF;stroke:#000000;stroke-width:0.426;stroke-miterlimit:7.5852;}
	.st1{display:none;}
	.st2{fill:none;stroke:#000000;stroke-width:0.426;stroke-miterlimit:7.5852;}
</style>
<g id="Layer_1">
	<path class="st0" d="M8063.5,3898.9"/>
	<path class="st0" d="M8063.5,3898.9"/>
	<path class="st0" d="M4091.4,5066.1"/>
	<path class="st0" d="M3971.4,5260.7"/>
</g>
<g id="delete" class="st1">
</g>
<g id="Vest_x2F_body">
	<path class="st0" d="M5472.1,7344.2h-2726c10.1-374.2-0.3-1716.8-0.3-1716.8l-47.5-1321.3l47.1-288
		c178.4-490.7,178.4-490.7,178.4-490.7l184.9-574.5c37.8-42.4,1134.5-231.8,999.7-231.8l948.8,230.3c0,0,113.7,331.8,234.7,505.1
		c44.1,213.2,61.1,264.9,181.7,636.3l-14.7,522L5472.1,7344.2z"/>
	<g>
		<path class="st0" d="M2730.9,6917.9l2151.5,17c0.1,0,598.8,0,598.8,0v404.5l-24,61.5c-0.9,28-565,19.4-592,19.4L2812,7410.2
			c-19.9,0-83.9-40.2-80.9-60.7l-20.2-141.6L2730.9,6917.9z"/>
	</g>
</g>
<g id="crew_neck">
	<path class="st0" d="M4341.6,7350.2"/>
	<path class="st0" d="M4016.8,7350.2"/>
	<path class="st0" d="M4172.9,5294"/>
	<path class="st0" d="M4093.8,5294"/>
	<g>
		<path class="st0" d="M4508.4,3221.3c-80.9,194.2-251.3,334.2-390.1,334.2c-251.3,0-379-275.8-362.4-256
			c-62.3-119.3-143.5-161.2-43.8-486.1c29.8-46.6,313-94.1,396.3-92.2c71.5,1.7,374.2,34.5,407.5,83.8
			C4640,2951.9,4525.8,3179.8,4508.4,3221.3z"/>
		<path class="st0" d="M4458.7,3164.4c-80.9,194.2-223.8,298.7-362.7,298.7c-138.9,0-241.8-128-322.2-291.6
			c-15.6-93.6-61.8-234.7,35.3-334.2c29.8-46.6,243.5-58.8,326.8-56.9c71.5,1.7,278.8,14.7,312,64
			C4552.1,2998.6,4476,3122.9,4458.7,3164.4z"/>
	</g>
</g>
<g id="Tall_Collar">
	<path class="st0" d="M3392.5,2261.8h1381.3c10.9,0,19.5,9,19.2,19.8l-47.9,594.1H3406.8l-32.8-595.2
		C3373.9,2270.2,3382.2,2261.8,3392.5,2261.8z"/>
	<line class="st2" x1="4163" y1="2852.3" x2="4163" y2="2261.8"/>
</g>
<g id="Standard_Collar">
	<path class="st0" d="M3416,2562.7h1335.2c12.9,0,23.3,10.4,23.3,23.3v284.2c0,12.9-92.8-13-105.6-13L3434.1,2870
		c-38.5,5.5-41.3-101-41.3-113.9V2586C3392.8,2573.2,3403.2,2562.7,3416,2562.7z"/>
	<line class="st2" x1="4165" y1="2568.9" x2="4165" y2="2862.5"/>
</g>
<g id="Center_line_zipper">
	<path class="st2" d="M4067.2,2734.8"/>
	<path class="st2" d="M4014.5,2734.8"/>
	<rect x="4012.2" y="2712.2" class="st0" width="83.7" height="1379.1"/>
	<line class="st0" x1="3946.3" y1="2727.7" x2="4019.9" y2="2716.5"/>
	<path class="st2" d="M4093.6,2771.2"/>
</g>
<g id="Half_Zipper">
	<path class="st0" d="M4052.5,5066.1l-29.2-2372.4l73.6-11.2l41.7,2383.6"/>
</g>
<g id="Center_line_Button">
	<polygon class="st0" points="4242.4,7417.3 3917.7,7415.7 3901,2704.9 4242.4,2739.5 	"/>
</g>
<g id="Center_line_shawl">
	<path class="st0" d="M3973.8,3346l21.6,534c17.9,287.4,165.4,559.4,183.3,846.8v2704.4c-62.9-0.3-125.9-0.6-188.8-0.9l2.2-2703.4
		c-64.2-647.5-393.6-1270.6-456.5-1913.2c116.6-138.8,246.1-207.3,362.6-207.3c0,0,21,206.2,31.6,309.3
		C3944.5,3059.1,3959.2,3202.5,3973.8,3346z"/>
	<path class="st0" d="M4220.9,3346l-21.6,534c-17.9,287.4-189.4,559.4-207.3,846.8l-2.2,2703.4c62.9-0.3,152,0.3,214.9,0
		l13.8-2703.4c64.2-647.5,401.4-1294.4,464.3-1937c-92.1-115-232.4-183.5-386.5-183.5c0,0-21,206.2-31.6,309.3
		C4250.2,3059.1,4235.6,3202.5,4220.9,3346z"/>
	<path class="st0" d="M4353.5,2628.6c-97.1-48.5-173.1-7.8-259.6-11.6c-78.9-3.5-133.1-47.7-236.7-10.6c9,45.7,18,91.4,27.1,137.1
		c76.6,25.4,143.5,20.9,221.1,36.2c57.1,11.3,151.1-27.6,231.1-36.2C4342.1,2705.1,4347.8,2666.9,4353.5,2628.6z"/>
</g>
<g id="Pockets">
	<path class="st0" d="M3369,5703.7"/>
	<path class="st0" d="M4040.5,5978.2"/>
	<path class="st0" d="M5090.5,6896H3308.1v-384.4l364-533.4c594.1,0,468.1,15.2,1062.3,15.2l356.2,531.8
		C5095.7,6532.8,5090.5,6896,5090.5,6896z"/>
	<polygon class="st0" points="3673.1,5979.2 3309.2,6512.6 3271.8,6437.1 3570.2,5978.2 	"/>
	<polygon class="st0" points="4736.8,6013.3 5100.7,6546.7 5117.7,6472.2 4819.3,6013.3 	"/>
	<path class="st0" d="M3819.8,6811h-814.1v-720.6c101.1,0,429.9-386.7,531-386.7c168.4,0,112.9,0,283.1,0
		C3819.8,6072.8,3819.8,6441.9,3819.8,6811z"/>
	<path class="st0" d="M4520.2,6833.7h814.1v-720.6c-101.1,0-429.9-386.7-531-386.7c-170.2,0-112.9,0-283.1,0
		C4520.2,6095.5,4520.2,6464.6,4520.2,6833.7z"/>
	<path class="st0" d="M3811.8,6413c0,240.3-135.1,408.2-424.3,397.5c0,0-148-0.6-391.9-0.6c0-240.2,0-480.4,0-720.6
		c159.3-59.5,343.4-302.3,480.9-409.5h333.1C3809.6,6056.5,3811.8,6413,3811.8,6413z"/>
	<path class="st0" d="M4519.1,6447.6c0,240.3,135.1,408.2,424.3,397.5c0,0,148-0.6,391.9-0.6c0-240.2,0-480.4,0-720.6
		c-159.3-59.5-343.4-302.3-480.9-409.5h-333.1C4521.3,6091.1,4519.1,6447.6,4519.1,6447.6z"/>
	<path class="st0" d="M3388.1,5708.4"/>
	<path class="st0" d="M4059.7,5983"/>
</g>
<g id="Henlely_Line">
	<line class="st2" x1="2725.7" y1="5066.1" x2="5461.1" y2="5066.1"/>
</g>
<g id="Sleeves_and_cuffs">
	<path class="st0" d="M396.9,5154.8L281,4957.3c-20.6-70.6-114.6-256.4-63.2-241.2l63.5-37.9l197.2-151.7l257.6,538
		C736.1,5064.5,396.9,5154.7,396.9,5154.8"/>
	<path class="st0" d="M7383,5109.2c1.8-3.4,261-536.1,257.6-538L6078.7,3513c-75-50.5-264.8-211.2-348.9-252.8
		c-49.4-24.5-272.5-187.5-334.7-214.6l-617.8-171.7c-3.5-1.8,11.9,214.5,11.9,214.5l171.9,606.8c-2,3.4,216.2,325.1,216.2,325.1
		l262.4,411.6c0.5,0.3,61.5,19.7,0,0L6947,4981.1L7383,5109.2"/>
	<path class="st0" d="M7713,5200.1l115.9-197.4c20.6-70.6,114.6-256.4,63.2-241.2l-63.5-37.9l-197.2-151.7l-257.6,538
		C7373.8,5109.8,7713,5200,7713,5200.1"/>
	<path class="st0" d="M727,5094.8c-1.8-3.4-261-536.1-257.6-538l1561.9-1058.1c75-50.5,264.8-211.2,348.9-252.8
		c49.4-24.5,272.5-187.5,334.7-214.6l592.8-143c3.5-1.8,13.1,185.7,13.1,185.7l-150.5,601c2,3.4-220.4,352.4-220.4,352.4
		l-279.6,390.1c-0.5,0.3-61.5,19.7,0,0L1163,4966.7L727,5094.8"/>
</g>
<g id="Hood">
	<path class="st0" d="M3307.9,2909.7c-110.4-138.8-223.4-969-124.7-1424.1c50.6-192.2,28.3-309.2,231.1-504
		C3497,902.2,3697.5,805,3697.5,805l325.3-35.8c143.1,14.3,302.1,33.8,590.9,154c224.4,134.6,348.4,305.8,412.9,604.5l-23.7,463.7
		l-226.2,918.2c-280.9-22.9-476.9,31.8-844.2,0C3711.2,2959.5,3307.9,2909.7,3307.9,2909.7z"/>
	<g>
		<line class="st2" x1="3668.3" y1="902.2" x2="3843.5" y2="1281.1"/>
		<line class="st2" x1="4253" y1="920.8" x2="4318.8" y2="1291.2"/>
		<path class="st2" d="M4059.7,2741.3c-125.4-99.5-296.6-238.6-337.6-307.2c-55.5-93-81.9-173.3-121.4-293.3
			c-37.2-113.2-60.3-183.4-70.8-283.2c-12.6-120-23.3-221.4,30.3-333.7c64.8-135.7,183-202.5,222.5-222.5
			c44.3-22.4,80.3-32.1,111.3-40.5c65-17.5,183.8-39.4,323.6-10.1c39.4,8.3,83.6,25.7,171.9,60.7c156.9,62.1,118.3,67.9,185.4,155.1
			c31.2,40.5,61.3,69,67.4,320.3c6.1,253.6,15.3,281.7-30.3,424.8c-33,103.5-83.9,187.4-111.3,232.6
			C4450.9,2526.7,4100.2,2695.7,4059.7,2741.3"/>
		<path class="st2" d="M4134.2,2259.7"/>
	</g>
	<path class="st2" d="M4108.4,2721.2l-48.7,20.1c-175.9-119.6-313.2-254.4-391.5-412.6l882.8,7.3
		C4507,2478.6,4348.4,2602.3,4108.4,2721.2z"/>
	<path class="st2" d="M4346.7,2591.6l-286.9,149.7c-124.9-78-232.5-177.8-322.9-299.4l744.9,17.3L4346.7,2591.6z"/>
	<line class="st2" x1="4083.6" y1="2332.1" x2="4059.7" y2="2741.3"/>
	<line class="st2" x1="4071.7" y1="2449.7" x2="4058.4" y2="2773.5"/>
</g>
</svg>
