<?xml version="1.0" encoding="utf-8"?><!DOCTYPE svg PUBLIC "-//W3C//DTD SVG 1.1//EN" "http://www.w3.org/Graphics/SVG/1.1/DTD/svg11.dtd"><svg version="1.1" id="Contours" xmlns="http://www.w3.org/2000/svg" xmlns:xlink="http://www.w3.org/1999/xlink" x="0px" y="0px" width="1208.269653px" height="1208.269653px" viewBox="0.000017 -0.000016 1208.269653 1887.654053" enable-background="new 0 0 1208.269653 1208.269653" xml:space="preserve" stroke="black" fill="none" stroke-linecap='round' stroke-linejoin='round'><path class="selected"  fill="#000000" opacity="1.000000" stroke="none" 
 	d="
M86.094161 1113.381974 C86.760787 1110.658341 87.901900 1108.965592 88.016829 1107.205948 C88.741500 1096.108048 90.860030 1085.307023 93.756026 1074.576066 C95.154402 1069.394425 95.261214 1063.874283 96.112654 1058.532853 C98.054061 1046.353287 100.150801 1034.198136 102.043502 1022.011246 C102.397322 1019.733048 102.057784 1017.352189 102.099959 1015.019791 C102.447249 995.800187 105.287032 977.074845 109.515242 958.209610 C112.601729 944.438370 116.114669 930.424820 116.450728 915.837296 C116.747298 902.961197 120.305525 890.183732 122.032759 877.310318 C123.652815 865.235611 124.570357 853.067276 126.156600 840.987320 C127.349227 831.904923 129.118636 822.898575 130.615523 813.855729 C131.132796 810.730607 131.982649 807.602433 132.022139 804.467423 C132.135604 795.473526 133.267317 786.757584 135.911177 778.072281 C137.562178 772.648575 137.532576 766.691300 138.071639 760.956070 C139.107772 749.932145 140.612410 739.043717 143.911971 728.385636 C145.398360 723.584488 145.526595 718.339493 146.071273 713.274430 C147.357527 701.312516 148.847212 689.459855 151.853072 677.704361 C154.362105 667.891617 154.093978 657.394425 156.252120 647.460221 C159.400618 632.967057 159.477645 618.020646 163.868392 603.675309 C166.439803 595.274064 166.511153 586.137101 168.151290 577.414689 C170.759322 563.544938 173.724410 549.741959 176.567794 535.916886 C177.703169 530.396500 178.963729 524.901993 180.084578 519.378800 C182.706404 506.459977 185.375167 493.549332 187.835555 480.599381 C189.427901 472.218522 190.609358 463.760392 192.111128 455.361222 C194.716658 440.789689 198.422713 426.333512 199.843917 411.652482 C201.646956 393.026871 207.827437 375.603898 211.980513 357.626725 C213.973677 348.999039 214.594588 340.063431 216.135909 331.319962 C218.100508 320.175919 220.256819 309.062394 222.535140 297.977799 C224.928816 286.332291 227.430709 274.705277 230.131636 263.127701 C232.848006 251.483963 234.051985 239.773209 234.361800 227.786393 C234.575240 219.530167 238.100936 211.849686 246.105574 207.325150 C247.647689 206.453507 249.929976 204.833146 249.913497 203.584000 C249.766646 192.458085 256.455489 183.526627 259.245101 173.361222 C265.229170 151.555558 271.652144 129.867081 278.158003 108.209427 C280.639266 99.949418 283.220870 91.617875 286.842086 83.823075 C294.373885 67.610733 297.614241 50.212235 302.116805 33.145829 C303.300398 28.659134 305.125533 24.318009 306.027938 19.784989 C309.102950 4.338700 319.616683 -3.295700 339.421065 1.350113 C356.750899 5.415421 373.665572 11.087113 391.437728 13.695878 C405.273604 15.726883 418.886641 18.730362 432.954573 19.870804 C440.325240 20.468216 447.760787 20.840592 455.161666 21.405838 C471.613570 22.662491 488.141768 23.404984 504.472945 25.594681 C516.580245 27.217972 528.578902 28.936600 540.824507 29.660660 C553.402388 30.404313 565.821089 33.589615 578.371871 35.227067 C581.292159 35.608109 584.515547 33.310746 587.513228 33.514664 C598.289595 34.247574 608.474898 31.377884 618.907637 29.658585 C624.372725 28.758011 630.390425 30.316544 636.013716 31.470536 C645.725752 33.463639 655.390792 35.411881 665.371993 35.401261 C708.034468 35.356034 750.723921 34.483902 793.347457 35.772233 C813.731978 36.388443 834.121627 37.520951 854.523604 37.285294 C867.252120 37.138321 880.051558 36.709855 892.663985 35.151810 C901.208663 34.096207 909.809371 31.660599 917.804610 28.413224 C930.521041 23.248246 943.048018 24.804154 955.682051 27.534562 C957.934249 28.021256 960.533980 30.085526 961.634078 32.138810 C965.423384 39.212235 970.788619 45.470597 970.742842 54.549027 C970.728438 57.398392 969.667281 60.023514 969.864424 62.972245 C971.002486 79.996171 970.700118 97.136124 972.293624 114.104569 C973.970503 131.961014 976.801070 149.696549 978.559371 167.586747 C979.961104 181.850480 979.774214 196.753861 985.945967 210.379471 C986.697798 212.039322 986.007002 214.323990 986.106978 216.312882 C986.468184 223.492081 987.967696 225.454361 994.776778 225.234818 C999.585982 225.079728 1002.284835 227.531998 1004.004805 231.040909 C1009.089156 241.412919 1012.637740 252.299393 1014.152754 263.843583 C1015.179122 271.664078 1016.675704 279.427567 1018.120528 287.187088 C1019.325362 293.658036 1020.986617 300.049027 1022.048628 306.540421 C1024.492232 321.476395 1026.093306 336.526383 1029.908980 351.262467 C1031.663130 358.037369 1031.180342 365.361466 1032.147750 372.376481 C1033.922164 385.245133 1034.297896 398.276383 1037.893721 410.951432 C1039.708663 417.348771 1039.166060 424.379532 1040.151045 431.055680 C1041.951216 443.255509 1044.303633 455.375138 1046.017989 467.585587 C1047.094161 475.251114 1047.436324 483.020279 1048.092208 490.744156 C1049.431929 506.523087 1049.818770 522.463517 1052.468672 538.018692 C1053.919600 546.536393 1052.700240 555.023209 1054.350386 563.199601 C1055.785689 570.311905 1055.309371 577.597794 1057.805953 584.693619 C1059.880171 590.588273 1059.448897 597.369767 1060.089644 603.762345 C1061.437544 617.207169 1062.105879 630.762101 1064.293502 644.068009 C1066.172530 655.497086 1066.779952 667.049088 1068.485152 678.381485 C1071.127608 695.943375 1072.877364 713.659562 1076.212935 731.098404 C1078.973189 745.527970 1081.573775 759.841202 1082.398360 774.614274 C1083.115279 787.458512 1086.189009 800.208756 1088.700972 812.905533 C1091.553755 827.323868 1094.800948 841.668961 1098.146773 855.982804 C1100.124556 864.444108 1102.804366 872.740250 1104.827803 881.192399 C1106.219405 887.005143 1107.028121 892.957657 1108.093794 898.848404 C1109.383956 905.980362 1110.811690 913.091324 1111.914229 920.252335 C1112.838790 926.257340 1113.445113 932.314469 1114.077681 938.360489 C1114.814986 945.409684 1115.097457 952.522233 1116.169600 959.516617 C1117.888228 970.730240 1120.365767 981.829850 1121.980635 993.055680 C1122.798873 998.743424 1122.596846 1004.454728 1123.787886 1010.271866 C1126.156172 1021.839737 1126.345870 1033.834733 1128.202681 1045.531388 C1130.369429 1059.180558 1133.562911 1072.663956 1135.900923 1086.289689 C1137.094649 1093.247086 1136.855635 1100.463273 1138.209273 1107.377335 C1140.774459 1120.479264 1140.499556 1133.945450 1143.946089 1146.949723 C1145.489546 1152.773942 1145.288619 1159.042740 1146.123702 1165.076188 C1147.769942 1176.969864 1148.957320 1188.923722 1151.979170 1200.620743 C1153.326216 1205.835099 1153.497969 1211.363419 1154.080123 1216.762467 C1155.457198 1229.537491 1155.903365 1242.488053 1158.359175 1255.048233 C1160.412276 1265.548600 1160.641402 1276.328141 1163.910933 1286.669327 C1165.616622 1292.064225 1165.356124 1298.067399 1166.107955 1303.779435 C1168.169722 1319.442032 1169.605513 1335.180436 1173.937056 1350.507096 C1175.571456 1356.290055 1175.472945 1362.571061 1176.083541 1368.633194 C1177.040694 1378.134659 1177.145674 1387.749405 1180.055831 1396.984513 C1180.342452 1397.894181 1180.045699 1398.974991 1180.101485 1399.971573 C1180.756636 1411.694962 1180.954390 1423.468888 1182.217940 1435.126847 C1183.687544 1448.687882 1186.253585 1462.126114 1188.032393 1475.658585 C1189.041548 1483.336808 1188.174727 1491.480851 1190.396773 1498.726944 C1193.491255 1508.818253 1189.716963 1519.443741 1194.062178 1529.174210 C1194.310347 1529.729874 1194.059615 1530.495011 1194.099166 1531.159317 C1194.758711 1542.215958 1194.438887 1553.447892 1196.368575 1564.278946 C1198.350142 1575.401505 1196.449263 1586.663712 1198.447798 1597.430314 C1200.644576 1609.265519 1199.103194 1620.970353 1200.199507 1632.653946 C1200.875411 1639.857804 1202.737960 1646.942521 1203.782149 1654.121964 C1204.750167 1660.777237 1205.444747 1667.478165 1206.068526 1674.176651 C1206.941451 1683.549210 1205.271163 1692.900773 1207.778243 1702.426163 C1210.063643 1711.108536 1204.133834 1717.631730 1195.033980 1719.375382 C1193.480147 1719.673478 1191.904097 1719.854630 1190.346602 1720.135636 C1184.747603 1721.145157 1182.202559 1722.906388 1181.557295 1730.148331 C1180.439253 1742.694718 1179.398482 1754.368546 1183.667525 1766.852921 C1187.107344 1776.912491 1186.702315 1788.274552 1188.138594 1799.040909 C1188.464888 1801.487442 1189.366866 1803.855362 1189.974410 1806.266495 C1191.626753 1812.824357 1187.028243 1818.813126 1180.337691 1819.445450 C1173.530318 1820.089005 1166.771041 1823.392960 1159.990767 1819.381974 C1147.210005 1823.983292 1133.546431 1818.945694 1120.586470 1823.182511 C1114.917647 1825.035538 1108.516402 1824.558976 1102.486128 1825.411759 C1085.692183 1827.785782 1068.489791 1826.030411 1051.907271 1831.171525 C1045.585127 1833.131730 1038.531661 1832.777970 1031.801680 1833.366105 C1023.417769 1834.099015 1014.853194 1833.892716 1006.676802 1835.588028 C996.189620 1837.762589 985.518111 1838.626847 975.010665 1840.878312 C966.455123 1842.711564 957.486251 1843.406876 948.761885 1845.287491 C937.675582 1847.677384 926.219649 1848.592179 915.345870 1851.648087 C907.561934 1853.835343 899.963912 1855.468644 891.930342 1855.397599 C883.931807 1855.326798 875.881392 1854.823624 867.947676 1855.544327 C860.554244 1856.215958 854.223921 1853.050919 847.692916 1851.052140 C844.605391 1850.107316 842.427413 1845.774308 840.125777 1842.756241 C833.649581 1834.265030 832.723311 1823.547501 830.592940 1813.816788 C828.175948 1802.777726 823.568038 1792.553116 821.183882 1781.599747 C819.833663 1775.396378 817.563033 1769.411515 818.079756 1762.900773 C818.505538 1757.535050 815.861983 1754.975235 810.731368 1753.248917 C795.297896 1748.055802 793.309737 1749.839737 792.154952 1727.531388 C791.708419 1718.904923 790.526045 1710.505753 788.217940 1702.159806 C786.871504 1697.291153 786.649581 1692.092423 786.120650 1687.021378 C785.350997 1679.642472 784.974654 1672.217667 784.050582 1664.860245 C781.966963 1648.269669 780.480635 1631.599503 775.366377 1615.487442 C772.915450 1607.765763 772.014571 1599.565567 770.037032 1591.675919 C768.003340 1583.561417 765.432295 1575.582901 763.241988 1567.505509 C760.030440 1555.661515 757.376265 1543.738419 755.947920 1531.484269 C754.636519 1520.233536 751.982466 1509.144669 750.140914 1497.948136 C749.206954 1492.269181 748.872115 1486.493790 748.071456 1480.789444 C746.279586 1468.023087 744.409590 1455.303849 740.751876 1442.849259 C738.458052 1435.038468 737.812544 1426.758927 736.047164 1418.774064 C732.880660 1404.452530 730.023116 1390.022355 725.952803 1375.951066 C720.030196 1355.475602 712.818526 1335.374283 706.812667 1314.920670 C703.820723 1304.731339 702.618453 1294.030533 700.020064 1283.708756 C695.623213 1266.242447 691.699141 1248.565567 685.777877 1231.605240 C681.540450 1219.467789 674.395919 1208.339982 668.483077 1196.795182 C666.225630 1192.387711 663.728926 1188.103409 661.438887 1183.712052 C650.576705 1162.882828 639.849532 1141.982560 628.874312 1121.213273 C620.773848 1105.884171 612.254439 1090.776505 604.156172 1075.446427 C601.430831 1070.287247 599.991988 1064.405167 596.990279 1059.443253 C586.829024 1042.646744 579.137740 1024.867447 574.039229 1005.928483 C573.781050 1004.969864 572.725020 1004.225968 572.040572 1003.381974 C571.391768 1004.261734 570.251753 1005.098282 570.170333 1006.027726 C569.377120 1015.072892 569.229048 1024.198990 567.972335 1033.172623 C566.491377 1043.749161 563.929000 1054.169205 562.136397 1064.708268 C559.958174 1077.514908 558.382979 1090.428483 556.011519 1103.196427 C553.727339 1115.494889 550.812056 1127.678116 548.076827 1139.890152 C546.167525 1148.414567 542.844527 1156.834000 542.377120 1165.421402 C541.610518 1179.504288 536.237837 1192.405533 533.784468 1206.032120 C531.157881 1220.620987 526.191817 1234.799210 522.062544 1249.103409 C518.887862 1260.100602 515.265792 1270.969376 512.134078 1281.978165 C507.972457 1296.606949 503.976851 1311.285782 500.122359 1325.998795 C494.683394 1346.760514 488.855513 1367.445206 484.254683 1388.395890 C478.044234 1416.676651 469.291670 1444.254776 462.312178 1472.306534 C459.579695 1483.288956 458.243025 1494.612442 456.069258 1505.741349 C452.157698 1525.766251 448.717208 1545.912247 443.926558 1565.728653 C438.681075 1587.426407 431.370101 1608.633927 426.365279 1630.378556 C421.528182 1651.394181 415.077437 1671.999894 411.762862 1693.449112 C409.508834 1708.035782 405.638045 1722.390519 403.990462 1737.170548 C402.479109 1750.728409 400.126021 1764.193985 398.075545 1777.689591 C397.413008 1782.050675 397.395186 1786.789200 395.563643 1790.630997 C392.367537 1797.334855 387.783126 1803.408341 379.173018 1803.302872 C374.240523 1803.242814 372.818465 1805.110489 371.880904 1810.019425 C369.040755 1824.889542 365.689559 1839.627823 363.915511 1854.720841 C362.902327 1863.340714 360.583480 1871.910050 357.876021 1880.182511 C356.628829 1883.993546 354.606978 1888.215958 348.274214 1887.592423 C339.691573 1886.747452 330.861067 1888.227677 322.320052 1887.195450 C307.284529 1885.378067 292.118270 1884.508927 277.397139 1879.964493 C266.951033 1876.739884 255.886519 1875.526505 245.105696 1873.377091 C228.484358 1870.062882 211.786971 1867.072403 195.283248 1863.247941 C185.369002 1860.950089 175.752059 1857.359025 166.017684 1854.297745 C143.902938 1847.342423 121.670272 1840.731095 99.731734 1833.257462 C83.567855 1827.750870 67.566023 1821.926407 50.681014 1818.893692 C43.629561 1817.627335 36.570662 1816.080704 29.749190 1813.922013 C15.548934 1809.428116 13.075301 1803.826310 16.856978 1789.502091 C20.489485 1775.743058 25.613204 1761.828995 23.710982 1747.541153 C22.405196 1737.733048 22.353987 1728.065567 22.166121 1718.320206 C22.096846 1714.725724 24.332808 1710.183243 22.817061 1707.766739 C21.216841 1705.215226 16.307601 1704.863419 12.999129 1703.235245 C4.145308 1698.878312 -0.051225 1691.840470 0.000472 1681.782120 C0.070357 1668.175187 0.937361 1654.751114 3.953475 1641.412003 C5.432173 1634.872452 5.225203 1627.969132 6.150313 1621.281876 C7.100569 1614.412491 8.545027 1607.613175 9.675887 1600.766983 C9.992171 1598.851700 10.093367 1596.878556 10.073470 1594.933976 C9.938216 1581.756974 13.167708 1569.167862 15.756941 1556.348771 C18.915450 1540.711808 23.771285 1525.606827 27.426924 1510.237931 C30.158614 1498.753800 33.554061 1487.124405 34.478987 1474.916886 C35.856978 1456.729874 39.571150 1438.771134 40.616194 1420.408585 C41.071150 1412.414933 40.512557 1404.032853 42.362410 1396.273575 C44.452315 1387.507462 42.266036 1378.287003 46.026290 1369.839005 C46.521651 1368.726212 46.005904 1367.196183 46.107588 1365.870743 C47.420638 1348.756608 47.938582 1331.528214 50.339034 1314.566544 C52.484786 1299.404557 54.064742 1284.168595 56.344039 1269.059586 C59.429610 1248.604386 64.278365 1228.415421 68.363387 1208.110733 C70.282576 1198.571427 72.204634 1189.032608 74.088484 1179.486222 C75.974410 1169.929459 77.873519 1160.374650 79.656539 1150.798478 C81.215438 1142.425553 82.618758 1134.023697 84.095259 1125.635514 C84.755843 1121.883317 85.427535 1118.133072 86.094161 1113.381974 M840.094161 1756.381974 C840.350508 1756.638321 840.602217 1757.113907 840.863936 1757.119278 C852.995162 1757.376603 865.110762 1757.393204 876.336714 1763.273331 C879.009566 1764.673478 882.369063 1765.126114 885.455001 1765.311661 C899.660445 1766.165177 913.363448 1763.328019 926.366622 1757.942765 C939.083052 1752.676163 951.810591 1748.867325 965.822554 1749.163956 C972.667769 1749.308976 979.684859 1747.641739 986.406172 1745.935441 C998.155318 1742.953019 1009.170088 1738.214005 1019.512496 1731.623917 C1022.781905 1729.540665 1024.213179 1727.985978 1024.137007 1724.360245 C1023.990279 1717.363907 1024.001998 1710.360489 1024.115401 1703.362687 C1024.293379 1692.381730 1020.994918 1682.495743 1016.526412 1672.491837 C1010.380294 1658.732316 1004.360030 1644.628556 1006.071578 1628.820939 C1006.870284 1621.445206 1007.340987 1614.033341 1008.183516 1606.663468 C1008.316573 1605.499894 1009.636885 1604.472306 1010.408370 1603.381974 C1010.970259 1604.681778 1011.991866 1605.972550 1012.018355 1607.283097 C1012.172652 1614.946427 1012.410689 1622.630265 1012.013594 1630.276017 C1011.522627 1639.729386 1013.870650 1648.559464 1017.022750 1657.239640 C1019.122481 1663.021866 1021.994185 1668.526993 1024.040694 1674.325333 C1029.362593 1689.402482 1032.791182 1704.867814 1032.035201 1720.986954 C1031.877974 1724.341446 1032.523360 1725.836564 1036.293868 1725.444962 C1044.662764 1724.575577 1053.056319 1723.803360 1061.459395 1723.432023 C1080.174971 1722.604874 1098.902510 1722.047013 1117.625289 1721.386612 C1118.624068 1721.351456 1119.646529 1721.516495 1120.621627 1721.360733 C1128.741377 1720.064835 1136.832686 1718.573136 1144.972945 1717.427628 C1151.330977 1716.533097 1157.800460 1716.369523 1164.124678 1715.309220 C1174.356856 1713.594132 1180.865401 1706.178605 1183.759810 1697.443497 C1188.376143 1683.512345 1186.703047 1669.476456 1180.271285 1655.787491 C1174.756880 1644.051163 1170.141402 1631.737442 1172.062544 1618.182755 C1172.294112 1616.548966 1171.894210 1614.824601 1172.132857 1613.193009 C1172.772383 1608.821915 1173.454634 1604.444230 1174.456221 1600.147843 C1174.700484 1599.099747 1176.237837 1598.353409 1177.180709 1597.468400 C1177.485152 1598.342179 1177.869673 1599.198624 1178.067183 1600.095841 C1178.206954 1600.731583 1178.132247 1601.425675 1178.088545 1602.089249 C1176.809127 1621.534806 1179.414229 1640.184220 1187.895064 1658.038468 C1190.510054 1663.543839 1191.661299 1670.137833 1191.892867 1676.293351 C1192.287154 1686.778702 1192.272261 1697.515275 1184.441085 1706.141251 C1183.919722 1706.715714 1183.934249 1708.082901 1184.178389 1708.945939 C1184.361617 1709.594132 1185.455855 1710.582901 1185.902877 1710.469620 C1194.504195 1708.283341 1200.762129 1699.217911 1200.054610 1689.769669 C1199.599654 1683.696915 1199.029097 1677.609025 1198.041670 1671.604874 C1195.533126 1656.351212 1191.874800 1641.229874 1190.331465 1625.889054 C1188.625777 1608.937394 1188.833052 1591.797745 1188.069625 1574.745987 C1187.529463 1562.683732 1187.243697 1550.580460 1185.966109 1538.589249 C1184.521041 1525.026017 1182.058394 1511.572648 1180.111861 1498.060929 C1179.337569 1492.686173 1178.904586 1487.260636 1178.065108 1481.897599 C1176.157515 1469.712052 1173.780928 1457.592423 1172.179366 1445.369278 C1170.467574 1432.305314 1168.766280 1419.177872 1168.281539 1406.033097 C1167.804732 1393.105607 1165.754317 1380.448624 1164.378951 1367.668595 C1163.179244 1356.522110 1161.929122 1345.430802 1160.228072 1334.337906 C1157.709395 1317.913590 1156.097212 1301.350358 1154.092208 1284.847184 C1153.437300 1279.455582 1153.663985 1273.746720 1151.893843 1268.747330 C1148.826827 1260.084244 1148.446089 1251.318985 1147.912154 1242.345963 C1147.465621 1234.845841 1145.427413 1227.440690 1144.094161 1219.993424 C1142.760787 1212.546158 1141.121382 1205.138199 1140.163130 1197.642960 C1138.576094 1185.228409 1137.470626 1172.753067 1136.074141 1160.313248 C1135.470137 1154.933243 1134.794722 1149.552750 1133.892256 1144.216446 C1132.052657 1133.337906 1129.804610 1122.523819 1128.175337 1111.615860 C1127.081221 1104.289689 1127.158126 1096.785660 1126.011641 1089.470841 C1123.617842 1074.200333 1120.668013 1059.017960 1118.122725 1043.769913 C1115.983687 1030.955704 1114.826583 1017.930802 1111.912154 1005.304459 C1108.119063 988.872941 1104.668746 972.494156 1104.026656 955.582047 C1103.770796 948.843033 1103.051314 942.088028 1102.029708 935.419083 C1100.262129 923.879288 1098.050215 912.408341 1096.106124 900.894669 C1094.052535 888.733048 1093.187056 876.247208 1089.860884 864.450333 C1083.439620 841.676163 1078.720748 818.666153 1076.095748 795.188126 C1075.418624 789.132462 1074.938643 783.048600 1074.057295 777.023209 C1072.177413 764.168229 1069.943404 751.364151 1068.139815 738.499161 C1066.585982 727.416520 1066.546675 715.986954 1063.752364 705.253678 C1061.370284 696.104630 1062.669966 686.849259 1060.361495 677.755509 C1058.399825 670.027604 1058.855513 661.700577 1058.058272 653.656876 C1057.588057 648.913956 1056.879805 644.185685 1056.070479 639.486710 C1054.144210 628.303238 1051.821822 617.181046 1050.169966 605.959122 C1048.492720 594.562638 1048.083907 582.951554 1045.936934 571.659195 C1042.879683 555.578385 1040.852706 539.441544 1040.102095 523.117447 C1040.040938 521.787003 1040.520430 520.262955 1040.027510 519.147477 C1035.715377 509.390641 1039.099410 498.838517 1036.481368 488.677018 C1034.010176 479.085465 1035.664107 468.489884 1033.774459 458.668717 C1032.527999 452.190323 1032.802779 445.808243 1031.975142 439.452408 C1030.383345 427.228409 1028.012129 415.108170 1026.130416 402.919083 C1025.251998 397.228287 1024.882125 391.460465 1024.069991 385.757584 C1022.145308 372.242814 1019.957320 358.764664 1018.136031 345.236588 C1016.598799 333.817032 1016.788130 321.971207 1013.747115 310.997391 C1010.014937 297.528641 1008.976851 283.728959 1005.991988 270.240372 C1003.850386 260.562699 1000.944502 251.036942 997.961348 241.575272 C997.242354 239.295060 995.198775 236.889664 993.109664 235.816605 C992.085860 235.290848 989.517378 237.617264 987.723677 238.770585 C974.559371 247.234635 961.520796 255.900650 948.219893 264.143692 C941.122847 268.541947 933.367232 271.880448 926.286544 276.302018 C909.679244 286.672562 892.107955 294.801896 873.736251 301.576676 C863.347823 305.407547 852.187544 306.980179 842.508589 313.181290 C836.645430 316.937882 829.569991 318.864457 822.940718 321.350724 C809.377852 326.437211 795.664107 331.129593 782.166670 336.380570 C762.077071 344.196183 742.204268 352.571183 722.086470 360.311295 C698.765547 369.283707 674.639815 374.245377 649.503218 373.395890 C646.506758 373.294571 643.496260 373.519791 640.506026 373.349991 C635.888106 373.087906 634.072188 375.066056 634.032149 379.728043 C633.836714 402.461442 634.435103 425.167374 632.338301 447.918351 C630.192916 471.195084 633.895552 494.706070 630.287764 518.092911 C628.505782 529.643937 628.758834 541.509049 628.098921 553.232560 C628.061446 553.897110 628.265059 554.621109 628.069258 555.224137 C623.259810 570.030533 624.042281 585.613053 622.475386 600.783341 C620.110518 623.681290 622.127242 646.831070 620.733443 669.949723 C619.603072 688.697892 615.834883 706.890397 614.033858 725.416398 C613.965987 726.115738 613.010176 726.728653 612.468306 727.381974 C611.676924 726.644791 610.157149 725.853531 610.207320 725.178971 C610.684127 718.774674 611.855635 712.400650 612.008345 705.998185 C612.367598 690.922989 611.834761 675.866227 613.927291 660.808365 C615.539229 649.207779 614.012862 637.447525 615.642256 625.600113 C617.634932 611.112320 615.591963 596.171402 617.966231 581.472794 C619.303389 573.194352 618.422286 564.752579 619.603926 556.255387 C621.185713 544.882096 622.260909 533.391739 623.848555 521.948624 C625.593062 509.375138 625.374556 496.533463 626.108321 483.814347 C626.918868 469.764176 626.199263 455.749894 627.599288 441.595597 C629.632002 421.045792 627.608321 400.163590 629.941329 379.459733 C630.756270 372.226578 629.420577 371.232438 622.434859 371.452408 C605.312789 371.991471 589.522383 366.024918 573.473189 361.590836 C560.994063 358.143204 548.871993 353.417374 536.545577 349.399674 C515.714156 342.609635 495.427046 334.441239 475.521041 325.329117 C470.464766 323.014725 465.871260 319.671708 460.781722 317.450638 C443.565840 309.937211 426.065596 303.059586 408.982283 295.263504 C397.186812 289.880570 385.762618 283.629349 374.425765 277.311783 C363.285384 271.103592 352.730879 263.809830 341.430281 257.932877 C329.693343 251.828934 317.518782 246.489274 305.266829 241.471695 C289.232588 234.905350 273.426985 227.954911 258.623519 218.894974 C253.242293 215.601578 245.207564 217.556656 244.272078 223.185379 C242.817488 231.937760 238.814009 240.138810 239.930037 249.516678 C241.424544 262.074662 238.061812 274.047379 234.642989 286.198807 C230.069075 302.456254 227.570967 319.293839 224.071761 335.859208 C222.199202 344.724015 219.855269 353.493912 218.148360 362.387955 C214.645674 380.639908 211.381941 398.938492 208.115035 417.234757 C206.614058 425.641373 205.445418 434.107560 203.931868 442.511734 C202.093062 452.722184 199.908614 462.871476 198.149581 473.094620 C197.173934 478.765030 197.541793 484.764542 195.922957 490.204728 C193.032393 499.918595 192.519148 509.998307 190.302291 519.815323 C187.447127 532.459610 187.256819 545.769669 183.768050 558.188858 C180.260909 570.673356 178.266829 583.303971 176.151778 595.973893 C175.150069 601.974747 175.392806 608.231461 173.965193 614.103165 C170.796981 627.134293 170.817732 640.571671 168.218856 653.671525 C166.846663 660.588273 166.830367 667.767594 166.070723 674.814347 C165.524214 679.884171 164.981612 684.971817 164.047347 689.978653 C162.206221 699.845841 159.821334 709.617081 158.170272 719.512833 C156.492354 729.569108 155.749495 739.783097 154.015486 749.827775 C151.665023 763.443497 148.297042 776.893204 146.220931 790.544205 C144.020491 805.012467 142.380782 819.598649 140.590315 834.098038 C138.673079 849.624650 136.938521 865.132096 134.245284 880.574723 C132.155562 892.556412 131.511092 904.785538 130.068343 916.886124 C128.860762 927.014908 128.057112 937.249650 125.954512 947.200821 C122.313033 964.435441 117.674666 981.420670 115.949690 999.070572 C114.687972 1011.980118 112.004073 1024.746232 110.122969 1037.601090 C108.645919 1047.693741 107.922713 1057.920060 105.987410 1067.917374 C102.358260 1086.664322 97.768843 1105.226334 94.183882 1123.980729 C90.448592 1143.521866 87.657332 1163.242447 84.015120 1182.802750 C81.496077 1196.331315 78.362960 1209.751481 75.258589 1223.163102 C73.085005 1232.553605 69.933150 1241.747208 68.241683 1251.211808 C66.275740 1262.212418 65.366255 1273.405777 64.110518 1284.528214 C62.706099 1296.967057 62.195479 1309.570450 59.801192 1321.809830 C58.402510 1328.959977 59.585066 1336.280289 57.808577 1342.961442 C54.688277 1354.695572 56.856917 1366.680069 54.349593 1378.432511 C52.404524 1387.549698 53.659163 1397.343888 51.769393 1406.480851 C50.566085 1412.298478 51.514876 1418.328263 49.855147 1423.643692 C45.189620 1438.586564 45.898848 1454.111222 44.572981 1469.272110 C43.176863 1485.236954 40.796126 1500.706925 34.893599 1515.417374 C23.765181 1543.152237 20.592391 1572.513321 16.143599 1601.630753 C14.503646 1612.364151 13.741316 1623.235001 12.000838 1633.949112 C10.445235 1643.525528 7.758223 1652.920548 6.266158 1662.503800 C5.700911 1666.133927 6.928206 1670.094864 7.600814 1673.858048 C10.976119 1692.742081 25.502364 1698.010636 41.495467 1701.340470 C44.379683 1701.940812 46.146834 1701.546525 46.321211 1697.413712 C46.527388 1692.525773 48.256941 1687.656632 49.648299 1682.872941 C53.605757 1669.267228 59.774703 1656.257706 58.348189 1641.354142 C57.899398 1636.665421 60.417098 1631.680314 61.639083 1626.846573 C63.937178 1617.755997 67.813338 1609.350235 72.989119 1601.562394 C74.046370 1599.971329 75.683150 1598.765519 77.052779 1597.381974 C77.035994 1599.412491 77.106734 1601.449601 76.962142 1603.470841 C76.898299 1604.362442 76.479354 1605.262345 76.082015 1606.091446 C69.100569 1620.659806 63.449202 1635.569230 64.087447 1652.123917 C64.138777 1653.455216 64.391585 1654.872452 64.048079 1656.110489 C60.650191 1668.358292 57.171431 1680.584366 53.664900 1692.801651 C50.396895 1704.188126 55.142989 1714.265763 66.344771 1717.227677 C76.656844 1719.953995 87.330855 1721.290665 97.810652 1723.411271 C106.085738 1725.085831 114.335066 1726.907364 122.548140 1728.863907 C143.346236 1733.818253 162.226607 1744.773575 183.618697 1748.083146 C192.668196 1749.482804 201.249312 1750.007950 210.291304 1747.696671 C214.105269 1746.721817 213.702376 1745.381241 214.201461 1742.700089 C216.140242 1732.285538 218.105513 1721.896866 225.130965 1713.228165 C231.732283 1705.082657 238.669173 1697.010392 243.919417 1688.008683 C256.419478 1666.576066 270.887862 1646.806534 288.867598 1629.684708 C291.147689 1627.513566 293.888655 1625.806778 296.517501 1624.035050 C297.216414 1623.563858 298.291426 1623.651017 299.193770 1623.481583 C298.851302 1624.424454 298.765059 1625.615616 298.127913 1626.272843 C288.467024 1636.236466 279.704512 1646.873673 271.924788 1658.416642 C261.168074 1674.376603 249.848921 1689.956925 238.775496 1705.703263 C235.872725 1709.831192 233.056746 1714.022110 230.077498 1718.093644 C225.887252 1723.820450 224.606795 1730.457657 223.057540 1737.219864 C220.643172 1747.757950 228.157454 1758.913468 238.945723 1759.355362 C242.938765 1759.519181 246.948836 1759.256241 250.943038 1759.405655 C262.790206 1759.848282 273.702315 1763.087052 283.626937 1769.830704 C294.598677 1777.285538 307.095198 1781.844132 320.026717 1783.079972 C336.493697 1784.653702 352.309798 1788.643692 368.197981 1792.577530 C377.700362 1794.930314 387.951827 1790.648575 389.994979 1782.328995 C391.204085 1777.405411 391.509017 1772.248673 392.074080 1767.180558 C392.822493 1760.466202 393.033858 1753.668351 394.176009 1747.026749 C396.573348 1733.085831 399.427596 1719.223526 402.094161 1705.328995 C404.227339 1694.213273 405.969344 1683.005265 408.569380 1671.999894 C415.591780 1642.276017 426.162337 1613.447403 430.259932 1582.957657 C431.921492 1570.594620 435.828169 1558.550187 437.997969 1546.234757 C441.053816 1528.889786 445.121321 1511.745987 448.517806 1494.480362 C451.432356 1479.664933 456.424605 1465.124405 460.522139 1450.491837 C466.321456 1429.782120 471.194136 1408.907853 476.165450 1388.019669 C480.629439 1369.263077 484.417525 1350.194718 490.850508 1332.098160 C497.729781 1312.746354 500.528975 1292.380631 507.865889 1273.178116 C513.046065 1259.620255 516.299849 1245.302262 520.039595 1231.224381 C524.275435 1215.278458 528.523726 1199.313004 531.958052 1183.183854 C534.699385 1170.308854 538.863448 1157.768570 540.284712 1144.549576 C541.074629 1137.202530 544.033126 1130.113907 545.590377 1122.818375 C547.952071 1111.754776 550.211959 1100.655045 551.999190 1089.488297 C553.168990 1082.178727 552.617720 1074.537735 554.260054 1067.371232 C557.855635 1051.680558 556.867598 1035.524552 559.964888 1019.796280 C561.390792 1012.555680 560.209639 1004.666031 562.348189 997.729752 C566.770919 983.384781 566.787520 968.432633 569.686934 953.886979 C571.959151 942.487809 574.691451 931.383561 577.778121 920.197037 C581.329268 907.326554 587.153121 895.159562 588.415816 881.458634 C589.375533 871.045792 593.924727 861.014664 595.677046 850.611588 C598.158248 835.882828 603.447676 821.525406 602.122115 806.230607 C601.921431 803.914811 601.968184 801.555436 602.173628 799.240494 C602.232588 798.577164 603.206832 797.561905 603.839888 797.498917 C604.544722 797.428971 605.921431 798.173233 606.003951 798.715348 C606.819747 804.082901 608.265181 809.541275 607.889083 814.857682 C607.381636 822.030045 604.545088 829.067765 604.283492 836.220841 C603.787520 849.791642 602.438277 863.223649 600.024947 876.541886 C598.466475 885.143570 596.572310 893.715836 594.241744 902.138810 C590.444991 915.860367 585.917769 929.380875 582.167891 943.114151 C578.754195 955.616349 579.820479 968.534440 580.257613 981.257462 C580.591841 990.985245 582.899703 1000.503190 585.508345 1009.996598 C591.620894 1032.242203 602.915938 1052.151627 612.573653 1072.800919 C618.716109 1085.934098 625.040694 1098.993058 631.699141 1111.870255 C636.117232 1120.414689 641.987471 1128.253190 645.951461 1136.978409 C655.505538 1158.008805 668.127486 1177.207901 680.010665 1196.876114 C685.110518 1205.317032 689.270674 1214.347916 692.044966 1223.867447 C694.739058 1233.112076 697.107711 1242.454361 699.478560 1251.789444 C703.080977 1265.974259 706.639937 1280.171158 710.062667 1294.400040 C711.892134 1302.005875 713.046797 1309.786271 715.121871 1317.318253 C719.715987 1333.992569 726.263838 1350.039689 731.659957 1366.423966 C737.200362 1383.246964 742.333663 1400.423478 744.188643 1418.290909 C744.733687 1423.540909 746.502486 1428.654923 747.552657 1433.862931 C749.788008 1444.949357 751.844649 1456.071915 754.117354 1467.150528 C756.003585 1476.344620 758.524825 1485.429093 759.984297 1494.685196 C761.777999 1506.059708 762.709761 1517.568253 764.114913 1529.006485 C764.851241 1534.999894 765.605513 1541.004044 766.724532 1546.932999 C767.527754 1551.189591 769.032881 1555.308976 770.078658 1559.525528 C773.453658 1573.133683 776.844893 1586.738419 780.064620 1600.383683 C782.219893 1609.517716 784.011519 1618.737687 786.117842 1627.884171 C788.118575 1636.571915 788.913130 1645.508683 790.593428 1654.133683 C792.509810 1663.969864 794.149214 1673.935196 795.799727 1683.792862 C797.727095 1695.304825 796.870528 1707.259171 798.315962 1718.885392 C799.105025 1725.231583 799.135909 1732.265030 803.463545 1737.670060 C812.557662 1749.027726 825.118453 1753.695939 840.094161 1756.381974 M343.094161 249.381974 C351.160140 254.048661 359.026778 259.110550 367.333113 263.300614 C385.229903 272.328324 403.512740 280.596879 421.336714 289.761368 C438.083724 298.372086 455.804854 304.716813 472.715499 313.031571 C492.558150 322.787919 513.289595 330.937882 534.568404 337.421219 C550.527266 342.283585 566.391036 347.459977 582.269576 352.582413 C589.718428 354.985489 597.562422 354.412247 605.045821 355.695939 C618.196578 357.951920 631.163008 361.007584 644.601241 361.436905 C660.788863 361.953873 676.350386 358.392594 692.155318 355.690934 C706.416915 353.253190 720.185836 349.565445 733.963545 345.439103 C758.547774 338.076371 781.594649 326.879899 805.344893 317.436295 C824.518111 309.812577 843.894454 302.700943 863.159102 295.305863 C885.374922 286.777909 906.592574 276.022416 927.438643 264.716996 C944.959517 255.215043 960.038741 241.553910 978.455611 233.357438 C981.917647 231.816605 982.511519 229.476944 981.443404 225.545731 C977.799117 212.133072 974.172408 198.699784 973.992598 184.583695 C973.894210 176.855057 973.135298 169.084244 972.005538 161.431168 C970.349532 150.212418 967.732833 139.131913 966.189742 127.901139 C964.441817 115.181046 963.269332 102.374161 962.143965 89.578812 C961.232222 79.213089 961.000655 68.786088 960.027999 58.427567 C959.011641 47.602555 952.021163 34.725724 938.387374 33.132645 C931.283736 32.302567 925.451094 32.452958 919.409590 36.833817 C911.423873 42.624527 901.280074 41.737504 892.126876 43.063309 C878.921065 44.976151 865.405928 45.092484 852.012496 45.295609 C830.690474 45.618973 809.357466 45.598282 788.033858 45.335892 C746.653975 44.826798 705.273848 44.199784 663.902999 43.232316 C657.053511 43.072159 650.276534 40.754166 643.418379 39.764054 C636.442427 38.757157 629.415206 37.629776 622.395919 37.524613 C614.730513 37.409806 612.233687 40.490616 612.081710 48.001297 C612.008711 51.608170 611.836959 55.214005 611.651900 58.817399 C611.149214 68.599320 608.686080 78.767716 610.556319 88.067765 C613.215621 101.292069 610.944380 114.290970 612.022017 127.326188 C612.074996 127.967057 611.078780 128.694718 610.571089 129.381974 C609.745406 128.679398 608.259200 128.032608 608.194502 127.265824 C607.375533 117.557877 606.376265 107.840348 606.181075 98.110062 C605.860152 82.121354 606.027022 66.120926 606.165450 50.126969 C606.186568 47.676651 606.976973 45.177262 607.735030 42.803910 C608.589278 40.129410 607.780684 39.096573 605.085860 39.386673 C599.028975 40.038468 592.961592 41.360795 586.922530 41.236771 C576.862471 41.029984 566.874434 42.012345 556.685958 39.696305 C544.882247 37.013077 532.558272 36.445817 520.419722 35.457108 C508.060713 34.450516 495.652877 34.038651 483.265059 33.393876 C481.603438 33.307389 479.844893 33.727555 478.281294 33.327042 C466.345992 30.269608 454.206038 29.502152 441.937361 29.282975 C433.540267 29.133011 425.151045 28.140702 416.775130 27.347733 C411.701888 26.867325 406.523055 26.569596 401.632857 25.277237 C390.263838 22.272782 379.112044 18.444352 367.738875 15.457840 C356.271041 12.446549 344.710799 9.681473 333.060591 7.507279 C324.890425 5.982438 316.961714 7.072892 312.818282 15.790482 C311.376265 18.824296 311.029280 22.367875 310.084761 25.650650 C304.939925 43.531876 302.246077 62.091568 295.099166 79.423966 C293.221297 83.978226 291.632857 88.662430 290.115706 93.352982 C284.886702 109.519974 279.808089 125.735550 274.558821 141.895890 C268.740889 159.806900 262.772322 177.668900 256.922530 195.569718 C254.378890 203.353348 256.015486 206.282120 262.788191 211.479081 C273.363753 219.594376 284.829024 225.081192 297.837508 228.394242 C313.531294 232.391190 327.503523 240.663956 343.094161 249.381974 M293.094161 1873.381974 C298.814376 1874.048478 305.066023 1873.467911 310.147689 1875.633194 C321.922957 1880.650528 333.129134 1874.892472 344.573226 1874.943497 C348.121993 1874.959366 353.501448 1871.990616 354.240340 1865.833146 C354.863814 1860.637833 357.076216 1855.653458 358.034896 1850.474015 C360.884444 1835.078995 362.923140 1819.527482 367.844649 1804.565079 C369.215010 1800.398819 367.178633 1797.771134 362.623885 1797.424454 C359.643355 1797.197648 356.286421 1798.254532 353.694319 1797.228898 C343.185469 1793.071671 332.047652 1793.010636 321.156600 1791.307755 C316.572493 1790.590714 312.153853 1788.875382 307.595015 1787.925675 C296.203475 1785.552628 286.579329 1779.133683 276.182723 1774.483536 C267.256697 1770.490860 258.303328 1767.394669 248.155806 1767.099991 C238.881392 1766.830948 229.549666 1765.049942 221.839217 1758.377091 C217.566756 1754.679825 212.293440 1752.767228 205.969527 1753.194962 C195.690779 1753.889542 185.329451 1753.474015 175.006209 1753.314591 C172.537886 1753.276749 170.102706 1752.158585 167.617720 1751.950821 C157.284712 1751.087296 149.622664 1743.961319 140.422652 1740.360733 C121.155379 1732.819474 101.488814 1728.478165 80.863265 1727.207169 C68.447676 1726.442032 55.528060 1725.653702 48.114485 1712.561661 C44.776412 1706.666642 38.243758 1709.029679 33.582442 1709.767228 C29.537581 1710.407608 27.827498 1715.438858 28.150313 1719.869767 C28.592513 1725.938614 28.258528 1732.418595 30.335555 1737.940567 C34.765853 1749.718400 29.653792 1760.542130 28.729354 1771.774308 C28.054244 1779.977189 22.960005 1787.221085 23.965132 1795.858536 C24.411544 1799.694474 24.459029 1802.553116 29.209090 1803.674942 C34.874495 1805.012833 40.184065 1807.810441 45.824874 1809.308487 C60.557662 1813.221817 75.616622 1816.049698 90.116194 1820.660294 C105.948836 1825.694474 121.711653 1831.033097 137.313887 1836.895401 C150.211898 1841.741349 163.724959 1845.655411 177.152449 1849.288712 C198.164168 1854.973771 219.217024 1860.625138 240.487532 1865.197403 C257.171919 1868.783829 274.212081 1870.715226 293.094161 1873.381974 M1172.094161 1732.381974 C1172.094161 1730.048722 1172.704268 1727.474015 1171.906172 1725.456437 C1171.235884 1723.761368 1168.357711 1721.255753 1167.431197 1721.615860 C1160.774703 1724.202775 1153.629195 1721.973282 1147.250167 1723.653458 C1136.850752 1726.392716 1126.241255 1725.419816 1115.817671 1727.184708 C1106.257247 1728.803605 1096.486251 1727.174698 1086.621871 1728.991349 C1074.202559 1731.278458 1061.261519 1730.787247 1048.539107 1731.346085 C1043.551070 1731.565079 1038.521651 1731.088273 1033.556563 1731.490860 C1030.522872 1731.736222 1027.103926 1732.351700 1024.663741 1733.996232 C1003.433272 1748.306046 980.145430 1755.577775 954.530928 1755.401017 C952.587569 1755.387833 950.532393 1755.284073 948.715499 1755.835831 C935.112471 1759.967423 921.638350 1764.544571 907.959395 1768.398087 C897.168868 1771.437638 885.030318 1772.625626 875.326094 1768.654435 C864.947798 1764.407364 855.074752 1763.494278 844.529341 1763.353409 C841.715132 1763.315812 838.905806 1762.927384 836.094161 1762.699845 C836.094161 1766.031632 835.898238 1769.380265 836.185103 1772.687150 C836.309737 1774.123673 837.513594 1775.440567 838.078536 1776.870255 C840.115157 1782.024552 842.147505 1787.182511 844.018355 1792.397843 C844.278853 1793.124161 843.895796 1794.506485 843.316085 1794.982560 C842.793624 1795.411026 841.375044 1795.333878 840.739424 1794.905167 C839.692916 1794.199112 838.534102 1793.168595 838.161788 1792.032853 C835.370772 1783.516251 832.270064 1775.047745 830.354781 1766.325577 C829.664473 1763.181778 828.737960 1760.894181 826.564131 1758.847794 C826.079268 1758.391251 825.619673 1757.907608 825.148482 1757.436417 C824.797042 1758.254044 824.011763 1759.162491 824.160689 1759.875626 C825.821944 1767.828263 827.125289 1775.905655 829.506514 1783.647110 C833.527877 1796.721573 838.382857 1809.427140 840.524581 1823.161759 C841.599776 1830.057511 843.179732 1838.078019 849.215010 1843.407364 C850.272261 1844.341202 851.916670 1844.610001 853.289839 1845.186173 C853.119429 1843.812882 853.334273 1842.229630 852.717818 1841.099747 C847.701827 1831.903946 847.045333 1821.457657 844.248091 1811.635636 C843.969893 1810.658585 845.838301 1809.070206 846.710494 1807.765519 C847.838423 1809.374894 849.939742 1810.989151 849.931197 1812.592423 C849.886519 1821.039200 853.239424 1828.447403 856.018599 1836.123185 C859.626876 1846.089005 862.219771 1848.740372 871.899214 1849.340958 C887.770186 1850.326554 903.257491 1847.907364 918.614669 1843.957657 C928.608077 1841.387101 938.744918 1839.301163 948.900435 1837.454728 C958.269454 1835.751603 967.774703 1834.810441 977.173873 1833.255509 C988.046919 1831.456681 998.833541 1829.113419 1009.727095 1827.465958 C1017.047286 1826.358780 1024.522505 1826.306290 1031.867598 1825.326066 C1045.391890 1823.521866 1058.817794 1820.367081 1072.383711 1819.651749 C1087.579390 1818.850968 1102.631392 1817.735489 1117.724654 1815.627823 C1130.944014 1813.782120 1144.465254 1814.158341 1157.839400 1813.332413 C1163.911666 1812.957657 1170.100264 1812.624405 1175.934127 1811.108780 C1178.389937 1810.470841 1181.104048 1807.111710 1181.830367 1804.474503 C1182.734053 1801.193253 1182.244307 1797.248185 1181.413497 1793.818009 C1177.828292 1779.015275 1173.425093 1764.392716 1170.373458 1749.488907 C1169.418257 1744.823624 1168.106368 1738.998673 1172.094161 1732.381974 z"/><path class="selected"  fill="#000000" opacity="1.000000" stroke="none" 
 	d="
M448.094161 79.381974 C428.466414 72.048661 409.764632 64.896683 391.233504 57.326859 C375.245284 50.795792 358.585433 45.565079 344.381697 35.306595 C339.905623 32.073746 335.865340 28.146256 332.062850 24.123429 C330.795333 22.782486 329.906294 19.641922 330.628768 18.250748 C331.416548 16.733719 334.208174 15.714982 336.242842 15.477616 C347.685042 14.142533 358.095503 18.042252 368.238753 22.598099 C377.238570 26.640336 386.080916 31.040604 394.905196 35.457657 C396.088301 36.049942 396.758162 37.667679 397.665633 38.810502 C396.096663 38.955887 394.316390 39.655900 392.994734 39.152237 C386.667647 36.740921 380.255355 34.406205 374.265486 31.290360 C364.578108 26.251175 354.362044 22.850785 343.843184 20.263932 C342.424361 19.914933 340.650679 21.008988 339.041304 21.434830 C339.588301 22.613297 339.928267 23.957047 340.715926 24.943375 C345.831648 31.349625 353.126082 35.043900 360.212874 38.186112 C375.119795 44.795487 390.543746 50.247025 405.798201 56.061661 C419.617903 61.329545 433.871627 65.635880 447.247664 71.844620 C463.036544 79.173417 479.804488 83.403336 495.945113 89.502274 C515.553023 96.911454 535.732466 102.897171 553.371871 115.158646 C563.976241 122.530045 576.087325 127.746415 587.569625 133.840287 C608.676558 145.042374 631.341963 149.834061 654.926802 147.140885 C675.102828 144.836991 694.794966 139.435196 714.469161 134.205765 C728.389327 130.505753 742.722457 128.380204 756.826583 125.344498 C766.583785 123.244462 776.169478 120.191727 786.000899 118.625016 C804.484786 115.679459 819.076583 104.912186 834.643843 95.938187 C842.665694 91.313858 851.125167 87.454056 859.319869 83.122208 C865.346358 79.936539 871.271529 76.559159 877.228438 73.242875 C887.793013 67.361649 898.344893 61.457291 908.910445 55.577958 C909.864669 55.047013 910.880782 54.627335 911.868209 54.156022 C910.917891 53.231400 909.987471 51.543900 909.013961 51.518631 C905.461470 51.426529 901.651412 51.164628 898.374312 52.265091 C882.014327 57.758744 865.517501 62.902237 850.266768 71.310685 C840.269087 76.822892 829.902510 81.667191 819.674117 86.756302 C818.886519 87.148148 817.884688 87.109025 816.982344 87.270157 C817.333052 86.327408 817.399825 84.986405 818.078047 84.503129 C825.260787 79.384293 832.556441 74.424088 839.791304 69.377396 C855.278731 58.574173 873.850875 55.004776 890.951949 48.050431 C896.957564 45.608231 904.746260 47.055863 911.667037 47.522538 C916.773482 47.866715 919.033248 53.682572 916.052046 58.035111 C911.369918 64.871232 903.773970 67.814530 896.861739 71.547440 C886.801070 76.980668 876.470503 81.918168 866.454146 87.428788 C851.504195 95.653580 836.943404 104.609208 821.806929 112.463761 C810.287032 118.441605 798.905562 124.751542 785.193404 125.664383 C775.633834 126.300675 766.245528 129.563370 756.789839 131.693558 C745.514083 134.233658 734.230147 136.741349 722.984053 139.407731 C715.114669 141.273575 707.193160 143.034012 699.488570 145.457291 C685.226119 149.943131 670.959273 153.795426 655.779219 153.510209 C649.737105 153.396622 643.681441 155.096329 637.608687 155.310807 C619.149214 155.962906 602.179976 150.814469 586.412154 141.384903 C568.782759 130.842057 551.221602 120.180924 533.449141 109.884842 C528.693038 107.129593 523.383711 105.189164 518.139571 103.441422 C499.677046 97.288468 481.100752 91.477494 462.641402 85.315323 C457.984419 83.760636 453.602461 81.381974 448.094161 79.381974 z"/></svg>