<?xml version="1.0" encoding="utf-8"?>
<!-- Generator: Adobe Illustrator 26.0.1, SVG Export Plug-In . SVG Version: 6.00 Build 0)  -->
<svg version="1.1" xmlns="http://www.w3.org/2000/svg" xmlns:xlink="http://www.w3.org/1999/xlink" x="0px" y="0px"
	 viewBox="0 0 1152.2 1152.2" style="enable-background:new 0 0 1152.2 1152.2;" xml:space="preserve">
<style type="text/css">
	.st0{display:none;}
	.st1{display:inline;}
</style>
<g id="Contours" class="st0">
	<path class="st1" d="M315.4,717.5c-4.9-7.2-10-13.7-12.2-21.8c-0.2-0.8-0.8-1.6-1.4-2.2c-0.5-0.5-1.2-0.9-1.9-1.3
		c-0.3,0.5-0.7,1-0.9,1.6c-0.1,0.4-0.1,0.9,0,1.4c2.6,10.2-0.4,20.5-0.3,30.7c0.1,10.3-2,20.6-4,30.8c-1.7,9.3-4.1,18.6-6.9,27.6
		c-3.5,11-6.3,22-8.3,33.3c-1.7,9.3-4.4,18.5-6.8,27.6c-2.7,10-5.6,19.9-8.3,29.8c-2.5,9.1-4.9,18.3-7.3,27.5
		c-3.1,11.4-6.2,22.9-9.3,34.2c-2.2,7.9-4.6,15.6-6.9,23.5c-3.2,10.9-6.3,21.9-9.8,32.7c-1.6,5.1-4.2,9.8-5.7,14.9
		c-1.7,5.6-2.7,11.4-3.9,17.1c-1.9,8.9-2.8,18.2-5.8,26.7c-2.7,7.6-8.7,13.5-15.9,17.3c-3.6,1.9-4.6,4.1-4.7,7.9
		c-0.2,8.1-0.6,16.3-1.4,24.4c-0.5,5.2-1.6,10.4-2.7,15.5c-0.9,4.2-4.3,6.4-8.8,6.5c-7.1,0.1-14.1-0.8-21-2.7c-1.1-0.3-2.3,0-3.5,0
		c-8.5,0-16.9-0.9-25.2-2.7c-1.5-0.3-3.2,0-4.8-0.1c-9-0.4-18.2-0.1-27.1-1.6c-6.8-1.2-13.5-0.6-20.3-1.1c-4.4-0.3-8.9-0.9-13.3-1.4
		c-4.4-0.4-9,1-13.3-1.3c-1.3-0.7-3.2-0.1-4.8-0.1c-6.7,0-13.1-1.4-19.7-2.6c-5.5-1.1-11.1-1.3-16.7-1.5c-6-0.2-11.9-0.7-17.6-2.7
		c-1-0.4-2.3-0.2-3.4-0.1c-7,0.6-13.5-2.3-20.3-3c-2.2-0.2-4.3-1-6.4-1.2c-7-0.6-14-0.8-20.9-1.6c-1.7-0.2-4-1.7-4.8-3.2
		c-1.6-3.2-3.6-6.3-3.3-10.5c0.3-4.1-1.7-8.6-1-12.5c1.6-9.1,0.9-18.1,1.2-27.2c0.1-2.3-0.5-4.1-1.9-6.2c-3.2-4.9-5.5-10.3-5.1-16.6
		c0.3-5.8-0.1-11.6,0.1-17.3c0.3-9.1,0.7-18.1,1.4-27.1c0.7-8.9,1.8-17.7,2.7-26.6c0.9-8.4,1.8-16.8,2.8-25.2
		c1.3-10.5,2.8-21,4.1-31.5c1.4-11.2,2.7-22.4,4.2-33.6c1.3-10.5,2.8-21,4.1-31.5c1-7.7,1.9-15.4,2.8-23.1c1.4-11.4,2.1-23,4.3-34.3
		c2.4-12.7,3.1-25.6,6.6-38.1c2.1-7.5,2.7-15.5,4.3-23.2c2.1-10.2,4.8-20.2,6.8-30.4c1.7-8.4,2.6-16.9,4.3-25.3
		c2.1-10.9,4.7-21.6,6.8-32.5c1.2-6.3,1.8-12.6,2.9-18.9c1.3-7.3,2.9-14.5,4.1-21.9c1.1-7.2,1.7-14.5,2.9-21.7
		c1-6.4,2.7-12.8,3.9-19.2c1.1-6,1.9-12.1,3-18.2c1.7-9.2,3.6-18.4,5.3-27.6c1.1-6.3,1.9-12.6,3-18.9c1.2-6.8,2.8-13.6,4.1-20.5
		c0.7-3.7,1-7.5,1.4-11.2c1-8.6,1.7-17.3,2.8-25.9c1.7-12.2,3.4-24.4,5.6-36.5c1.9-10.7,4.7-21.2,6.8-31.8c0.9-4.3,1.3-8.8,1.4-13.3
		c0.2-5.8,1.1-11.3,2.7-16.9c1.1-3.8,1.2-7.9,1.5-11.9c0.5-9.3,2.3-18.3,4.1-27.4c0.9-4.3,0.8-8.9,1.5-13.3
		c1.8-10.8,3.2-21.7,6-32.2c2.9-11.1,5.7-22.2,8.2-33.4c1.8-7.8,1.5-15.5,2.7-23.1c1.2-7.7,0.8-15.4,1.2-23
		c0.3-5.5,4.4-10.2,10-10.9c2.2-0.3,2.9-1,2.5-2.9c-0.8-3.8,1-7,2.9-9.9c6-9.5,10.8-19.4,13.9-30.3c2.4-8.4,5.7-16.6,8.2-25
		c2.6-8.7,4.8-17.4,7-26.2c3.3-13.6,6.3-27.4,9.8-41c1.7-6.6,6.3-9.6,12.8-10.4c12.6-1.5,24.6,1.2,36.7,4.1c8.5,2.1,17.3,2.7,26,4.3
		c8.5,1.6,16.9,3.9,25.4,5.4c7.6,1.3,15.5,1.4,23.1,3c7.5,1.5,15.3,0.8,22.6,3.9c2.9,1.2,6.5,1,9.8,1.5c5.6,0.9,11.2,2.4,16.9,2.6
		c5.5,0.1,11.1-0.9,16.5-1.8c5.6-1,11-1.5,16.3,0.8c1.3,0.6,3.5,1.3,4.1,0.8c5.4-4.7,11-1.1,16.5-0.8c1.9,0.1,3.8,1.2,5.7,1.2
		c51.1,0.1,102.1,0.1,153.2-0.1c5.2,0,10.4-1.7,15.6-2.5c4.2-0.6,8.3-1.2,12.5-1.5c7.2-0.6,14.4-1.2,21.6-1.4
		c10.3-0.2,14.7,3.2,18.3,13.4c3.7,10.6,6,21.6,8.3,32.7c2.1,10.3,1.7,20.5,2.7,30.8c0.7,7,0.3,14,1.3,20.9c1.6,10.9,2.5,22,8.1,32
		c2.3,4.1,3.7,8.6,5.6,12.9c0.4,1,1,2.3,1.9,2.6c7.2,2.6,6.4,9.3,7.7,14.8c1.8,7.9,3,15.9,4.2,23.9c0.7,4.2,0.8,8.4,1.5,12.6
		c1.3,8.5,3.6,16.8,3.9,25.3c0.2,7.7,2.5,14.9,3.2,22.4c0.6,5.9,3.1,11.6,4.4,17.5c1.9,8.3,3.5,16.6,5.1,24.9
		c1.1,5.6,2.1,11.1,3.3,16.7c1.2,5.7,2.7,11.4,3.6,17.2c1.6,10.5,2.7,21,4.3,31.5c1.6,10.6,3.2,21.2,5.7,31.6
		c1,4.1,0.4,8.1,1.3,11.9c1.6,6.7,0.6,13.7,2.5,20.4c1.3,4.9,0.9,10.2,1.6,15.3c0.7,5.4,2,10.8,2.7,16.2c0.5,4.4,0.3,8.8,1.2,13.3
		c1.4,7,0.7,14.4,1.7,21.5c1.8,12.3,0.2,24.7,1.6,36.8c1.1,9.4,1.2,18.9,3.8,28.1c0.4,1.3,0.1,2.8,0,4.1c0,6,0.9,11.8,2.6,17.6
		c1.2,4,1.1,8.4,1.5,12.6c0.9,8.2,1.6,16.4,2.8,24.5c1.6,10.1,3.9,20.2,5.4,30.3c1.5,10.2,3.2,20.3,5.5,30.3
		c1.1,5,0.9,10.2,1.5,15.3c0.7,5.4,1.9,10.8,2.7,16.2c0.6,3.7,0.9,7.5,1.4,11.2c1.3,8.9,3,17.8,4.1,26.7c1.7,13.4,5,26.5,8.2,39.5
		c2.1,8.5,2.8,17.3,4.3,26c1.7,9.4,3.8,18.8,5.5,28.2c1.2,6.5,1.4,13.2,2.9,19.6c1.7,7.2,1.7,14.7,3.9,21.9c1.2,4,1.1,8.4,1.5,12.6
		c1,9.9,2.4,19.7,4.1,29.5c0.8,4.6,0.8,9.3,1.5,14c1.1,7.6,2.6,15.1,3.9,22.6c0.7,4.1,1.3,8.3,1.6,12.5c0.6,7.2,0.3,14.5,1.6,21.6
		c2.5,14.6,0.5,29.2,1.3,43.8c0.2,3.1-0.5,5.9-2.6,7.9c-2.1,2-1.9,4.2-1.5,6.3c1.2,7.1,3.1,14.1,4,21.2c1,8.1,1,16.2,1.5,24.4
		c0.2,3.8-1.9,6.3-5,7.4c-8,2.6-16,4.9-24.1,7c-6.1,1.6-12.3,2.7-18.5,4c-3.2,0.6-6.5,1.3-9.7,1.6c-6.3,0.6-12.6,0.8-18.8,1.5
		c-6.6,0.7-13.1,1.9-19.7,2.7c-5.1,0.6-10.2,0.9-15.4,1.4c-8.5,0.9-17.1,1.5-25.3,4.1c-0.4,0.1-0.9,0.1-1.4,0.1
		c-11.4-0.1-22.5,2.3-33.6,4.1c-4.6,0.8-9.3,1.1-14,1.4c-7.7,0.5-15.6-0.1-22.9,1.7c-6.8,1.7-13.8-0.4-20.5,2.3
		c-2.4,1-5.5-0.2-8.2,0.2c-8.5,1.2-16.9,2.6-25.4,3.9c-3.7,0.6-7.4,1.6-11.1,1.4c-3.3-0.1-5.9-2.2-7.8-5.3c-3.3-5.3-4-11.4-5.4-17.2
		c-1.7-7.3-2.8-14.8-3.2-22.4c-0.3-5.8-0.8-11.6-1.2-17.5c-0.1-1.4-1-2.9-2-4c-8.1-9.2-12.4-20.1-14.7-32.1
		c-2.3-11.6-0.4-23.2-1.3-34.8c-0.6-6.8-1.5-13.6-2.8-20.3c-1.5-8.1-3.6-16-5.5-24.1c-4.2-18.3-8.4-36.5-13.6-54.6
		c-4.5-15.9-9.3-31.7-14.2-47.5c-3.3-10.6-8.1-20.8-10.8-31.5c-2.8-11.3-6.7-22.2-11.2-32.8c-5.4-12.6-11.4-24.9-17.6-37.1
		c-8.8-17.4-17.9-34.6-26.9-51.9C315.6,718.8,315.7,718.3,315.4,717.5 M234.6,226.4c-0.5-0.5-1-1.1-1.6-1.4
		c-14.9-7-29.9-13.8-44.7-20.9c-8.3-4-16.3-8.5-24.7-12.4c-11.1-5.1-22.5-9.3-33.5-14.5c-11.8-5.6-23.1-12.2-34.9-17.9
		c-6.1-3-12.2-6.4-19.3-7c-3.8-0.3-6.5,1.2-7.1,4.9c-1,6.5-2.5,13.1-2.7,19.6c-0.3,10-2.3,19.7-4.3,29.5c-2.9,14.4-7.2,28.5-10.2,43
		c-1.8,8.5-3.2,17.1-4.9,25.6c-1.5,7.6-1.8,15.4-2.9,23.1c-1.6,10.6-3.9,21.1-5.4,31.7c-1.7,11.2-2.7,22.4-4.3,33.6c-1,7-2,14-3,21
		c-1.4,10.1-4.5,20-5.4,30.3c-0.8,9.4-2.7,18.7-4,28.1c-0.6,3.9-0.8,7.9-1.5,11.9c-1.2,6.2-2.8,12.3-4,18.4
		c-1.1,5.8-2.1,11.7-3.1,17.5c-1.6,9.2-4.1,18.2-5.3,27.5c-0.5,4.1-1.5,8.1-2.3,12.2c-1.1,6-2.2,12-3.2,18.1
		c-0.7,3.9-1,7.9-1.7,11.8c-1.2,7.3-2.7,14.6-3.8,22c-1.1,7.2-0.9,14.8-3,21.6c-3.4,10.7-4.1,21.8-6.6,32.6c-2,9-2.7,18.3-4.3,27.3
		c-1.6,9-3.7,17.9-5.5,26.8c-1.1,5.8-1.7,11.7-2.8,17.5c-1.2,6.4-3,12.7-4.1,19.1c-1.2,7-1.7,14.1-2.9,21c-1.6,9-4,17.8-5.4,26.8
		c-1.4,9-1.9,18.2-2.9,27.2c-0.4,3.7-0.4,7.6-1.5,11.2c-2.5,7.8-2.2,16-3.9,24c-1.1,5-0.3,10.4-1.7,15.3c-1.3,4.5,0,9.2-1.4,13.3
		c-1.9,6.1-1.1,12.3-2.4,18.4c-1.3,6.3-0.9,13-1.6,19.5c-1.1,9.4-2.8,18.7-4.1,28.1c-1.1,8.1-1.3,16.4-3,24.4
		c-0.9,4.5,0,9.2-1.4,13.2c-1.5,4.4-0.6,8.5-1.1,12.7c-0.5,4.2-1.2,8.4-1.3,12.6c-0.2,9,0.1,18-0.1,27c-0.1,5.3,1.8,9.4,5.2,13.1
		c3.5,3.8,8.7,3.2,12.7,3c9.7-0.3,19.5-1.1,29-3.2c2.5-0.6,3.8-1,4.5-3.8c1.1-4.1,3.3-7.9,4.9-11.8c2.6-6.3,5.3-12.6,7.8-18.9
		c1.9-5,3.6-10.1,5.5-15.1c0.3-0.7,1.3-1.1,1.9-1.6c0.2,0.6,0.4,1.2,0.5,1.9c0.1,1.1,0.3,2.4,0,3.5c-2.5,8.9-5,17.8-7.8,26.6
		c-2.1,6.5-4.6,12.9-6.8,19.4c-1.3,3.7,0,7.6,2.6,8.2c5.1,1,10.3,2.1,15.5,2.8c8.1,1.1,16.4,1.3,24.5,3c11.6,2.4,23.2,4.3,35,4
		c7.8-0.2,15.7-0.5,23.6,0.1c10.2,0.8,17.8-5.7,20.3-15c3.2-11.7,0.3-23.2-0.6-34.7c-0.4-5-1.5-10-2.2-15c-0.1-0.6,0.8-1.3,1.2-1.9
		c0.5,0.6,1.2,1,1.5,1.7c1.1,2.5,2.2,5.1,3.2,7.7c5.7,15.4,8.9,27.7,3.9,45.3c-0.7,2.5,1.4,9.4,3.4,10.3c5.2,2.5,10.4,5,15.8,7
		c14.9,5.5,30.5,6.9,46.3,7c4.8,0,8.3-2.1,11.9-4.7c8.2-5.9,10.8-14.8,12.6-23.9c2.3-11.9,4.5-23.8,8.3-35.4
		c3.3-10.2,5.4-20.8,8.6-31.1c5.7-18.6,12.3-37,17.7-55.7c4.8-16.8,7.7-34.2,12.9-50.8c4.4-14.1,7-28.5,10.9-42.6
		c2.6-9.8,4.6-19.7,7.8-29.3c4.5-13.5,8.8-27.2,10.2-41.5c0.3-3.7,0.3-7.7,1.5-11.2c2-5.8,1.8-11.8,2.5-17.6
		c1.2-10.6,0.1-21.3,1.2-32c1.2-11.3,2.3-22.5,4.4-33.6c2.4-12.7,5.8-25.2,9.7-37.6c2.1-6.8,3.9-13.7,5.6-20.5
		c2.7-11,5.3-21.9,7.1-33.1c1.7-10.3,4.2-20.3,4-30.9c-0.2-9.5-0.1-18.9,0-28.4c0-1.4,0.5-3.9,1.1-4c2.9-0.3,1.2,2.1,1.7,3.4
		c0.5,1.4,1.2,2.8,1.3,4.3c0.6,8.6,1.2,17.2,1.3,25.8c0.1,4.2-0.9,8.4-1.3,12.6c-0.4,4.7-0.1,9.3-1.2,14
		c-2.9,12.3-4.7,24.9-7.2,37.3c-2.4,12-5.7,23.9-9.7,35.5c-4.5,13.3-5.9,27.1-2.5,40.6c2.6,10.5,6.6,20.8,11,30.7
		c4.4,9.8,10.2,18.9,15.5,28.2c5.3,9.4,11,18.5,16.2,28c9.1,16.6,15.1,34.4,20.9,52.3c7.2,22.6,15,45.1,22.1,67.8
		c4.1,13.1,7.5,26.5,11.2,39.7c2.8,9.9,5.7,19.8,8.3,29.8c1.7,6.7,2.9,13.6,4.2,20.4c1.2,6.2,2.2,12.5,3.5,18.7
		c2.2,10.1,4.9,20.1,4.9,30.6c-0.1,12.2-0.5,24.3,2.7,36.3c2.3,8.5,6.5,15.9,11.5,22.9c0.5,0.6,1.3,1,1.9,1.5
		c0.1-0.9,0.4-1.7,0.4-2.6c0.1-3,0-6,0-9c0-0.6,0.3-1.2,0.5-1.9c0.7,0.5,1.7,1,1.9,1.7c1.2,3.5,1.9,7,3.2,10.5c1,2.9,2.2,6.1,5.4,7
		c3.2,0.9,6.5,1.4,9.8,1.4c5.6-0.1,11.2-0.9,16.8-1.3c8.4-0.5,16.7-0.9,25.1-1.4c4.7-0.3,9.3-0.7,14-1.4c8.9-1.3,17.8-3.4,26.7-3.9
		c6.9-0.4,13.6-1.6,20.3-3c4.7-1,6.2-3.6,4.6-8.3c-1.8-5.2-4-10.4-5.8-15.6c-4.8-13.3-7-27-6-41.2c0-0.7-0.2-1.5,0.1-2
		c0.4-0.8,1.2-1.4,1.8-2c0.3,0.7,0.5,1.4,0.9,2c3.5,6.4,2.5,13.7,4,20.5c2,9.1,4.1,18.1,7.3,26.8c1.6,4.4,4,8.6,5.1,13.1
		c1.2,5,2.7,7,7.9,6.7c4.9-0.2,10.1-0.1,14.6-1.6c3.9-1.3,7.6-0.7,11.3-1.1c3.7-0.4,7.5-1,11.2-1.4c4.7-0.5,9.4-0.5,14-1.5
		c9.5-2,18.9-4.6,28.3-6.8c8-1.9,16.1-3.5,24-5.7c2.9-0.8,5.8-2.4,8-4.3c4.3-3.8,3.7-8.9,2-13.6c-5.2-14.2-10.7-28.4-16.1-42.5
		c-0.4-1-0.9-2-1-3c-0.1-0.8,0.2-1.7,0.4-2.6c0.7,0.5,1.5,0.8,1.9,1.4c2.2,3.5,4.3,7,6.4,10.5c2.6,4.4,5.9,8.7,7.7,13.4
		c3.7,9.6,6.6,19.4,9.9,29.2c0.5,1.6,0.8,3.2,1.2,4.8c2.8-1.1,6.1-1.6,8.2-3.5c1.4-1.3,1.7-4.4,1.7-6.8c0.1-14.9,0.1-29.8-2.5-44.6
		c-1.3-7.5-2.5-15.1-4.3-22.5c-1.3-5.5-2-11.2-2.8-16.9c-0.6-4.6-0.5-9.4-1.5-13.9c-1.8-7.6-1.8-15.4-2.6-23.1
		c-0.7-6-0.7-12.1-1.5-18.1c-1.1-8.5-2.8-16.9-4.1-25.3c-1-6.5-1.3-13.2-2.9-19.6c-1.9-7.7-3.4-15.4-4-23.3c-0.3-4-0.7-8-1.5-11.9
		c-1.7-8.5-3.6-17-5.4-25.5c-1.6-7.4-2.9-14.9-4.9-22.2c-3-10.8-4.6-21.8-6.1-32.8c-1.1-8.1-1.7-16.3-2.9-24.5
		c-1.1-8-2.7-16-4.1-23.9c-0.8-4.5-1.7-9-2.5-13.5c-1.5-9.5-3-19.1-4.5-28.6c-1-6.8-1.2-13.7-3.1-20.2c-2.9-10-3.3-20.3-5.2-30.4
		c-1.4-7.6-1.6-15.4-2.9-23.1c-1.7-9.8-4-19.4-4.2-29.5c-0.1-5.4,0-11-1.5-16c-2.2-7-1.6-14.2-2.1-21.1c-1.1-14.6-0.8-29.3-3.1-43.9
		c-1.2-7.8-1.1-15.8-1.5-23.7c-0.1-1.2,0.4-2.5-0.1-3.4c-2.4-5.2-1.5-10.8-2.6-16.2c-1.5-7.8-1.9-15.9-3-23.8
		c-1.2-8.5-2.8-16.9-4.1-25.3c-0.7-4.9-0.7-9.8-1.5-14.7c-1.1-6.9-2.9-13.6-4-20.5c-1.2-7-1.3-14.2-3-21c-3-12.2-5.4-24.6-8.5-36.7
		c-3.5-13.3-5.4-26.9-7.8-40.3c-2.1-11.5-2.9-23.3-4.3-35c-1.3-10.5-2.7-21-4.2-31.5c-0.3-2.5-1.1-4.4-4.4-2.6
		c-2,1.1-4.5,1.7-6.8,1.9c-9.6,1.1-18.4,4.6-26.6,9.5c-4.3,2.6-8,6.2-12.4,8.5c-15.4,7.8-30.8,15.8-46.7,22.6
		c-16.5,7-33.5,12.9-50.3,19c-12.9,4.7-25.8,9.2-38.8,13.4c-8.8,2.8-17.8,5-26.7,7.4c-5.6,1.5-11.3,3-17,4.1
		c-5.8,1.2-11.7,2.4-17.6,2.6c-3.4,0.1-4,2.2-4.8,4.2c-0.6,1.6-0.1,3.6-0.1,5.5c-0.9,37.9,1.8,75.9-1.4,113.8
		c-0.5,6.5-0.8,13-1.5,19.5c-0.1,1.4-1.2,2.7-1.9,4.1c-0.7-1.2-1.8-2.4-2.1-3.7c-0.4-1.5-0.1-3.2-0.1-4.8
		c0.1-11.6,0.7-23.2,1.1-34.8c0.9-24,0.1-48,0.3-72.1c0.1-8.8,0.9-17.6,1.3-26.5c0-0.5-0.2-1.1,0-1.4c3.1-3.8,0.3-4.2-2.6-5.1
		c-7.7-2.4-15.7-3.1-23.4-5.2c-18.5-5.1-36-12.4-53.5-19.8c-4.5-1.9-8.9-4.2-13.7-5.5C241.7,229.6,238.9,227.8,234.6,226.4
		 M441.2,230.6c8.1-3.2,16.2-6.8,24.4-9.6c20.6-7.2,40.5-16,59.7-26.4c17.2-9.3,34.1-19.1,51.2-28.5c6.6-3.7,7.5-5.6,3.7-12.5
		c-5.3-9.6-7.2-20.3-9.2-30.8c-2.1-10.7-2.2-21.8-3-32.7c-0.5-6.7-0.5-13.5-1.1-20.2c-1-11.2-4.2-22-5.9-33
		c-0.6-4.1-5.9-9.9-8.9-9.8c-10.2,0.3-20.4,0.5-30.6,1.5c-7.3,0.7-14.5,3.4-21.9,3.8c-15.5,0.8-31,0.8-46.5,1.2
		c-29.1,0.7-58.3,1.6-87.4-1c-7.6-0.7-15.3-0.9-23-1.5c-0.8-0.1-1.6-0.9-2.4-0.9c-6-0.3-12.4-4.7-18,1.7c-1,1.1-4,2.2-4-1.7
		c0-0.6-0.8-1.7-1.3-1.7c-3.9-0.1-8-0.7-11.7,0.1c-5.6,1.2-11.1,2.8-16.9,2.6c-7.7-0.3-15.3,0.6-23-1.2c-6.4-1.5-13.2-1.5-19.6-3
		c-7-1.7-14.1-2.9-21.2-4c-6-1-12.1-2-18.1-3.1c-9.2-1.7-18.4-3.5-27.6-5.2c-3.9-0.7-7.7-1.4-11.6-2.1c-6-1.1-12-2.3-18-3.4
		c-3.7-0.7-7.5-0.8-10.9-2.1c-5.1-1.9-9.6,0.3-14,1.6c-4.1,1.2-5.8,5.6-7.1,9.9c-2.5,8.8-3.4,18-5.7,26.8
		c-5.4,21.4-11.4,42.8-18,63.9c-2.9,9.3-5.4,19-11.3,27.2c-3.2,4.4-3.1,6.1,1.3,8.5c6,3.3,12.3,5.9,18.4,9
		c12.4,6.2,24.7,12.8,37.3,18.8c19.5,9.3,39.2,18.1,58.7,27.3c15.4,7.3,30.5,15.5,46.5,21.5c8,3,15.8,6.4,23.8,9.4
		c11.6,4.4,23.1,8.8,34.8,13c11.1,4,22.2,8,34.2,7.8c1.4,0,3.1-0.5,4.1,0.2c3.6,2.5,7.7,1.4,11.3,1c8.9-0.9,17.8-2.4,26.7-4.1
		c5.5-1,10.9-2.7,16.3-4.1c7.3-1.9,14.8-3.3,21.9-5.7C425,236.3,433,235,441.2,230.6 M453.7,1095.5c-6.6-2.9-7.1-2.3-7.7,4
		c-1.3,12.3,2.6,23.8,4.5,35.6c0.9,5.5,3.6,7.8,7.6,7.5c4.4-0.3,9-0.4,13.3-1.4c10.6-2.5,21.3-4.1,32.2-4.1c2.5,0,5.4,0.7,7.6-0.1
		c6.4-2.5,13.2-1,19.7-2.4c8.1-1.7,16.6-1.2,25-1.7c0.5,0,1,0.1,1.4,0c6.8-2.7,14.1-1.1,21.1-2.6c7.8-1.6,15.9-1.8,23.7-3
		c9.4-1.5,18.8-3.6,28.2-5.4c8.1-1.6,16.4-1,24.5-2.7c10.1-2.1,20.6-2.1,30.9-4c10.2-2,20.3-4.5,30.2-7.4c3.1-0.9,4.7-3,4.8-6.9
		c0.3-10.6-1.5-21-3-31.4c-0.4-2.7-1.1-5.8-2.8-7.7c-2.7-3-9.9-2.6-13.5-0.4c-2.6,1.5-5.3,2.9-8.1,3.7c-9.6,2.5-19.6,3.9-28.8,7.3
		c-13.6,5.1-27.8,6.9-41.9,9.2c-9.8,1.6-19.9,1-29.9,1.6c-8.4,0.5-16.8-0.8-25.3,2.4c-8.1,3-17.2,3.2-25.9,4.5
		c-3.9,0.6-8,0.6-11.9,1.5c-12.4,2.9-25,4.1-37.8,4.1C479.5,1095.5,467.3,1095.5,453.7,1095.5 M-57.1,1044.9c-0.3,0.3-0.9,0.6-0.9,1
		c-0.9,13.9-1,27.7,1.1,41.5c0.2,1.5,2.5,3.5,4.2,3.8c4.3,0.9,8.8,1.1,13.2,1.5c4.9,0.5,10,0.1,14.6,1.5c13.1,4,26.8,4.4,40.1,6.7
		c7.6,1.3,15.5,1.5,23,3c9.5,1.9,19,2.9,28.6,2.7c1.6,0,3.3-0.3,4.8,0c9.2,1.7,18.5,2.8,27.9,2.7c4.6,0,9.4-0.7,13.8,0.2
		c7.7,1.6,15.4,1.7,23.1,2.6c4.4,0.5,8.8,0.4,13.3,1.1c8.7,1.4,17.6,1.3,26.4,1.6c5.6,0.2,6.7-0.9,7.8-6.7c1-5.4,2-10.7,2.7-16.2
		c0.7-5.3,1-10.7,1.4-16c0.1-1.3,0.4-2.6-1.9-2.7c-5.8-0.3-11.6-0.9-17.4-1.3c-0.9-0.1-1.9,0.1-2.8,0c-7.5-1.3-15.1-2.5-22.5-4.2
		c-9.5-2.2-19.3-3.9-26.2-11.9c-2-2.3-3.6-2.5-6.3-0.7c-2.4,1.6-5.5,2.5-8.5,2.8c-8.1,0.8-16.2,1.4-24.3,1.4c-8.3,0-16.7-0.6-25-1.4
		c-5.4-0.5-10.8-1.9-16.2-2.7c-4.6-0.6-9.4-0.4-13.9-1.6c-6.3-1.6-12.6-2.2-19-2.5c-6.7-0.3-12.7-1.5-17.3-6.7
		c-0.8-0.9-1.4-0.9-2.9-0.7c-9.9,1-19.9,1.4-29.8,1.7C-49.4,1045.6-52.9,1044.7-57.1,1044.9z"/>
	<path class="st1" d="M584.1,446.5c-1,0-2.4-0.5-2.3-0.7c0.5-4.4-1.3-9,1-13.4c0.7-1.2,0-3.2,0.4-4.7c0.2-0.7,1.4-1.6,2.1-1.5
		c0.7,0,1.9,1.2,1.9,1.8c-0.6,5-1.4,10-2.2,14.9C584.8,444,584.6,445,584.1,446.5z"/>
	<path class="st1" d="M145.7,16.8c10.3,6.9,21.8,9.9,32.7,14.1c16.3,6.3,33.1,11.2,49.5,17.7c12.7,5,25.2,10.4,38.1,15.1
		c12.8,4.7,24.6,11.4,35.4,19.9c6.1,4.8,13,8.5,20,11.9c2.4,1.1,2.8,0.5,2.8-1.7c0-3-0.1-6,0-9c0-0.4,0.8-1.1,1.2-1.1
		c0.5,0,1.3,0.5,1.4,0.9c0.6,3.3,1.2,6.5,1.4,9.8c0.1,2.7,0.8,4,3.8,4.5c8.1,1.6,16,4.4,24.1,5.2c7.3,0.7,14.7,0.7,22.1-1.6
		c18.9-5.9,37.7-11.8,57-16.5c12.3-3,24.2-8.2,35.4-14.7c8.2-4.8,18.1-6.8,26.2-11.8c11.4-6.9,23.9-10.4,36.2-14.8
		c5.6-2,11-4.6,16.5-7c0.3-0.1,0.6-0.8,0.6-1.1c-0.1-0.6-0.6-1.5-0.9-1.5c-2.1-0.1-4.3-0.5-6.2,0c-12.8,3.2-26,4.5-38.3,9.6
		c-0.8,0.3-2.8-0.2-2.9-0.8c-0.7-2.1,1.3-1.5,2.4-2c10.4-4.8,21.4-7.6,32.4-10.5c4.2-1.1,8.7-1.4,13.1-1.9c3.1-0.3,6.4,1,7.2,3.6
		c0.8,2.8-1,5.4-3.9,7.5c-7.3,5.3-15.8,7.9-24.1,10.4c-12.4,3.8-23.7,9.8-35.5,14.9c-17,7.4-32.8,17.6-51.1,22.2
		c-9.4,2.4-18.6,5.2-27.9,7.8c-10.1,2.9-20.2,5.8-30.3,8.8c-9.3,2.7-18.5,6.1-28.4,5c-11-1.3-21.7-2.5-32.2-7.7
		c-9.2-4.6-18.1-9.7-27.2-14.5c-5.2-2.8-9.9-6.4-14.6-9.9c-12-8.7-25.7-13.6-39.2-19.1c-11.1-4.5-22.4-8.5-33.6-12.5
		c-9.2-3.3-18.6-6.3-27.8-9.8c-12.6-4.7-25.6-8.6-36.8-16.6c-1.1-0.8-2.6-1.3-3.1-2.3c-0.8-1.5-1.6-3.6-1.1-4.9
		c0.5-1.2,2.7-2.2,4.2-2.4c4.9-0.6,9.5,1.2,14.1,2.7c11.4,3.7,22.8,7.4,34.2,11.1c2.8,0.9,5.5,2.3,8.3,3.4c-3.1,1.9-5.9,0.2-8.8-0.6
		c-11.6-3.3-23.2-6.4-34.8-9.8c-4-1.1-7.6-3.9-12-2.7C142.6,15.1,145.4,15.7,145.7,16.8z"/>
	<path class="st1" d="M566.1,65.3c-0.7,0-1.2-0.3-1.3-0.6c-1-8.2-4.4-16.2-1.1-24.6c0.3-0.8,1.2-1.3,1.9-2c0.3,0.9,0.8,1.8,0.8,2.7
		C566.5,48.9,566.4,56.9,566.1,65.3z"/>
</g>
<g id="body">
	<path d="M692.1,989.4c0.6-1.3,1.1-2.6,1.5-4c3.1-9.5,5.9-19.1,8.8-28.6c2.1-6.8,4.3-13.7,6.3-20.6c2.9-10,5.7-20,8.5-30
		c2.2-8,4.4-16,6.6-24c2.5-8.7,5.1-17.4,7.5-26.1c2.2-8,4.6-16,6.2-24.2c1.9-9.9,4.4-19.6,7.5-29.2c2.6-7.9,4.7-16,6.3-24.2
		c1.7-8.9,3.6-18,3.6-27c-0.1-9,2.7-17.9,0.3-26.9c-0.1-0.4-0.1-0.8,0-1.2c0.2-0.5,0.5-0.9,0.8-1.4c0.6,0.4,1.2,0.7,1.7,1.2
		c0.5,0.6,1.1,1.2,1.2,1.9c2,7.1,6.6,12.8,11,19.1c0.3,0.7,0.2,1.2,0.3,1.5c8.1,15.2,16.4,30.2,24.3,45.5
		c5.6,10.7,11.1,21.5,15.9,32.5c4.1,9.3,7.6,18.8,10.1,28.7c2.4,9.4,6.8,18.3,9.8,27.6c4.5,13.8,8.8,27.7,12.9,41.6
		c4.7,15.8,8.5,31.8,12.3,47.8c1.7,7,3.6,14,5,21.1c1.2,5.9,2,11.8,2.5,17.8c0.9,10.1-0.9,20.3,1.2,30.5c2.1,10.5,6,20,13.3,28.1
		c0.9,1,1.7,2.3,1.8,3.5c0.3,5.1,0.7,10.2,1,15.3c0.4,6.7,1.3,13.2,2.9,19.6c1.2,5.1,1.9,10.4,4.9,15c1.7,2.7,4.1,4.5,7.1,4.6
		c3.3,0.1,6.7-0.8,10.1-1.3c7.7-1.1,15.3-2.4,23-3.4c2.5-0.3,5.3,0.7,7.5-0.2c6-2.4,12.4-0.6,18.5-2c6.6-1.6,13.8-1,20.7-1.5
		c4.2-0.3,8.5-0.6,12.7-1.2c10.1-1.6,20.1-3.7,30.5-3.6c0.4,0,0.9,0.1,1.2,0c7.5-2.3,15.2-2.8,22.9-3.6c4.6-0.5,9.3-0.7,13.9-1.3
		c5.9-0.7,11.8-1.7,17.8-2.4c5.7-0.6,11.4-0.8,17-1.3c3-0.3,5.9-0.8,8.8-1.4c5.6-1.1,11.2-2.1,16.7-3.5c7.3-1.8,14.6-3.8,21.9-6.1
		c2.9-0.9,4.8-3.1,4.5-6.4c-0.5-7.1-0.5-14.3-1.4-21.3c-0.8-6.2-2.5-12.3-3.6-18.5c-0.3-1.8-0.5-3.8,1.4-5.5
		c1.9-1.8,2.5-4.2,2.4-6.9c-0.8-12.8,1.1-25.6-1.2-38.4c-1.1-6.2-0.9-12.6-1.4-18.9c-0.3-3.7-0.8-7.3-1.4-10.9
		c-1.1-6.6-2.5-13.2-3.5-19.8c-0.6-4-0.6-8.2-1.3-12.2c-1.5-8.6-2.8-17.2-3.7-25.8c-0.4-3.7-0.3-7.5-1.4-11c-2-6.3-2-12.8-3.5-19.2
		c-1.4-5.6-1.6-11.5-2.7-17.2c-1.5-8.3-3.4-16.4-4.9-24.7c-1.4-7.6-2-15.3-3.9-22.7c-3-11.5-5.9-22.9-7.4-34.6
		c-1-7.8-2.5-15.6-3.7-23.4c-0.5-3.3-0.8-6.6-1.3-9.8c-0.8-4.7-1.8-9.4-2.4-14.2c-0.6-4.5-0.4-9.1-1.4-13.4
		c-2.1-8.8-3.6-17.6-5-26.5c-1.3-8.9-3.5-17.7-4.9-26.5c-1.1-7.1-1.7-14.3-2.6-21.4c-0.4-3.7-0.3-7.5-1.4-11
		c-1.6-5.1-2.4-10.2-2.4-15.4c0-1.2,0.3-2.5,0-3.6c-2.4-8-2.5-16.4-3.5-24.6c-1.2-10.7,0.3-21.5-1.4-32.3c-1-6.2-0.3-12.7-1.6-18.9
		c-0.8-3.9-0.6-7.8-1.1-11.7c-0.6-4.8-1.8-9.4-2.4-14.2c-0.6-4.5-0.2-9.1-1.5-13.4c-1.7-5.9-0.9-12-2.3-17.9
		c-0.8-3.4-0.2-6.9-1.1-10.4c-2.3-9.1-3.7-18.4-5.2-27.7c-1.5-9.2-2.4-18.4-3.9-27.6c-0.8-5.1-2.2-10-3.3-15.1
		c-1-4.9-1.9-9.7-3-14.6c-1.5-7.3-3-14.6-4.6-21.8c-1.2-5.1-3.5-10.2-4-15.3c-0.6-6.6-2.7-12.9-2.9-19.6c-0.2-7.4-2.3-14.8-3.5-22.2
		c-0.6-3.7-0.7-7.4-1.3-11c-1.1-7-2.2-14-3.8-20.9c-1.1-4.8-0.5-10.7-7-12.9c-0.8-0.3-1.3-1.4-1.7-2.3c-1.7-3.8-3-7.7-5.1-11.3
		c-5-8.7-5.9-18.5-7.3-28c-0.9-6-0.5-12.2-1.2-18.3c-1-8.9-0.5-17.9-2.5-26.9c-2.1-9.7-4.2-19.3-7.5-28.6
		c-3.2-8.9-7.2-11.9-16.6-11.7c-6.5,0.1-13,0.7-19.6,1.2c-3.8,0.3-7.6,0.8-11.3,1.3c-4.7,0.7-9.4,2.1-14.1,2.2
		c-46.2,0.2-92.5,0.1-138.7,0.1c-1.7,0-3.4-1-5.2-1c-5-0.2-10.1-3.4-14.9,0.7c-0.6,0.5-2.6-0.2-3.7-0.7c-4.9-2.1-9.8-1.6-14.8-0.7
		c-4.9,0.9-10,1.7-14.9,1.6c-5.1-0.1-10.2-1.5-15.3-2.3c-3-0.5-6.2-0.3-8.8-1.3c-6.6-2.7-13.7-2.1-20.5-3.4
		c-6.9-1.4-14-1.5-20.9-2.6c-7.7-1.3-15.3-3.3-23-4.7c-7.8-1.4-15.8-2-23.5-3.8c-11-2.6-21.8-4.9-33.2-3.6
		c-5.9,0.7-10.1,3.3-11.6,9.1c-3.1,11.9-5.8,24-8.9,35.9c-1.9,7.7-4,15.4-6.3,23c-2.3,7.4-5.3,14.5-7.4,21.9
		c-2.8,9.5-7.1,18.2-12.6,26.5c-1.6,2.5-3.3,5.3-2.6,8.7c0.4,1.7-0.2,2.3-2.2,2.5c-5,0.6-8.8,4.7-9,9.5c-0.3,6.7,0,13.4-1.1,20.2
		c-1.1,6.7-0.8,13.4-2.4,20.3c-2.3,9.8-4.8,19.5-7.4,29.2c-2.5,9.2-3.8,18.8-5.4,28.2c-0.7,3.8-0.6,7.8-1.4,11.6
		c-1.6,7.9-3.3,15.9-3.7,24c0,0.5-0.1,1.1-0.1,1.7c2.7-1.2,5.4-2.5,8.1-3.7c-2.6,1.4-5.3,2.9-8.1,4.4c-0.1,2.1-0.3,4.3-0.8,6.3
		c-0.6,6.6-1.7,16.4-4.1,28.1c-9.1,44.6-2.3,58.8-10.6,89.8c-9.1,34-16.6,31.6-21.2,90.2c-1.3,17.3-3.2,25.4-12.9,73.3
		c-12.8,63.5-19.2,95.3-22.9,115.9c-10.2,57.2-4.4,42.2-17.7,134.9c-9.3,64.3-15.3,93.8,0,104.2c9,6.2,15.1-1.3,43.4-2
		c39.5-1.1,45.2,7.1,85.5,13.6c28,4.5,30.7-6.3,57.6-3.9c34.7,3.1,42.9,15.3,52.5,12.4 M574.6,663.3c-0.6,0-0.6-1,0-1
		C575.3,662.3,575.3,663.3,574.6,663.3z M590.6,609c0.6,0,0.6,1,0,1C590,610,590,609,590.6,609z M862.4,325
		c-6.5,2.1-13.2,3.3-19.8,5c-4.9,1.2-9.8,2.7-14.8,3.6c-8,1.4-16.1,2.8-24.2,3.6c-3.3,0.3-6.9,1.2-10.2-0.9
		c-0.9-0.6-2.4-0.2-3.7-0.1c-10.9,0.1-20.9-3.3-31-6.8c-10.5-3.7-21-7.5-31.5-11.4c-7.2-2.7-14.3-5.6-21.6-8.3
		c-14.5-5.3-28.1-12.5-42.1-18.9c-17.7-8.1-35.5-15.8-53.1-23.9c-11.4-5.2-22.5-11-33.7-16.4c-5.5-2.7-11.3-5-16.7-7.9
		c-3.9-2.1-4-3.5-1.2-7.4c5.4-7.2,7.6-15.6,10.3-23.8c6-18.5,11.4-37.2,16.3-55.9c2-7.7,2.8-15.7,5.1-23.4c1.1-3.8,2.7-7.6,6.4-8.7
		c3.9-1.1,8-3.1,12.7-1.4c3.1,1.1,6.6,1.2,9.9,1.8c5.4,1,10.8,2,16.3,3c3.5,0.6,7,1.2,10.5,1.8c8.3,1.5,16.7,3.1,25,4.6
		c5.5,1,10.9,1.8,16.4,2.7c6.4,1,12.8,2.1,19.2,3.5c5.8,1.3,11.9,1.3,17.7,2.7c6.9,1.6,13.9,0.9,20.8,1.1c5.2,0.2,10.2-1.3,15.3-2.3
		c3.4-0.7,7.1-0.2,10.6-0.1c0.4,0,1.2,1,1.2,1.5c0,3.4,2.7,2.5,3.6,1.5c5.1-5.5,10.8-1.7,16.3-1.4c0.7,0,1.4,0.7,2.1,0.8
		c6.9,0.5,13.9,0.7,20.8,1.3c26.4,2.3,52.8,1.5,79.1,0.9c14-0.3,28.1-0.3,42.1-1.1c6.6-0.3,13.2-2.7,19.8-3.3
		c9.2-0.9,18.4-1.1,27.7-1.3c2.8-0.1,7.5,5,8.1,8.6c1.5,9.7,4.5,19,5.4,28.9c0.5,5.9,0.6,11.8,1,17.7c0.7,9.6,0.8,19.3,2.7,28.7
		c1.8,9.1,3.6,18.5,8.3,26.9c3.4,6,2.6,7.7-3.4,10.9c-15.5,8.3-30.8,16.8-46.4,25c-17.4,9.1-35.4,16.9-54.1,23.2
		c-7.5,2.5-14.7,5.6-22.1,8.4C876.4,321.7,869.2,322.8,862.4,325z M1136.9,1079.9c-0.1,3.4-1.5,5.2-4.4,6c-9,2.5-18.1,4.8-27.4,6.5
		c-9.3,1.7-18.8,1.7-27.9,3.5c-7.4,1.5-14.9,0.9-22.2,2.3c-8.5,1.6-17,3.4-25.5,4.8c-7.1,1.1-14.4,1.2-21.5,2.7
		c-6.3,1.3-12.9-0.1-19.1,2.3c-0.4,0.1-0.8,0-1.2,0c-7.6,0.4-15.3,0-22.6,1.5c-6,1.2-12.1-0.1-17.9,2.1c-2,0.8-4.6,0.1-6.9,0.1
		c-9.9,0-19.6,1.3-29.2,3.6c-3.9,0.9-8,1-12,1.3c-3.6,0.2-6.1-1.8-6.9-6.6c-1.7-10.3-5.2-20.4-4.1-31.2c0.6-5.5,1-6,7-3.5
		c12.3,0,23.4,0,34.5,0c11.5,0,22.9-1.1,34.2-3.6c3.5-0.8,7.2-0.8,10.8-1.3c7.9-1.1,16.1-1.3,23.4-3.9c7.7-2.8,15.3-1.7,22.9-2.1
		c9-0.5,18.2-0.1,27-1.4c12.7-2,25.6-3.6,37.9-8c8.4-3,17.4-4.2,26.1-6.4c2.6-0.7,5.1-1.9,7.4-3.2c3.3-1.9,9.8-2.2,12.2,0.4
		c1.6,1.7,2.2,4.4,2.6,6.8C1135.5,1061.5,1137.2,1070.6,1136.9,1079.9z"/>
	<path d="M382.4,452.9c1.4-0.7,2.7-1.5,4.1-2.2c0-1.1,0-2.3,0-3.4c-1.6,0.9-3.2,1.8-4.7,2.6C382,450.9,382.2,451.9,382.4,452.9z"/>
	<path d="M596.5,462.6c-0.9,0-2.1-0.4-2.1-0.6c0.5-3.9-1.2-7.9,0.9-11.7c0.6-1.1,0-2.8,0.3-4.1c0.2-0.6,1.3-1.4,1.9-1.3
		c0.6,0,1.7,1.1,1.7,1.6c-0.5,4.4-1.3,8.7-2,13.1C597.1,460.4,596.9,461.3,596.5,462.6z"/>
	<path d="M600.8,150.8c9.3,5.6,19.7,8,29.6,11.4c14.8,5.1,30,9.1,44.8,14.3c11.5,4.1,22.9,8.5,34.5,12.3
		c11.6,3.8,22.3,9.2,32.1,16.1c5.5,3.9,11.8,6.9,18.1,9.6c2.1,0.9,2.5,0.4,2.5-1.4c0-2.4-0.1-4.9,0-7.3c0-0.3,0.7-0.9,1.1-0.9
		c0.4,0,1.2,0.4,1.3,0.8c0.5,2.6,1.1,5.3,1.2,7.9c0.1,2.2,0.7,3.2,3.4,3.7c7.3,1.3,14.5,3.5,21.8,4.2c6.6,0.6,13.3,0.6,20-1.3
		c17.1-4.7,34.2-9.5,51.6-13.3c11.2-2.4,21.9-6.6,32.1-11.9c7.5-3.9,16.4-5.5,23.8-9.5c10.3-5.6,21.6-8.5,32.7-12
		c5.1-1.6,10-3.7,14.9-5.7c0.3-0.1,0.6-0.6,0.5-0.9c-0.1-0.4-0.5-1.2-0.8-1.2c-1.9-0.1-3.9-0.4-5.6,0c-11.5,2.6-23.5,3.7-34.7,7.7
		c-0.7,0.3-2.5-0.2-2.6-0.6c-0.6-1.7,1.2-1.2,2.2-1.6c9.4-3.9,19.4-6.1,29.3-8.5c3.8-0.9,7.9-1.2,11.8-1.5c2.8-0.3,5.8,0.8,6.5,2.9
		c0.7,2.2-0.9,4.4-3.5,6.1c-6.6,4.3-14.3,6.4-21.8,8.4c-11.2,3.1-21.5,7.9-32.1,12c-15.4,6-29.7,14.2-46.3,18
		c-8.5,1.9-16.9,4.2-25.3,6.4c-9.2,2.3-18.3,4.7-27.5,7.1c-8.4,2.2-16.8,5-25.7,4.1c-9.9-1-19.7-2-29.1-6.2
		c-8.3-3.7-16.4-7.9-24.6-11.8c-4.7-2.2-8.9-5.2-13.2-8c-10.8-7-23.3-11-35.5-15.4c-10-3.6-20.3-6.8-30.4-10.1
		c-8.4-2.7-16.9-5.1-25.2-7.9c-11.4-3.8-23.2-7-33.3-13.4c-1-0.6-2.3-1.1-2.8-1.9c-0.7-1.2-1.4-2.9-1-4c0.4-1,2.4-1.8,3.8-1.9
		c4.5-0.5,8.6,0.9,12.8,2.2c10.3,3,20.7,6,31,9c2.6,0.8,5,1.8,7.5,2.8c-2.8,1.5-5.3,0.1-8-0.5c-10.5-2.7-21-5.2-31.5-7.9
		c-3.6-0.9-6.9-3.1-10.9-2.2C597.9,149.4,600.5,150,600.8,150.8z"/>
	<path d="M580.1,128.8c-0.6,0-1.1-0.2-1.2-0.6c-0.9-7.1-4-14.2-1-21.5c0.3-0.7,1.1-1.2,1.7-1.7c0.3,0.8,0.8,1.6,0.8,2.4
		C580.5,114.4,580.4,121.4,580.1,128.8z"/>
	<path d="M-121.7,278.3"/>
	<path d="M164.6,447.2"/>
</g>
<g id="Waistband" class="st0">
	<path class="st1" d="M862.4,325c-6.5,2.1-13.2,3.3-19.8,5c-4.9,1.2-9.8,2.7-14.8,3.6c-8,1.4-16.1,2.8-24.2,3.6
		c-3.3,0.3-6.9,1.2-10.2-0.9c-0.9-0.6-2.4-0.2-3.7-0.1c-10.9,0.1-20.9-3.3-31-6.8c-10.5-3.7-21-7.5-31.5-11.4
		c-7.2-2.7-14.3-5.6-21.6-8.3c-14.5-5.3-28.1-12.5-42.1-18.9c-17.7-8.1-35.5-15.8-53.1-23.9c-11.4-5.2-22.5-11-33.7-16.4
		c-5.5-2.7-11.3-5-16.7-7.9c-3.9-2.1-4-3.5-1.2-7.4c5.4-7.2,7.6-15.6,10.3-23.8c6-18.5,11.4-37.2,16.3-55.9c2-7.7,2.8-15.7,5.1-23.4
		c1.1-3.8,2.7-7.6,6.4-8.7c3.9-1.1,8-3.1,12.7-1.4c3.1,1.1,6.6,1.2,9.9,1.8c5.4,1,10.8,2,16.3,3c3.5,0.6,7,1.2,10.5,1.8
		c8.3,1.5,16.7,3.1,25,4.6c5.5,1,10.9,1.8,16.4,2.7c6.4,1,12.8,2.1,19.2,3.5c5.8,1.3,11.9,1.3,17.7,2.7c6.9,1.6,13.9,0.9,20.8,1.1
		c5.2,0.2,10.2-1.3,15.3-2.3c3.4-0.7,7.1-0.2,10.6-0.1c0.4,0,1.2,1,1.2,1.5c0,3.4,2.7,2.5,3.6,1.5c5.1-5.5,10.8-1.7,16.3-1.4
		c0.7,0,1.4,0.7,2.1,0.8c6.9,0.5,13.9,0.7,20.8,1.3c26.4,2.3,52.8,1.5,79.1,0.9c14-0.3,28.1-0.3,42.1-1.1c6.6-0.3,13.2-2.7,19.8-3.3
		c9.2-0.9,18.4-1.1,27.7-1.3c2.8-0.1,7.5,5,8.1,8.6c1.5,9.7,4.5,19,5.4,28.9c0.5,5.9,0.6,11.8,1,17.7c0.7,9.6,0.8,19.3,2.7,28.7
		c1.8,9.1,3.6,18.5,8.3,26.9c3.4,6,2.6,7.7-3.4,10.9c-15.5,8.3-30.8,16.8-46.4,25c-17.4,9.1-35.4,16.9-54.1,23.2
		c-7.5,2.5-14.7,5.6-22.1,8.4C876.4,321.7,869.2,322.8,862.4,325z"/>
</g>
<g id="Layer_4">
	<path d="M1020.6,1111.6c7.5-2.3,15.2-2.8,22.9-3.6c4.6-0.5,9.3-0.7,13.9-1.3c5.9-0.7,11.8-1.7,17.8-2.4c5.7-0.6,11.4-0.8,17-1.3
		c3-0.3,5.9-0.8,8.8-1.4c5.6-1.1,11.2-2.1,16.7-3.5c7.3-1.8,14.6-3.8,21.9-6.1c2.9-0.9,4.8-3.1,4.5-6.4c-0.5-7.1-0.5-14.3-1.4-21.3"
		/>
	<path d="M880.6,1070.3c0.3,5.1,0.7,10.2,1,15.3c0.4,6.7,1.3,13.2,2.9,19.6c1.2,5.1,1.9,10.4,4.9,15"/>
	<path d="M1135.3,1052.4c1.3,9.1,3,18.2,2.7,27.5c-0.1,3.4-1.5,5.2-4.4,6c-9,2.5-18.1,4.8-27.4,6.5c-9.3,1.7-18.8,1.7-27.9,3.5
		c-7.4,1.5-14.9,0.9-22.2,2.3c-8.5,1.6-17,3.4-25.5,4.8c-7.1,1.1-14.4,1.2-21.5,2.7c-6.3,1.3-12.9-0.1-19.1,2.3
		c-0.4,0.1-0.8,0-1.2,0c-7.6,0.4-15.3,0-22.6,1.5c-6,1.2-12.1-0.1-17.9,2.1"/>
	<path d="M900.3,1116.5c-3.6,0.2-6.1-1.8-6.9-6.6c-1.7-10.3-5.2-20.4-4.1-31.2c0.6-5.5,1-6,7-3.5c12.3,0,23.4,0,34.5,0
		c11.5,0,22.9-1.1,34.2-3.6"/>
</g>
</svg>
